<svg xmlns="http://www.w3.org/2000/svg" width="512" height="512" viewBox="0 0 512 512" version="1.1">
	<path d="M 123.233 1.102 C 112.312 2.940, 100.927 11.132, 96.017 20.684 C 93.149 26.264, 92.040 34.717, 92.040 51 C 92.040 67.612, 93.102 75.359, 96.353 82.460 C 99.317 88.935, 106.497 96.929, 112.516 100.456 C 122.191 106.126, 119.482 106, 231.320 106 L 334.220 106 170.833 268.881 C 29.909 409.371, 7.038 432.570, 4.474 437.631 C 1.796 442.916, 1.500 444.446, 1.500 453 C 1.500 467.433, 3.399 470.775, 22.302 489.620 C 38.674 505.942, 43.240 509.053, 53.563 510.916 C 61.201 512.294, 69.407 510.992, 76.125 507.335 C 79.906 505.277, 122.385 463.269, 243.022 342.287 C 332.025 253.029, 405.097 180, 405.405 180 C 405.712 180, 406.085 227.137, 406.232 284.750 L 406.500 389.500 409.180 395.218 C 412.307 401.890, 419.455 409.905, 425.369 413.370 C 433.990 418.423, 439.101 419.168, 462.747 418.820 C 484.268 418.503, 484.561 418.470, 490.224 415.689 C 497.699 412.019, 505.084 403.768, 508.169 395.642 L 510.500 389.500 510.500 207.500 L 510.500 25.500 507.914 20 C 504.493 12.725, 497.145 5.616, 490.102 2.766 L 484.500 0.500 306.500 0.357 C 206.855 0.278, 126.181 0.605, 123.233 1.102" stroke="none" fillRule="evenodd"/>
</svg>