<svg viewBox="0 0 288 288" fill="none" xmlns="http://www.w3.org/2000/svg">
<g opacity="0.08">
<path d="M261.559 268.59C250.231 266.641 248.88 259.353 247.163 250.115C245.233 239.801 242.851 226.969 225.517 216.737C216.828 211.62 208.505 208.412 200.052 206.93C192.5 205.611 184.992 205.692 177.14 207.194C162.552 209.996 148.779 217.468 135.435 224.675C122.949 231.436 110.034 238.44 96.1322 241.892C88.6665 243.76 81.544 244.45 74.3571 244.044C66.2907 243.577 58.353 241.73 50.1149 238.38C35.7197 232.532 21.4104 230.502 7.59447 232.329C5.04152 232.674 2.51004 233.141 0 233.75V234.38C2.55294 233.771 5.10588 233.284 7.70173 232.938C21.4104 231.111 35.591 233.141 49.8789 238.928C60.0263 243.049 69.4229 244.755 78.2831 244.755C99.672 244.755 117.929 234.867 135.756 225.223C149.658 217.691 162.766 210.585 177.269 207.803C185.035 206.301 192.457 206.22 199.923 207.539C208.311 209.001 216.571 212.189 225.174 217.264C232.79 221.751 242.272 227.335 246.541 250.216C247.421 254.987 248.193 259.109 250.231 262.418C252.484 266.093 256.066 268.245 261.451 269.179C277.391 271.94 286.873 276.305 291.271 282.924C292.323 284.488 293.095 286.193 293.61 288H294.275C293.738 286.071 292.945 284.285 291.808 282.599C287.302 275.839 277.691 271.392 261.559 268.59Z" fill="#848484"/>
<path d="M249.109 275.324C235.615 273.427 234.349 269.612 231.603 261.296C229.201 254.05 225.575 243.069 211.395 227.144C192.324 205.708 172.094 219.11 148.667 234.632C124.919 250.376 97.996 268.199 65.1304 255.362C52.5377 250.437 39.8377 248.014 27.3522 248.115C18.0632 248.196 8.85997 249.69 0 252.556V253.202C8.85997 250.316 18.0417 248.822 27.3522 248.741C39.7519 248.62 52.3661 251.062 64.873 255.947C79.6754 261.74 94.6279 261.841 110.546 256.29C124.469 251.426 136.954 243.15 149.032 235.157C160.616 227.487 171.557 220.241 181.79 217.657C193.096 214.791 202.342 217.94 210.902 227.568C224.996 243.412 228.6 254.312 230.981 261.518C233.727 269.834 235.122 274.012 249.023 275.97C257.154 277.121 262.238 279.946 264.147 284.367C264.619 285.477 264.898 286.688 265.005 288H265.649C265.563 286.607 265.263 285.315 264.748 284.145C262.731 279.462 257.475 276.515 249.109 275.324Z" fill="#848484"/>
<path d="M182.565 248.724C176.613 244.965 168.628 245.087 158.844 249.151C151.072 252.361 142.144 258.051 132.296 266.017C122.234 274.186 113.242 283.127 107.633 289H108.489C114.098 283.127 122.876 274.43 132.703 266.464C142.508 258.519 151.372 252.87 159.079 249.679C168.649 245.717 176.421 245.554 182.18 249.212C195.56 257.686 202.668 271.991 208.941 284.611C209.69 286.094 210.397 287.557 211.125 288.98H211.831C211.061 287.476 210.29 285.932 209.519 284.347C203.246 271.666 196.096 257.279 182.565 248.724Z" fill="#848484"/>
<path d="M165.495 269.365C162.751 267.505 159.206 267.546 154.965 269.486C151.631 271.022 147.854 273.731 143.739 277.551C139.814 281.209 136.29 285.191 133.969 288H134.792C141.375 280.138 156.463 263.989 165.115 269.85C170.707 273.65 173.977 281.189 176.805 288H177.48C174.61 281.067 171.319 273.306 165.495 269.365Z" fill="#848484"/>
<path d="M59.3113 269.11C53.8223 267.797 48.141 266.443 43.0365 264.831C30.3711 260.79 15.6982 264.194 5.61717 267.757C3.63087 268.454 1.75136 269.19 0 269.927V270.583C1.81543 269.827 3.78037 269.051 5.8521 268.314C15.8263 264.791 30.3498 261.427 42.8229 265.408C47.9274 267.04 53.63 268.394 59.1404 269.708C71.5281 272.653 83.2323 275.44 84.0439 280.496C84.3856 282.626 82.8051 285.114 79.2597 288H80.1994C83.5527 285.114 85.0264 282.606 84.6846 280.396C83.809 274.943 72.4678 272.255 59.3113 269.11Z" fill="#848484"/>
<path d="M51.8908 277.496C47.6062 276.796 42.3912 276.837 37.5873 277.62C28.6936 279.061 11.2957 283.675 0 286.785V287.423C11.2957 284.313 28.8018 279.679 37.7171 278.217C42.4561 277.455 47.5846 277.393 51.8042 278.093C57.9064 279.103 60.0487 281.224 60.7845 282.851C61.4553 284.313 61.2822 286.043 60.2868 288H61.0225C61.9746 285.982 62.0828 284.169 61.3687 282.604C59.9189 279.432 55.4179 278.073 51.8908 277.496Z" fill="#848484"/>
<path d="M27.4442 165.048C37.1088 171.251 43.4164 180.147 48.9543 188.003C55.2406 196.899 60.6929 204.592 69.2029 205.837C69.994 205.959 70.8065 206 71.6191 206C78.1833 206 85.9876 202.388 95.8874 194.777C103.307 189.064 109.486 183.881 114.939 179.29C126.442 169.598 134.76 162.599 143.954 160.334C153.34 158.008 163.646 160.456 179.512 168.761C192.469 175.556 207.928 180.229 221.891 181.575C228.391 182.208 234.292 182.086 238.975 181.188C243.914 180.249 247.378 178.556 249.238 176.127C251.782 172.801 252.402 166.619 240.835 156.029C227.001 143.357 211.264 141.827 194.607 140.215C183.574 139.154 172.156 138.032 160.632 133.604C147.589 128.605 136.278 119.912 126.036 107.078C118.467 97.5893 109.636 93.1002 100.463 94.1C94.2197 94.7734 88.0831 97.9157 82.2244 103.405C76.3444 108.955 71.0417 116.607 66.5088 126.156C63.1305 133.236 59.41 136.869 55.0695 137.236C45.6829 138.032 34.8209 122.973 24.3438 108.404C19.1053 101.119 13.6957 93.6103 8.54265 88.2235C5.86992 85.428 3.43239 83.3671 1.14453 82V82.755C8.35021 87.2848 16.176 98.1402 23.8093 108.751C29.0692 116.056 34.5216 123.626 39.7601 129.135C45.3622 135.012 50.1517 137.889 54.3639 137.889C54.6205 137.889 54.8771 137.868 55.1337 137.848C59.7094 137.46 63.6222 133.726 67.0861 126.421C71.5977 116.933 76.8362 109.342 82.6735 103.854C88.4252 98.4463 94.4335 95.3651 100.527 94.7122C109.444 93.7532 118.103 98.1606 125.523 107.465C135.829 120.402 147.247 129.135 160.375 134.175C171.985 138.644 183.446 139.746 194.522 140.827C211.071 142.439 226.701 143.949 240.386 156.478C251.633 166.782 251.12 172.659 248.725 175.78C245.218 180.331 235.211 182.269 221.955 180.984C208.078 179.637 192.704 174.985 179.811 168.231C163.796 159.844 153.362 157.396 143.783 159.763C134.439 162.068 126.079 169.108 114.511 178.862C109.059 183.453 102.901 188.636 95.4812 194.328C84.4909 202.776 76.1734 206.245 69.2884 205.245C61.0564 204.062 55.6896 196.471 49.4675 187.676C43.8868 179.78 37.5578 170.843 27.7863 164.558C19.6826 159.355 11.9637 156.743 4.75806 156.743C3.5393 156.743 2.34191 156.824 1.14453 156.967V157.579C9.24825 156.539 18.0789 159.049 27.4442 165.048Z" fill="#848484"/>
<path d="M12.052 224.736C21.9986 224.88 33.1268 226.79 42.9445 228.453C57.0159 230.855 68.1011 232.744 69.476 228.391C71.5384 221.862 64.8357 216.461 53.7075 207.529C45.7373 201.123 35.7907 193.156 25.1566 181.698C17.1649 173.095 9.19472 169.194 1.50381 170.138C1.03118 170.2 0.537075 170.282 0 170.385V171.021C0.515592 170.918 1.05267 170.816 1.58974 170.754C9.06582 169.851 16.8212 173.67 24.684 182.109C35.361 193.608 45.3076 201.595 53.2993 208.022C64.2127 216.79 70.8079 222.087 68.8745 228.227C67.6714 232.046 56.264 230.095 43.0734 227.857C28.8302 225.434 12.1164 222.58 0.021483 225.044V225.681C3.4158 224.983 7.43311 224.654 12.052 224.736Z" fill="#848484"/>
<path d="M40.8505 222C46.494 222 49.6631 221.023 50.2708 219.047C51.6166 214.743 40.3947 206.986 33.5573 202.744C23.8982 196.734 12.3941 191.078 6.20789 189.269C4.14583 188.665 2.06206 188.25 0.0217059 188V188.624C1.99694 188.873 4.01559 189.289 6.01253 189.872C12.1553 191.66 23.5943 197.275 33.1883 203.264C44.3668 210.23 50.5096 216.053 49.6197 218.86C48.7514 221.605 41.0241 222.104 27.8487 220.274C17.1694 218.798 6.03424 216.24 0 214.618V215.262C6.07765 216.905 17.1477 219.421 27.7401 220.898C33.0581 221.626 37.3993 222 40.8505 222Z" fill="#848484"/>
<path d="M12.8011 210C15.3916 210 16.8379 209.52 17.1186 208.56C17.723 206.641 13.4056 203.449 9.67101 201.112C6.45454 199.088 2.78473 197.168 0 196V196.689C2.71997 197.857 6.23867 199.714 9.32562 201.654C14.118 204.659 16.8595 207.246 16.4925 208.393C15.9097 210.25 7.25326 209.207 0 207.642V208.268C2.1803 208.727 4.61964 209.186 6.99421 209.52C9.34721 209.833 11.2685 210 12.8011 210Z" fill="#848484"/>
<path fill-rule="evenodd" clip-rule="evenodd" d="M74.0293 194C73.4109 194 72.8138 193.939 72.238 193.796C67.0132 192.549 62.8547 189.013 60.2104 183.556C57.5447 177.997 56.649 170.824 57.6513 162.792C58.5683 155.557 61.234 148.383 65.4138 142.047C80.2777 119.463 92.6251 107.078 102.115 105.239C105.165 104.646 107.958 105.157 110.368 106.772C119.405 112.788 125.301 118.645 130.5 123.81L130.691 124.001L130.738 124.047C138.777 132.037 145.134 138.355 159.054 142.006C167.862 144.316 172.02 146.441 171.743 148.526C171.53 150.141 168.544 151.428 162.85 152.368C157.327 153.268 149.351 153.819 139.797 153.942C132.589 154.044 125.104 156.721 116.894 162.178C109.728 166.961 102.947 173.194 96.9542 178.713C88.1041 186.867 80.363 194 74.0293 194ZM65.9683 142.374C61.8524 148.628 59.2081 155.72 58.3124 162.873C57.3314 170.783 58.2058 177.834 60.8288 183.291C63.3666 188.584 67.3757 192.018 72.4086 193.203C72.9417 193.326 73.4962 193.387 74.0506 193.387C80.1069 193.387 87.7624 186.336 96.5055 178.284L96.5064 178.283C102.499 172.745 109.302 166.491 116.531 161.688C124.848 156.17 132.461 153.431 139.797 153.329C149.33 153.206 157.263 152.654 162.743 151.755C169.802 150.59 171.018 149.18 171.124 148.444C171.423 146.114 162.679 143.56 158.905 142.579C144.787 138.859 138.368 132.482 130.265 124.409L130.177 124.322C124.974 119.152 119.082 113.298 110.027 107.262C108.363 106.158 106.529 105.607 104.525 105.607C103.8 105.607 103.032 105.688 102.264 105.831C92.9664 107.65 80.7468 119.933 65.9683 142.374Z" fill="#848484"/>
<path fill-rule="evenodd" clip-rule="evenodd" d="M225.724 171.862C215.723 170.481 204.315 168.185 197.577 166.62C186.339 164.019 181.52 161.703 180.966 158.675C180.476 155.932 183.589 152.621 190.732 148.252C194.634 145.875 199.709 145.367 205.872 146.789C210.755 147.907 216.32 150.223 222.419 153.677C232.569 159.427 240.864 166.457 241.269 166.803C244.254 168.814 245.448 170.318 244.915 171.435C244.403 172.472 242.356 173 238.689 173C235.554 173 231.247 172.614 225.724 171.862ZM199.475 146.586C196.234 146.586 193.44 147.317 191.095 148.74C184.292 152.905 181.179 156.115 181.606 158.513C182.203 161.947 190.092 164.222 197.726 165.99C216.235 170.277 242.74 174.463 244.318 171.151C244.531 170.704 244.382 169.607 240.885 167.25L240.864 167.23C240.859 167.226 240.826 167.199 240.768 167.15C239.809 166.348 231.806 159.661 222.099 154.165C216.064 150.751 210.563 148.455 205.744 147.358C203.505 146.85 201.415 146.586 199.475 146.586Z" fill="#848484"/>
<path d="M299.999 161.1C298.474 159.585 296.733 158.03 294.756 156.475C287.236 150.561 277.696 145.69 266.394 141.986C252.277 137.362 235.366 134.538 216.135 133.596C205.134 133.064 184.034 131.202 166.221 124.674C147.463 117.819 137.063 107.689 135.344 94.572C133.346 79.3879 135.301 69.9746 141.511 64.92C148.301 59.3948 160.592 59.1493 179.07 64.2243C191.898 67.744 202.276 72.5735 210.613 76.4616C218.843 80.3088 225.353 83.3374 231.155 83.8695C237.451 84.4424 242.371 82.0073 247.098 75.9705C250.106 72.1233 252.492 68.4807 254.597 65.2679C258.83 58.7809 261.903 54.0947 266.909 52.3553C272.195 50.5136 279.35 52.0688 290.867 57.5531C294.155 59.1083 297.184 60.8478 299.999 62.6486V61.9119C297.27 60.1725 294.327 58.5149 291.168 57.0006C279.479 51.4344 272.174 49.8792 266.694 51.7619C261.473 53.5831 258.379 58.3307 254.06 64.92C251.976 68.1124 249.591 71.7345 246.604 75.5816C236.892 88.0031 227.115 83.4397 210.914 75.8886C202.556 71.98 192.134 67.1301 179.264 63.6104C160.549 58.4944 148.065 58.7605 141.103 64.4289C134.721 69.6267 132.701 79.2242 134.721 94.6334C136.483 107.996 147.012 118.289 166.006 125.247C183.905 131.796 205.091 133.658 216.114 134.21C235.28 135.131 252.105 137.955 266.157 142.559C277.373 146.243 286.849 151.072 294.305 156.925C296.497 158.644 298.388 160.363 299.999 162V161.1Z" fill="#848484"/>
<path d="M299.999 148.201C295.476 144.945 290.036 141.668 283.87 138.575C266.354 129.768 245.703 123.643 225.755 121.35C205.551 119.015 190.809 116.454 179.374 113.259C164.759 109.204 155.543 104.145 151.191 97.8364C148.247 93.5557 147.607 88.6196 149.249 83.1304C150.487 79.075 152.748 76.3919 156.183 74.9377C167.81 69.9811 190.105 80.3654 209.775 89.5208C216.965 92.8798 223.771 96.034 229.552 98.2051C239.302 101.871 245.297 102.691 249.607 100.909C253.767 99.1882 256.157 95.2147 259.442 89.7051C261.426 86.387 263.666 82.6389 266.824 78.5015C270.195 74.0775 274.462 71.763 279.518 71.6196C286.43 71.4353 293.919 75.3473 299.999 79.6485V78.8907C290.548 72.2751 283.742 70.9028 279.518 71.0052C274.27 71.1486 269.832 73.5449 266.333 78.1329C263.154 82.2907 260.914 86.0798 258.909 89.3979C252.466 100.151 249.522 105.066 229.787 97.6316C224.027 95.4605 217.242 92.3063 210.053 88.9678C190.254 79.7509 167.81 69.3052 155.927 74.3847C152.343 75.9003 149.889 78.8088 148.631 82.9871C146.924 88.64 147.585 93.7605 150.636 98.2051C155.095 104.616 164.418 109.757 179.203 113.853C190.681 117.048 205.466 119.609 225.691 121.944C245.553 124.237 266.12 130.341 283.571 139.107C289.822 142.261 295.412 145.641 299.999 149V148.201Z" fill="#848484"/>
<path d="M299.979 139.16C287.806 129.013 271.297 124.954 258.355 121.798C245.797 118.723 236.741 116.509 237.724 110.524C238.001 108.781 240.522 108.904 244.942 109.273C249.043 109.601 254.126 110.032 258.931 108.474C264.612 106.629 268.52 102.468 270.87 95.7447C272.514 91.0301 275.141 88.3244 278.644 87.7504C285.051 86.6845 293.465 92.67 300.001 98.6144V97.7535C299.83 97.61 299.68 97.446 299.509 97.3025C290.881 89.6772 283.833 86.2541 278.537 87.1355C274.778 87.7504 272.002 90.5791 270.272 95.5397C265.103 110.319 253.015 109.314 245.007 108.658C240.65 108.289 237.489 108.044 237.104 110.442C236.613 113.475 238.343 115.812 242.615 117.76C246.416 119.502 251.883 120.855 258.205 122.392C271.254 125.59 287.891 129.669 300.001 140V139.16H299.979Z" fill="#848484"/>
<path d="M300 133.248C295.888 130.7 291.373 127.087 287.493 123.202C281.685 117.375 278.229 111.987 277.784 107.997C277.551 105.846 278.208 104.134 279.777 102.922C285.289 98.6615 294.277 105.763 300 111.423V110.525C298.813 109.376 297.52 108.185 296.163 107.058C293.005 104.447 290.079 102.651 287.514 101.732C284.25 100.562 281.494 100.792 279.374 102.442C277.636 103.778 276.894 105.679 277.148 108.081C278.039 116.226 290.44 128.152 300 134V133.248Z" fill="#848484"/>
<path fill-rule="evenodd" clip-rule="evenodd" d="M225.955 108.849C226.029 108.899 226.07 108.927 226.077 108.931C228.622 110.731 229.499 112.208 228.75 113.341C227.895 114.535 225.136 115 221.499 115C216.515 115 209.842 114.13 203.981 113.017C189.714 110.327 176.109 105.755 167.596 100.798C158.013 95.215 154.762 89.1662 158.206 83.2995C159.126 81.7215 160.666 80.71 162.762 80.265C169.521 78.8286 182.248 83.2388 200.558 93.3336C213.426 100.413 224.666 107.982 225.955 108.849ZM220.28 114.353C226.205 114.494 227.788 113.543 228.194 112.977C228.879 111.986 227.21 110.509 225.692 109.437C225.136 109.052 183.211 80.6089 165.479 80.6089C164.537 80.6089 163.682 80.6898 162.89 80.8516C160.987 81.2562 159.596 82.1666 158.762 83.5827C157.051 86.4958 157.072 89.4494 158.848 92.3828C160.452 95.0531 163.511 97.7033 167.917 100.273C176.366 105.188 189.885 109.74 204.088 112.411C210.184 113.564 215.938 114.251 220.28 114.353Z" fill="#848484"/>
<path fill-rule="evenodd" clip-rule="evenodd" d="M204.883 103.788C205.038 103.875 205.123 103.924 205.133 103.928C205.151 103.941 205.171 103.956 205.193 103.972C205.561 104.238 206.426 104.864 205.984 105.472C205.707 105.863 204.856 106 203.706 106C200.555 106 195.211 104.866 193.849 104.573C186.759 103.01 180.18 100.762 176.263 98.5531C172.324 96.3249 170.962 94.1553 172.196 92.103C172.495 91.6144 173.005 91.2821 173.687 91.1257C176.455 90.4612 182.586 92.4353 191.933 96.9503C198.08 99.9198 203.656 103.09 204.883 103.788ZM193.976 104.006C201.215 105.59 205.09 105.629 205.452 105.14C205.473 105.101 205.431 104.866 204.749 104.417C204.153 104.065 182.395 91.5948 174.879 91.5948C174.475 91.5948 174.134 91.6339 173.815 91.7121C173.282 91.8294 172.942 92.0639 172.729 92.3962C171.685 94.1162 172.963 96.0121 176.561 98.0449C180.415 100.234 186.929 102.462 193.976 104.006Z" fill="#848484"/>
<path fill-rule="evenodd" clip-rule="evenodd" d="M78.4447 178.782C76.3152 179.649 74.569 180 73.1423 180C70.2462 180 68.6491 178.535 67.776 177.028C62.0902 167.268 74.931 135.839 92.3928 123.581C97.61 119.929 102.295 118.443 106.298 119.186C109.599 119.805 112.431 121.889 114.731 125.397C116.988 128.823 118.074 132.785 117.925 136.871C117.776 140.936 116.392 144.836 113.943 148.138L113.283 149.026L113.245 149.077C105.122 160.019 96.7294 171.324 78.4447 178.782ZM92.7761 124.097C84.8757 129.648 77.1031 139.904 71.9923 151.522C67.201 162.418 65.753 172.303 68.3296 176.719C70.0545 179.67 73.3552 180.165 78.1891 178.184C96.3324 170.776 104.68 159.529 112.751 148.633L113.411 147.746C115.796 144.548 117.137 140.771 117.286 136.83C117.436 132.868 116.371 129.029 114.199 125.728C112.005 122.385 109.301 120.383 106.192 119.805C105.553 119.681 104.893 119.619 104.233 119.619C100.847 119.619 97.0138 121.126 92.7761 124.097Z" fill="#848484"/>
<path fill-rule="evenodd" clip-rule="evenodd" d="M83.9588 165.223C82.6051 165.769 81.4917 166 80.5965 166C78.8935 166 77.9547 165.181 77.4307 164.319C75.9242 161.756 76.8412 156.335 79.8105 150.179C82.9108 143.792 87.5613 137.993 92.2772 134.716C95.3993 132.552 98.194 131.669 100.617 132.11C102.604 132.468 104.329 133.707 105.705 135.808C108.434 139.968 108.259 145.263 105.224 149.318C100.399 155.768 95.1373 160.684 83.9588 165.223ZM92.6702 135.241C88.0634 138.456 83.4785 144.149 80.4218 150.452C77.5835 156.335 76.6447 161.651 78.0202 164.025C78.9372 165.601 80.8585 165.811 83.7186 164.655C94.7662 160.18 99.9406 155.327 104.7 148.961C107.582 145.116 107.757 140.094 105.159 136.165C103.871 134.233 102.32 133.077 100.508 132.741C100.137 132.678 99.7659 132.636 99.3729 132.636C97.3861 132.636 95.1592 133.518 92.6702 135.241Z" fill="#848484"/>
<path opacity="0.2" d="M89.3209 154C89.5669 154 89.8697 153.938 90.2293 153.771C93.0301 152.482 94.3359 151.068 95.547 149.217C96.3419 148.011 96.3987 146.409 95.6795 145.182C95.301 144.538 94.8468 144.163 94.298 144.038C93.6546 143.893 92.8976 144.163 92.0839 144.808C89.6048 146.784 87.4852 151.692 88.3747 153.418C88.5071 153.667 88.7721 154 89.3209 154Z" fill="#848484" stroke="#575757" stroke-width="5"/>
<path d="M299.936 270.423C293.777 270.155 287.79 269.393 282.493 268.157C275.515 266.53 269.658 264.079 265.093 260.907C259.494 257.014 255.811 251.988 254.11 245.932C251.741 237.425 247.994 229.392 243.278 222.677C237.743 214.788 230.96 208.711 223.078 204.592C208.585 196.991 190.948 196.27 170.684 202.45C146.134 209.927 127.033 217.775 113.078 223.521C95.2687 230.834 85.4488 234.871 83.2092 230.442C83.0154 230.051 82.9938 229.639 83.1661 229.186C84.4367 225.828 94.9672 221.256 107.177 215.983C116.265 212.048 126.58 207.579 134.699 202.841C144.088 197.362 149.02 192.398 149.773 187.681C150.829 181.048 153.628 176.393 157.849 174.23C162.651 171.779 169.219 172.418 177.403 176.125C192.434 182.923 229.129 191.038 251.418 191.038C259.106 191.038 265.093 190.07 267.871 187.743C269.55 186.342 270.024 184.509 269.27 182.284C266.794 174.931 269.658 167.33 275.925 164.632C283.785 161.253 292.463 166.156 299.936 174.004V172.974C297.007 169.966 294.035 167.618 291.042 165.929C285.551 162.819 280.081 162.16 275.666 164.075C269.098 166.897 266.083 174.807 268.667 182.469C269.335 184.447 268.926 186.033 267.461 187.269C262.831 191.141 247.865 191.471 226.373 188.155C207.81 185.291 187.804 180.121 177.704 175.548C169.327 171.758 162.565 171.141 157.591 173.674C153.176 175.919 150.269 180.739 149.17 187.578C147.534 197.815 125.03 207.579 106.941 215.406C94.1058 220.967 83.9629 225.355 82.6062 228.959C82.3693 229.577 82.3909 230.154 82.6708 230.69C83.8768 233.079 86.827 233.491 92.2754 232.028C97.293 230.669 104.399 227.765 113.38 224.078C127.313 218.351 146.414 210.503 170.921 203.026C191.013 196.909 208.477 197.609 222.82 205.107C230.594 209.185 237.313 215.2 242.782 222.986C247.456 229.66 251.181 237.631 253.528 246.056C255.251 252.235 259.02 257.385 264.748 261.36C269.378 264.573 275.322 267.045 282.385 268.714C287.747 269.97 293.799 270.753 300.001 271V270.423H299.936Z" fill="#848484"/>
<path d="M299.978 257.973C289.884 260.205 281.925 259.857 275.8 256.928C266.763 252.587 262.794 243.126 259.861 233.542C256.755 223.426 247.848 215.951 240.687 209.951C235.877 205.917 232.081 202.743 231.909 200.204C231.866 199.487 232.125 198.852 232.685 198.258C234.648 196.169 240.903 197.48 248.84 199.139C255.202 200.47 263.139 202.128 271.4 202.579C275.217 202.784 277.719 202.169 279.078 200.695C281.019 198.565 280.286 195.002 279.51 191.234C278.41 185.971 277.288 180.544 282.529 177.555C284.276 176.551 286.217 176.367 288.288 176.94C291.782 177.944 295.772 181.261 299.999 186.606V185.562C296.548 181.302 292.515 177.514 288.482 176.367C286.239 175.712 284.125 175.937 282.206 177.022C276.576 180.237 277.806 186.135 278.884 191.357C279.639 194.982 280.351 198.401 278.604 200.306C277.396 201.616 275.045 202.169 271.443 201.965C263.226 201.514 255.332 199.855 248.991 198.524C240.558 196.763 234.454 195.473 232.232 197.828C231.564 198.545 231.24 199.343 231.305 200.224C231.478 203.009 235.36 206.265 240.299 210.381C247.395 216.32 256.238 223.733 259.279 233.685C262.255 243.392 266.267 252.996 275.541 257.44C279.1 259.14 283.262 260 288.072 260C291.674 260 295.642 259.529 299.999 258.567V257.973H299.978Z" fill="#848484"/>
<path d="M300 242.103C294.945 243.361 288.776 244.082 283.764 242.247C280.08 240.906 277.403 238.308 275.818 234.554C273.633 229.357 269.799 224.531 266.715 220.654C263.673 216.838 261.06 213.538 261.874 212.053C262.388 211.125 264.252 210.775 267.571 210.96L268.685 211.022C278.624 211.6 283.636 211.888 286.099 209.723C287.298 208.671 287.877 207.021 287.941 204.402C288.048 200.793 290.04 197.782 292.91 196.895C295.052 196.235 297.472 196.75 300 198.318V197.555C296.744 195.657 294.217 195.843 292.717 196.317C289.59 197.287 287.405 200.525 287.298 204.402C287.234 206.835 286.72 208.341 285.67 209.269C283.4 211.27 278.195 210.96 268.728 210.403L267.614 210.342C263.952 210.135 261.96 210.589 261.296 211.765C260.289 213.6 262.752 216.714 266.179 221.045C269.242 224.902 273.055 229.687 275.197 234.802C276.846 238.72 279.652 241.422 283.507 242.845C285.778 243.67 288.262 244 290.747 244C294.024 244 297.279 243.443 299.978 242.783V242.103H300Z" fill="#848484"/>
<path d="M300.001 230.391C294.837 230.513 287.521 229.905 286.144 225.645C285.304 223.049 285.885 220.533 287.736 218.566C290.232 215.909 294.643 214.529 300.001 214.61V214.002C294.449 213.941 289.866 215.381 287.262 218.16C285.24 220.31 284.616 223.028 285.52 225.828C286.509 228.87 290.167 230.594 296.386 230.939C297.203 230.98 298.021 231 298.796 231C299.205 231 299.592 231 299.979 230.98V230.391H300.001Z" fill="#848484"/>
<path d="M23.7582 154.714C31.9298 157.919 39.7339 161 45.0087 161C46.4355 161 47.6678 160.773 48.6838 160.276C50.1106 159.573 51.0185 158.312 51.4077 156.554C52.3372 152.419 47.7326 148.428 40.75 142.39C33.8322 136.414 24.3635 128.246 15.9973 116.005C10.3334 107.713 4.97215 102.378 0.021618 100V100.682C4.7992 103.06 9.96591 108.271 15.4569 116.336C23.8879 128.66 33.3782 136.848 40.3176 142.845C47.1273 148.738 51.6455 152.625 50.7808 156.409C50.4132 158.002 49.635 159.077 48.3811 159.697C43.9062 161.951 34.243 158.146 24.0176 154.114C17.2728 151.467 10.2902 148.717 4.23713 147.477C2.72387 147.166 1.29708 146.96 0 146.856V147.477C1.25385 147.58 2.6374 147.766 4.10743 148.076C10.0956 149.338 17.035 152.067 23.7582 154.714Z" fill="#848484"/>
<path d="M19.7263 144C21.8723 144 23.2341 143.482 23.7913 142.465C25.1531 139.914 21.0469 135.05 11.5552 127.953C7.26325 124.764 2.80625 121.814 0 120V120.698C9.38857 126.738 25.4007 138.159 23.2548 142.186C22.8008 143.043 21.5628 143.422 19.8295 143.422C15.2693 143.422 7.18071 140.91 0 138.239V138.877C1.54757 139.455 3.17767 140.033 4.82841 140.591C11.5345 142.864 16.528 144 19.7263 144Z" fill="#848484"/>
<path fill-rule="evenodd" clip-rule="evenodd" d="M113.272 191.438C114.414 189.615 115.62 187.972 116.889 186.53C120.929 181.923 127 179.519 133.114 180.08C136.71 180.421 138.529 181.623 138.55 183.686C138.592 190.516 116.656 204.778 106.778 205.78C105.34 205.94 104.24 206 103.415 206C101.638 206 101.045 205.7 100.834 205.259C100.411 204.337 101.934 203.015 104.472 200.812C107.18 198.468 110.882 195.264 113.272 191.438ZM126.006 196.465C133.389 191.498 137.979 186.59 137.958 183.706C137.936 182.003 136.308 181.002 133.114 180.701C132.542 180.641 131.971 180.621 131.4 180.621C126.07 180.621 120.95 182.905 117.418 186.911C116.17 188.313 114.985 189.955 113.864 191.738C111.453 195.609 107.734 198.831 105.011 201.189L104.938 201.253L104.842 201.336C103.052 202.893 101.219 204.487 101.468 204.998C101.617 205.319 102.653 205.599 106.757 205.179C111.284 204.718 118.835 201.293 126.006 196.465Z" fill="#848484"/>
<path d="M22.1086 82.0488C26.9366 90.5264 32.1079 99.2496 37.1504 105.618C42.708 112.601 47.5359 116 51.9348 116C51.9777 116 52.0206 116 52.0635 116C56.4409 115.939 60.3032 112.58 63.8652 105.782C71.3539 91.5093 80.2159 82.786 89.5071 80.5949C95.8585 79.1001 102.382 80.5744 108.883 85.018C113.883 88.4377 117.445 89.5639 119.719 88.4786C123.088 86.8814 123.281 80.9225 123.496 74.0422C123.732 66.4861 123.989 57.9062 128.732 53.9745C130.942 52.1521 133.903 51.4763 137.787 51.8859C147.958 52.9916 157.635 51.5173 165.768 47.6676C173.492 44.0021 179.479 38.4119 183.062 31.4906C186.474 24.9174 187.461 17.5046 185.959 10.0919C185.337 6.99982 184.285 3.9692 182.848 1H182.118C187.139 11.1157 187.418 21.7639 182.504 31.2244C178.985 38.0228 173.106 43.5107 165.51 47.1147C157.485 50.9234 147.915 52.3568 137.873 51.2715C133.86 50.8415 130.641 51.5787 128.324 53.5036C123.367 57.599 123.11 66.3223 122.852 74.0012C122.659 80.4106 122.466 86.4719 119.44 87.9053C117.381 88.8882 114.055 87.7619 109.248 84.4856C102.575 79.9396 95.88 78.4243 89.3354 79.9601C79.8511 82.2126 70.8389 91.0383 63.2858 105.475C59.8312 112.048 56.1619 115.283 52.0635 115.345C52.0206 115.345 51.9777 115.345 51.9348 115.345C42.6007 115.345 32.3654 98.7377 22.6665 81.7007C16.7228 71.2573 9.49155 64.0903 1.14453 60.2815V60.9573C9.27697 64.807 16.3151 71.8511 22.1086 82.0488Z" fill="#848484"/>
<path d="M29.9862 56C33.6768 56 36.9193 55.4854 39.5859 54.4356C45.6657 52.0479 48.6949 47.1695 48.5883 39.8829C48.4816 32.7403 50.4655 27.4296 54.6467 23.6628C64.9504 14.3177 87.1363 15.9233 110.645 17.6523C114.101 17.8993 117.685 18.1669 121.204 18.3933C124.639 18.6198 127.796 18.7227 130.697 18.7227C143.945 18.7227 151.454 16.4379 153.097 11.8888C154.249 8.67777 152.329 4.78743 149.257 1H148.425C151.582 4.76684 153.587 8.61602 152.499 11.7036C150.622 16.9319 140.126 18.9903 121.268 17.7964C117.749 17.57 114.165 17.3024 110.709 17.0554C87.0723 15.3263 64.737 13.7002 54.2201 23.2305C49.9109 27.1415 47.8629 32.5962 47.9696 39.924C48.0763 46.9225 45.175 51.6362 39.3726 53.9004C31.9062 56.8234 19.7679 55.4854 6.0297 50.2365C4.38709 49.619 2.76581 48.9397 1.14453 48.2399V48.9192C2.68048 49.5984 4.23776 50.2365 5.79504 50.8129C14.7761 54.2298 23.1385 56 29.9862 56Z" fill="#848484"/>
<path d="M17.8005 35.9594C25.478 35.5122 31.9825 31.6707 37.1648 24.5366L38.0179 23.3577C44.3092 14.6992 47.4655 10.3496 52.136 8.54065C56.8065 6.73171 63.1404 7.38211 75.7657 8.70325C77.3012 8.86585 78.9433 9.02845 80.6707 9.21138C95.6205 10.7561 106.454 11.2642 113.791 10.7764C120.85 10.3089 124.859 8.94715 126.395 6.4878C127.333 4.98374 127.29 3.15447 126.523 1H125.861C126.629 3.07317 126.714 4.80081 125.84 6.18293C124.433 8.43902 120.487 9.73984 113.748 10.187C106.454 10.6545 95.6632 10.1463 80.7347 8.60163C79.0073 8.4187 77.3651 8.2561 75.8296 8.0935C63.0978 6.75203 56.7212 6.0813 51.8801 7.97154C47.039 9.86179 43.84 14.252 37.4847 23.0122L36.6317 24.1911C31.556 31.1626 25.2221 34.9228 17.7578 35.3496C13.9191 35.5732 8.35286 34.9431 1.14453 31.7317V32.4024C7.47848 35.187 12.5542 36 16.3289 36C16.8408 36 17.3313 35.9797 17.8005 35.9594Z" fill="#848484"/>
<path d="M26.1935 22.4568C29.3411 21.0404 31.4982 18.6305 32.5768 15.2904C34.1836 10.4283 34.5358 5.5239 34.2717 1H33.6113C33.8755 5.46048 33.5233 10.3015 31.9385 15.1002C30.9039 18.2711 28.8569 20.5542 25.8853 21.886C18.8197 25.0781 7.81403 22.4568 0 19.8778V20.5542C5.26071 22.2877 11.9081 24 17.8952 24C20.9108 23.9789 23.7723 23.5561 26.1935 22.4568Z" fill="#848484"/>
<path d="M157.832 16.0704C153.587 24.0548 134.9 22.9725 134.687 22.9521C124.212 22.9521 114.485 22.2374 105.909 21.5839C93.1525 20.6241 82.1237 19.8073 73.9747 21.829C69.6656 22.8908 66.3164 24.7082 63.7566 27.3629C60.9834 30.2218 59.1061 34.0813 57.9968 39.1252C54.3063 55.9925 44.6428 58.0142 36.8565 59.6274C32.1634 60.6076 28.1102 61.4448 26.7663 65.4472C25.5503 69.1025 26.9583 76.3722 30.3928 83.9687C34.062 92.1165 39.0537 98.4264 43.7468 100.836C45.2614 101.612 46.776 102 48.2053 102C50.9358 102 53.517 100.611 55.7783 97.8955C59.2128 93.7705 62.0073 89.278 64.7165 84.9284C69.7723 76.8011 74.1241 69.7968 80.8864 68.2244C85.0462 67.2647 89.8887 68.4491 95.6484 71.9001C103.285 76.4539 108.576 77.8833 111.84 76.2701C115.893 74.2689 116.298 68.0815 116.725 61.5061C117.301 52.6844 117.898 43.5564 127.37 43.9648C129.545 44.0465 131.636 44.1078 133.663 44.1078C154.142 44.1078 167.432 39.4723 173.17 30.2831C177.693 23.0746 176.541 14.3755 174.791 8.37182C173.959 5.49252 172.914 2.96037 171.997 1H171.293C172.231 2.96037 173.319 5.59462 174.173 8.5556C177.266 19.2355 175.026 26.0968 172.615 29.9767C166.429 39.8603 151.198 44.3732 127.391 43.3726C122.847 43.1888 119.818 45.0267 118.133 49.0087C116.661 52.4598 116.362 57.0544 116.085 61.5061C115.679 67.8977 115.274 73.9218 111.541 75.7596C108.49 77.2707 103.413 75.8413 95.9684 71.41C90.038 67.8773 85.0462 66.652 80.7158 67.6731C73.6974 69.3067 69.2603 76.4131 64.1405 84.663C61.4527 88.9921 58.6581 93.4642 55.245 97.5483C51.9171 101.53 48.1413 102.449 44.0028 100.326C39.4377 97.9771 34.5313 91.7897 30.9261 83.7645C27.6196 76.4131 26.169 69.1433 27.3209 65.6719C28.5582 61.9962 32.2487 61.2202 36.9418 60.2604C40.867 59.4436 45.3041 58.5247 49.2719 55.625C53.8584 52.276 56.9089 46.9258 58.5728 39.2681C60.642 29.7725 65.4205 24.5857 74.0814 22.4416C77.7079 21.5431 81.953 21.2163 86.6675 21.2163C92.3846 21.2163 98.8483 21.7064 105.803 22.2169C114.4 22.85 124.127 23.5851 134.601 23.5851C134.601 23.5851 134.601 23.5851 134.623 23.5851C134.665 23.5851 139.486 23.8914 144.755 23.1563C151.923 22.1761 156.488 19.889 158.365 16.3767C160.392 12.558 159.091 7.41205 154.483 1.02042H153.715C158.408 7.35079 159.773 12.3947 157.832 16.0704Z" fill="#848484"/>
<path d="M159.215 23.8755C155.713 28.1309 145.12 29.8953 128.612 28.9819C116.076 28.2969 104.458 26.2834 104.351 26.2626C104.287 26.2419 97.1967 25.0171 89.2095 26.5325C84.4898 27.4043 80.3894 29.0442 76.9937 31.4107C72.7438 34.3583 69.6045 38.4269 67.6824 43.4919C63.9664 53.3105 59.8019 60.0153 54.9327 64.0009C50.7042 67.4675 46.5824 68.3809 42.7383 69.0244C37.1216 69.9585 35.2209 73.4458 34.6229 76.2067C33.427 81.6038 36.3101 88.8899 40.7949 91.8168C42.0122 92.6056 43.2508 93 44.4468 93C45.5573 93 46.6465 92.6679 47.6716 91.9828C51.8788 89.2013 56.1927 83.8457 60.763 78.1995C69.455 67.426 78.4459 56.2996 87.4796 61.8836C88.8037 62.6931 90.0851 63.5027 91.3024 64.2915C97.9228 68.5054 103.176 71.8475 106.487 70.2699C108.451 69.3357 109.562 66.8655 109.968 62.4648C110.801 53.3727 112.338 46.5226 117.143 42.6616C120.56 39.9007 125.43 38.8836 132.05 39.5063C150.587 41.2708 162.803 38.074 168.377 30.0406C172.841 23.6056 172.072 15.2401 170.641 9.34477C169.829 6.00271 168.719 3.05505 167.843 1H167.16C168.035 3.0343 169.189 6.04422 170.022 9.49007C171.41 15.2608 172.157 23.4395 167.843 29.6877C162.419 37.5135 150.395 40.6065 132.114 38.8836C125.323 38.2401 120.304 39.3195 116.738 42.1841C111.783 46.1904 110.181 53.1652 109.327 62.4233C108.943 66.5334 107.939 68.9206 106.209 69.7301C103.219 71.1417 98.115 67.9034 91.6655 63.7933C90.4268 63.0045 89.1454 62.1949 87.8213 61.3854C83.5287 58.7283 78.8944 59.3926 73.6621 63.4197C69.0919 66.907 64.6071 72.4702 60.2718 77.8466C55.7443 83.472 51.4516 88.7653 47.3299 91.5054C44.9166 93.1038 42.6529 92.2942 41.1579 91.3186C36.8653 88.5162 34.1104 81.5208 35.2423 76.352C35.8189 73.778 37.5914 70.519 42.8451 69.6471C46.7746 68.9828 50.9818 68.0487 55.3385 64.4783C60.2931 60.4097 64.5217 53.6218 68.2804 43.6995C70.1597 38.7383 73.2137 34.7735 77.3354 31.9088C80.6456 29.6047 84.682 28.0063 89.2949 27.1345C92.2848 26.574 95.1465 26.3872 97.5598 26.3872C101.489 26.3872 104.18 26.8646 104.223 26.8646C104.33 26.8854 115.99 28.8989 128.569 29.5839C145.526 30.5181 156.012 28.7329 159.706 24.2491C163.358 19.8276 164.213 13.8908 162.162 7.01986C161.458 4.67419 160.539 2.59838 159.728 1H159.002C159.835 2.57762 160.817 4.73646 161.543 7.18592C162.931 11.8565 163.657 18.4991 159.215 23.8755Z" fill="#848484"/>
<path fill-rule="evenodd" clip-rule="evenodd" d="M91.5215 31.9993C93.8091 30.9328 96.3532 30.7072 98.705 31.384C100.993 32.0403 102.724 33.4145 103.836 35.4654C107.171 41.6389 104.221 52.4885 102.168 58.3953C101.634 59.954 100.971 60.7744 100.095 60.959C99.9663 60.9795 99.8381 61 99.7098 61C98.2856 61 96.65 59.3982 94.614 57.4043L94.5788 57.3698C92.6332 55.4624 90.4312 53.3089 87.7801 51.7912C83.3546 49.248 81.1739 46.3971 81.3022 43.2796C81.5374 37.8446 88.956 33.2094 91.5215 31.9993ZM99.9663 60.3642C100.586 60.2206 101.121 59.5233 101.57 58.2107C106.273 44.6333 104.648 38.3163 103.259 35.7731C102.233 33.8862 100.629 32.6146 98.5126 31.9993C97.6788 31.7532 96.8236 31.6301 95.947 31.6301C94.536 31.6301 93.125 31.9378 91.7995 32.5531C89.3195 33.7221 82.1574 38.1727 81.9436 43.3001C81.8153 46.1715 83.9105 48.8583 88.1222 51.2579C90.8121 52.7818 93.1243 55.0505 94.9964 56.8873L95.0491 56.9391L95.0734 56.9629C97.0727 58.9217 98.7952 60.6093 99.9663 60.3642Z" fill="#848484"/>
<path fill-rule="evenodd" clip-rule="evenodd" d="M93.3215 42.3436C93.9803 41.982 94.7143 41.8969 95.3919 42.1309C96.0695 42.3648 96.5777 42.8328 96.8977 43.5559C97.8388 45.5978 97.0294 49.1073 96.4648 51.0216C96.3707 51.3832 96.1825 51.8724 95.7684 51.9787C95.7119 52 95.6743 52 95.6178 52C95.1517 52 94.7041 51.4783 94.1104 50.7864L94.0932 50.7664C93.585 50.1708 93.0016 49.4902 92.3051 49.0222C91.0441 48.1715 90.423 47.193 90.4606 46.1083C90.5311 44.0754 92.9648 42.5655 93.2866 42.3658C93.3083 42.3524 93.3203 42.3449 93.3215 42.3436ZM95.6554 51.3406C95.7119 51.3406 95.8248 51.1705 95.9378 50.8089C96.3519 49.3413 97.2741 45.7254 96.4271 43.8324C96.1636 43.2794 95.7872 42.9178 95.2602 42.7477C95.0531 42.6839 94.8273 42.6413 94.6202 42.6413C94.2626 42.6413 93.9238 42.7264 93.585 42.9178C93.0768 43.2156 91.1005 44.5981 91.0441 46.1508C91.0064 46.9591 91.5334 47.7461 92.6063 48.4692C93.3592 48.9797 93.9991 49.7241 94.5073 50.3197C94.5329 50.3486 94.5588 50.378 94.5852 50.4078C94.9852 50.8612 95.4612 51.4005 95.6554 51.3406Z" fill="#848484"/>
<path d="M299.999 48.1191C288.148 40.1101 273.875 33.4427 262.559 37.1829C254.372 39.8865 248.693 47.7736 245.714 60.6206C244.343 66.5562 240.914 70.2964 235.534 71.7397C225.462 74.4636 209.345 68.2027 198.094 57.1649C189.072 48.3427 185.45 38.6465 188.15 30.5765C190.657 23.096 191.365 14.965 190.272 6.44777C190.036 4.63862 189.715 2.82947 189.329 1H188.664C189.072 2.87013 189.393 4.6996 189.629 6.52908C190.722 14.965 190.015 23.0147 187.55 30.4139C184.764 38.7075 188.45 48.607 197.644 57.6121C203.002 62.8566 209.731 67.2676 216.611 70.0322C221.497 72.004 226.212 73 230.369 73C232.298 73 234.098 72.7764 235.727 72.3495C241.257 70.8656 244.943 66.8611 246.357 60.7628C249.293 48.1395 254.801 40.415 262.773 37.7724C273.961 34.0728 288.212 40.8622 299.999 48.8916V48.1191Z" fill="#848484"/>
<path d="M300.001 32.4951C291.288 25.3575 277.622 19.0381 266.518 21.1855C259.621 22.5148 254.368 26.9118 250.93 34.213C246.168 44.3159 240.125 51.3921 232.95 55.2779C225.262 59.4295 218.429 58.7341 214.052 57.4252C208.756 55.83 204.186 52.476 201.175 47.9767C198.058 43.3343 196.904 37.8533 197.951 32.5564C200.108 21.5536 200.94 10.9598 200.406 1H199.766C200.278 10.8984 199.467 21.4718 197.332 32.4337C196.264 37.8942 197.438 43.5183 200.641 48.2835C203.738 52.9055 208.436 56.3413 213.881 57.9774C216.166 58.6728 218.515 59 220.863 59C225.07 59 229.32 57.9161 233.27 55.7891C240.573 51.842 246.702 44.6636 251.528 34.4379C254.88 27.3209 259.962 23.067 266.646 21.7581C272.07 20.7151 278.583 21.6559 285.48 24.519C290.648 26.6664 295.858 29.8159 300.001 33.2927V32.4951Z" fill="#848484"/>
<path d="M160.066 281.615C159.522 281.132 158.83 280.939 158.034 281.016C155.331 281.287 151.642 284.855 148.855 288H149.673C152.334 285.029 155.729 281.846 158.097 281.595C158.704 281.537 159.207 281.672 159.626 282.039C161.072 283.293 162.686 285.589 164.153 288H164.886C163.356 285.454 161.617 282.984 160.066 281.615Z" fill="#848484"/>
<path d="M300 20.7089C298.238 20.8545 296.282 20.8545 294.197 20.6674C286.869 20.0021 278.015 17.2578 269.891 13.0998C260.478 8.27651 252.612 15.4699 243.522 23.7859C236.602 30.1268 228.758 37.2994 219.044 39.8981C215.627 40.8129 212.983 40.3347 211.156 38.526C204.946 32.3098 209.093 11.9563 211.93 1H211.264C210.404 4.34719 209.416 8.52599 208.642 12.8919C206.256 26.4678 206.944 35.2412 210.684 38.9834C212.038 40.3347 213.778 41 215.884 41C216.916 41 218.012 40.8337 219.216 40.5218C229.058 37.9023 236.989 30.6674 243.952 24.264C252.87 16.1143 260.564 9.06653 269.569 13.6819C277.864 17.9439 286.59 20.6466 294.112 21.3118C296.218 21.499 298.195 21.5198 299.979 21.3742V20.7089H300Z" fill="#848484"/>
<path d="M220.956 27.9387C221.302 27.9796 221.625 28 221.971 28C227.712 28 234.122 22.0318 237.553 18.3119C242.107 13.4065 246.532 7.02952 249.618 1H248.906C245.863 6.88645 241.525 13.0999 237.079 17.9031C230.949 24.5254 225.251 27.8774 221.043 27.3255C219.294 27.1007 218.151 26.3444 217.546 25.0568C215.28 20.1514 221.41 8.7464 226.222 1.02044H225.467C224.517 2.57381 223.503 4.24981 222.532 5.98713C217.244 15.4095 215.366 21.9092 216.963 25.302C217.633 26.7941 218.992 27.6934 220.956 27.9387Z" fill="#848484"/>
<path d="M228.674 14.9788C228.807 15 228.962 15 229.118 15C230.451 15 232.561 14.2364 235.493 11.0333C237.67 8.67879 239.759 5.47576 240.98 2.67576C241.18 2.20909 241.402 1.63636 241.602 1.02121H240.914C240.758 1.46667 240.58 1.93333 240.381 2.42121C237.87 8.19091 232.139 14.7879 228.785 14.3212C228.163 14.2364 227.763 13.9818 227.541 13.5152C226.408 11.0545 231.006 3.77879 232.983 1H232.183C230.762 3.05758 225.586 10.8 226.941 13.7697C227.23 14.4485 227.807 14.8515 228.674 14.9788Z" fill="#848484"/>
<path d="M299.979 12.5761C297.15 14.1224 293.867 14.6866 290.192 14.206C286.082 13.6836 281.478 11.9284 276.481 8.98209C272.124 6.41194 268.221 3.36119 265.454 1H264.504C267.333 3.44478 271.483 6.76716 276.171 9.52537C281.251 12.5134 285.938 14.3104 290.13 14.8328C290.997 14.9373 291.844 15 292.69 15C295.375 15 297.811 14.4358 300 13.2866V12.5761H299.979Z" fill="#848484"/>
<path fill-rule="evenodd" clip-rule="evenodd" d="M161.909 184.79C166.01 182.464 173.116 182.401 183.035 184.624C189.887 186.171 195.775 188.321 196.62 188.629C196.649 188.64 196.672 188.648 196.689 188.654C203.065 189.797 203.859 190.815 203.816 191.563C203.773 192.581 202.056 193.973 189.089 195.842C181.038 197.006 171.441 197.961 164.443 198.647L162.704 198.813C161.437 198.938 160.299 199 159.269 199C155.34 199 153.043 198.086 152.442 196.299C151.347 193.079 156.392 187.927 161.909 184.79ZM188.96 195.24C201.691 193.391 203.108 192.041 203.129 191.542C203.151 191.293 202.7 190.379 196.495 189.257L196.431 189.236C196.428 189.235 196.409 189.228 196.374 189.215C195.734 188.979 189.792 186.784 182.863 185.227C179.106 184.375 174.619 183.627 170.54 183.627C167.341 183.627 164.378 184.105 162.21 185.33C159.483 186.888 156.929 188.904 155.19 190.877C153.365 192.975 152.592 194.824 153.021 196.112C153.687 198.024 156.993 198.751 162.596 198.19L164.357 198.044C164.874 197.992 165.405 197.939 165.949 197.884C172.762 197.199 181.524 196.317 188.96 195.24Z" fill="#848484"/>
<path fill-rule="evenodd" clip-rule="evenodd" d="M167.185 54.2728C167.007 52.7117 169.432 50.8774 174.372 48.7894C177.621 47.4235 181.47 47.8528 184.184 49.9017C186.321 51.5214 188.635 53.824 187.478 55.7364C186.588 57.2194 183.762 58 180.001 58C177.487 58 174.55 57.6487 171.479 56.9267C168.698 56.2828 167.296 55.4047 167.185 54.2728ZM171.635 56.3608C178.733 58.039 185.564 57.6292 186.877 55.4632C187.633 54.2338 186.543 52.4581 183.739 50.3506C182.182 49.1992 180.246 48.5943 178.288 48.5943C177.042 48.5943 175.796 48.8285 174.639 49.3163C170.122 51.2287 167.697 52.9654 167.83 54.2143C167.919 55.0534 169.232 55.7949 171.635 56.3608Z" fill="#848484"/>
<path d="M235.07 281.664C223.841 280.315 217.246 271.281 208.927 259.835C206.6 256.646 204.186 253.335 201.47 249.901C194.66 241.296 187.03 236.125 178.819 234.531C169.487 232.732 159.228 235.512 148.344 242.788C136.383 250.78 119.076 263.636 104.227 275.573C100.067 278.925 94.6359 283.381 89.3125 288H90.2608C94.485 284.362 99.2912 280.356 104.636 276.043C119.464 264.127 136.749 251.27 148.689 243.299C168.969 229.748 186.556 232.098 200.931 250.289C203.625 253.703 206.039 257.014 208.367 260.202C216.794 271.771 223.453 280.887 234.962 282.277C243.131 283.258 247.807 285.179 248.928 288H249.618C248.562 284.832 243.669 282.706 235.07 281.664Z" fill="#848484"/>
<path d="M174.203 258.129C170.153 256.445 165.996 256.648 161.839 258.718C151.533 263.831 142.19 269.879 134.069 276.717C129.076 280.918 125.305 284.773 122.52 288H123.377C129.719 280.756 141.976 269.25 162.118 259.245C166.103 257.277 170.067 257.074 173.924 258.677C181.703 261.904 187.788 271.847 191.516 279.639C192.952 282.602 194.152 285.504 195.116 288H195.802C194.816 285.443 193.595 282.46 192.116 279.396C186.631 267.931 180.588 260.767 174.203 258.129Z" fill="#848484"/>
<path opacity="0.459984" d="M261.154 161.796C261.774 161.939 262.349 162 262.902 162C265.867 162 267.946 160.065 268.721 157.987C269.65 155.44 268.92 152.018 265.114 150.551C258.964 148.167 254.65 147.454 252.261 148.412C251.177 148.839 250.668 149.858 250.779 151.284C250.933 153.097 252.106 155.359 253.92 157.355C255.955 159.596 258.522 161.165 261.154 161.796Z" fill="#848484" stroke="#575757" stroke-width="5"/>
<path fill-rule="evenodd" clip-rule="evenodd" d="M72.5803 215.855C71.784 214.369 71.9205 212.224 74.1501 211.027C77.5172 209.232 82.0674 210.058 83.8648 211.46C84.6383 212.059 84.9113 212.76 84.6156 213.42C84.024 214.823 81.7489 216.267 77.8813 217.691C77.3125 217.897 76.7437 218 76.2204 218C74.5369 218 73.2173 217.01 72.5803 215.855ZM77.631 217.113C81.2712 215.772 83.478 214.41 84.0013 213.193C84.2288 212.678 83.8193 212.224 83.4098 211.935C82.4542 211.192 80.5659 210.635 78.5638 210.635C77.176 210.635 75.7427 210.903 74.4914 211.564C72.6258 212.554 72.4893 214.287 73.1945 215.566C73.8998 216.845 75.5834 217.876 77.631 217.113Z" fill="#848484"/>
<path fill-rule="evenodd" clip-rule="evenodd" d="M108.69 267.189C107.848 269.176 98.7133 273.512 95.69 274.656C95.0421 274.917 94.4375 275.018 93.8328 274.998C91.9757 274.998 90.5288 273.894 89.8162 272.569C88.9092 270.883 89.082 268.454 91.5438 267.109C95.8627 264.74 106.25 264.359 108.323 266.005C108.755 266.326 108.884 266.748 108.69 267.189ZM91.8677 267.631C89.7514 268.795 89.6002 270.822 90.3992 272.308C91.1983 273.793 93.1202 274.998 95.4308 274.094C99.2531 272.629 107.394 268.534 108.064 266.968C108.129 266.828 108.15 266.667 107.891 266.467C106.034 265.001 95.8196 265.463 91.8677 267.631Z" fill="#848484"/>
<path d="M18.1966 14.3213C21.8135 12.169 20.6079 5.3241 19.4246 1H18.7324C19.045 2.08587 19.3352 3.34626 19.5808 4.66482C20.1613 8.01939 20.34 12.3435 17.817 13.856C14.8698 15.6011 8.88617 13.313 0 7.04986V7.80609C6.85441 12.5956 12.0566 15 15.5396 15C16.5667 14.9806 17.4598 14.7673 18.1966 14.3213Z" fill="#848484"/>
<path fill-rule="evenodd" clip-rule="evenodd" d="M144.946 151C141.825 151 138.492 150.709 136.114 149.873C132.718 148.688 132.548 146.921 133.015 145.638C133.503 144.259 134.501 143.249 136.008 142.647C138.704 141.578 142.951 141.831 148.619 143.424C152.801 144.609 156.262 146.105 156.304 146.124C158.088 146.94 158.151 147.717 157.918 148.222C157.217 149.679 152.801 150.534 148.916 150.845C147.706 150.942 146.347 151 144.946 151ZM136.263 143.171C134.925 143.696 134.034 144.589 133.609 145.813C133.078 147.328 133.991 148.513 136.369 149.329C139.172 150.301 143.97 150.65 148.874 150.262C153.396 149.893 156.878 148.96 157.345 147.989C157.578 147.484 156.75 146.979 156.028 146.649C155.816 146.551 146.602 142.589 139.978 142.589C138.598 142.589 137.324 142.744 136.263 143.171Z" fill="#848484"/>
<path d="M261.559 268.59C250.231 266.641 248.88 259.353 247.163 250.115C245.233 239.801 242.851 226.969 225.517 216.737C216.828 211.62 208.505 208.412 200.052 206.93C192.5 205.611 184.992 205.692 177.14 207.194C162.552 209.996 148.779 217.468 135.435 224.675C122.949 231.436 110.034 238.44 96.1322 241.892C88.6665 243.76 81.544 244.45 74.3571 244.044C66.2907 243.577 58.353 241.73 50.1149 238.38C35.7197 232.532 21.4104 230.502 7.59447 232.329C5.04152 232.674 2.51004 233.141 0 233.75V234.38C2.55294 233.771 5.10588 233.284 7.70173 232.938C21.4104 231.111 35.591 233.141 49.8789 238.928C60.0263 243.049 69.4229 244.755 78.2831 244.755C99.672 244.755 117.929 234.867 135.756 225.223C149.658 217.691 162.766 210.585 177.269 207.803C185.035 206.301 192.457 206.22 199.923 207.539C208.311 209.001 216.571 212.189 225.174 217.264C232.79 221.751 242.272 227.335 246.541 250.216C247.421 254.987 248.193 259.109 250.231 262.418C252.484 266.093 256.066 268.245 261.451 269.179C277.391 271.94 286.873 276.305 291.271 282.924C292.323 284.488 293.095 286.193 293.61 288H294.275C293.738 286.071 292.945 284.285 291.808 282.599C287.302 275.839 277.691 271.372 261.559 268.59Z" fill="#848484"/>
<path d="M249.109 275.324C235.615 273.427 234.349 269.612 231.603 261.296C229.201 254.05 225.575 243.069 211.395 227.144C192.324 205.708 172.094 219.11 148.667 234.632C124.919 250.376 97.996 268.199 65.1304 255.362C52.5377 250.437 39.8377 248.014 27.3522 248.115C18.0632 248.196 8.85997 249.69 0 252.556V253.202C8.85997 250.316 18.0417 248.822 27.3522 248.741C39.7519 248.62 52.3661 251.062 64.873 255.947C79.6754 261.74 94.6279 261.841 110.546 256.29C124.469 251.426 136.954 243.15 149.032 235.157C160.616 227.487 171.557 220.241 181.79 217.657C193.096 214.791 202.342 217.94 210.902 227.568C224.996 243.412 228.6 254.312 230.981 261.518C233.727 269.834 235.122 274.012 249.023 275.97C257.154 277.121 262.238 279.946 264.147 284.367C264.619 285.477 264.898 286.688 265.005 288H265.649C265.563 286.607 265.263 285.315 264.748 284.145C262.731 279.462 257.475 276.515 249.109 275.324Z" fill="#848484"/>
<path d="M181.42 247.724C175.469 243.965 167.483 244.087 157.699 248.151C149.928 251.361 141 257.051 131.152 265.017C121.089 273.186 112.097 282.127 106.488 288H107.345C112.954 282.127 121.732 273.43 131.558 265.464C141.364 257.519 150.227 251.87 157.935 248.679C167.504 244.717 175.276 244.554 181.035 248.212C194.416 256.686 201.524 270.991 207.797 283.611C208.546 285.094 209.252 286.557 209.98 287.98H210.687C209.916 286.476 209.145 284.932 208.375 283.347C202.102 270.666 194.951 256.279 181.42 247.724Z" fill="#848484"/>
<path d="M165.495 269.365C162.751 267.505 159.206 267.546 154.965 269.486C151.631 271.022 147.854 273.731 143.739 277.551C139.814 281.209 136.29 285.191 133.969 288H134.792C141.375 280.138 156.463 263.989 165.115 269.85C170.707 273.65 173.977 281.189 176.805 288H177.48C174.61 281.067 171.297 273.306 165.495 269.365Z" fill="#848484"/>
<path d="M59.3113 269.11C53.8223 267.797 48.141 266.443 43.0365 264.831C30.3711 260.79 15.6982 264.194 5.61717 267.757C3.63087 268.454 1.75136 269.19 0 269.927V270.583C1.81543 269.827 3.78037 269.051 5.8521 268.314C15.8263 264.791 30.3498 261.427 42.8229 265.408C47.9274 267.04 53.63 268.394 59.1404 269.708C71.5281 272.653 83.2323 275.44 84.0439 280.496C84.3856 282.626 82.8051 285.114 79.2597 288H80.1994C83.5527 285.114 85.0264 282.606 84.6846 280.396C83.7876 274.943 72.4465 272.235 59.3113 269.11Z" fill="#848484"/>
<path d="M51.8908 277.496C47.6062 276.796 42.3912 276.837 37.5873 277.62C28.6936 279.061 11.2957 283.675 0 286.785V287.423C11.2957 284.313 28.8018 279.679 37.7171 278.217C42.4561 277.455 47.5846 277.393 51.8042 278.093C57.9064 279.103 60.0487 281.224 60.7845 282.851C61.4553 284.313 61.2822 286.043 60.2868 288H61.0225C61.9746 285.982 62.0828 284.169 61.3687 282.604C59.9189 279.432 55.4179 278.073 51.8908 277.496Z" fill="#848484"/>
<path d="M26.2805 164.061C35.9459 170.262 42.2541 179.156 47.7925 187.009C54.0793 195.902 59.5321 203.593 68.0428 204.837C68.834 204.959 69.6466 205 70.4592 205C77.024 205 84.829 201.39 94.7296 193.781C102.15 188.07 108.33 182.888 113.782 178.299C125.287 168.61 133.605 161.613 142.8 159.349C152.188 157.024 162.494 159.471 178.361 167.773C191.32 174.566 206.78 179.237 220.744 180.583C227.244 181.216 233.146 181.093 237.829 180.196C242.769 179.258 246.233 177.565 248.093 175.137C250.638 171.812 251.258 165.632 239.689 155.045C225.854 142.378 210.116 140.848 193.458 139.237C182.424 138.176 171.005 137.054 159.479 132.628C146.435 127.63 135.123 118.94 124.881 106.11C117.311 96.6249 108.479 92.1374 99.3057 93.1369C93.0617 93.81 86.9246 96.9513 81.0655 102.438C75.185 107.987 69.8818 115.636 65.3485 125.182C61.9699 132.26 58.2491 135.891 53.9082 136.258C44.5208 137.054 33.6579 122 23.1799 107.436C17.9409 100.154 12.5308 92.6473 7.37736 87.2622C4.70441 84.4269 2.26667 82.3667 0 81V81.7547C7.2063 86.2831 15.0327 97.1349 22.6667 107.742C27.9271 115.044 33.3799 122.612 38.6189 128.12C44.2214 133.994 49.0114 136.87 53.2239 136.87C53.4805 136.87 53.7372 136.85 53.9938 136.83C58.5699 136.442 62.4831 132.709 65.9472 125.407C70.4592 115.922 75.6982 108.333 81.5359 102.846C87.2881 97.4409 93.2969 94.3608 99.3913 93.708C108.308 92.7493 116.969 97.1553 124.389 106.457C134.696 119.389 146.115 128.12 159.244 133.158C170.855 137.625 182.317 138.727 193.394 139.808C209.945 141.419 225.576 142.929 239.262 155.453C250.51 165.754 249.996 171.629 247.601 174.75C244.095 179.298 234.087 181.236 220.829 179.951C206.951 178.605 191.576 173.954 178.682 167.202C162.666 158.819 152.23 156.371 142.65 158.737C133.306 161.042 124.945 168.079 113.376 177.83C107.923 182.419 101.765 187.6 94.3447 193.291C83.3535 201.736 75.0353 205.204 68.1497 204.204C59.917 203.021 54.5497 195.433 48.3271 186.642C42.7459 178.748 36.4164 169.813 26.644 163.531C18.5396 158.329 10.8201 155.718 3.61384 155.718C2.39497 155.718 1.19749 155.8 0 155.943V156.555C8.10441 155.555 16.9145 158.044 26.2805 164.061Z" fill="#848484"/>
<path d="M12.052 224.734C21.9986 224.878 33.1268 226.788 42.9445 228.452C57.0159 230.855 68.1011 232.745 69.476 228.39C71.5384 221.859 64.8357 216.456 53.7075 207.521C45.7373 201.113 35.7907 193.143 25.1566 181.682C17.1649 173.096 9.19472 169.193 1.50381 170.138C1.03118 170.2 0.537075 170.282 0 170.385V171.022C0.515592 170.919 1.05267 170.816 1.58974 170.754C9.06582 169.851 16.8212 173.671 24.684 182.113C35.361 193.616 45.3076 201.606 53.2993 208.035C64.2127 216.806 70.8079 222.105 68.8745 228.247C67.6714 232.067 56.264 230.116 43.0734 227.877C28.8302 225.433 12.0949 222.577 0 225.063V225.7C3.43728 224.981 7.43311 224.673 12.052 224.734Z" fill="#848484"/>
<path d="M40.8464 222C46.4923 222 49.6628 221.023 50.2708 219.047C51.6171 214.743 40.3904 206.986 33.5501 202.744C23.8868 196.734 12.3777 191.078 6.18885 189.269C4.1259 188.665 2.04123 188.25 0 188V188.624C1.97609 188.873 3.99561 189.289 5.99341 189.872C12.1388 191.66 23.5828 197.275 33.1809 203.264C44.3643 210.23 50.5097 216.053 49.6193 218.86C48.7507 221.605 41.0201 222.104 27.8389 220.274C17.1768 218.818 6.03684 216.261 0.0217152 214.639V215.283C6.10198 216.926 17.1768 219.442 27.7738 220.919C33.0506 221.646 37.4154 222 40.8464 222Z" fill="#848484"/>
<path d="M12.8011 210C15.3916 210 16.8379 209.52 17.1186 208.56C17.723 206.641 13.4056 203.449 9.67101 201.112C6.45454 199.088 2.78473 197.168 0 196V196.689C2.71997 197.857 6.23867 199.714 9.32562 201.654C14.118 204.659 16.8595 207.246 16.4925 208.393C15.9097 210.25 7.25326 209.207 0 207.642V208.268C2.1803 208.727 4.61964 209.186 6.99421 209.52C9.36879 209.833 11.29 210 12.8011 210Z" fill="#848484"/>
<path fill-rule="evenodd" clip-rule="evenodd" d="M72.8848 194C72.2663 194 71.6692 193.939 71.0934 193.796C65.8687 192.569 61.7102 189.013 59.0658 183.556C56.4002 177.997 55.5045 170.824 56.5068 162.792C57.4238 155.557 60.0895 148.383 64.2693 142.047C79.1332 119.463 91.4806 107.078 100.97 105.239C104.02 104.646 106.814 105.157 109.223 106.772C118.261 112.788 124.156 118.645 129.355 123.81L129.547 124.001L129.593 124.047C137.632 132.037 143.99 138.355 157.91 142.006C166.717 144.316 170.875 146.441 170.598 148.526C170.385 150.141 167.399 151.428 161.706 152.368C156.182 153.268 148.206 153.819 138.653 153.942C131.445 154.044 123.959 156.721 115.749 162.178C108.584 166.961 101.802 173.194 95.8097 178.713C86.9596 186.867 79.2185 194 72.8848 194ZM64.8237 142.374C60.7079 148.628 58.0635 155.72 57.1679 162.873C56.1869 170.783 57.0613 177.854 59.6843 183.311C62.222 188.604 66.2312 192.038 71.264 193.223C71.7972 193.346 72.3516 193.407 72.9061 193.407C78.9623 193.407 86.6179 186.357 95.3609 178.305L95.3619 178.304C101.354 172.765 108.157 166.511 115.387 161.708C123.703 156.19 131.317 153.451 138.653 153.349C148.185 153.227 156.118 152.675 161.599 151.776C168.658 150.611 169.873 149.2 169.98 148.465C170.278 146.135 161.535 143.58 157.76 142.599C143.643 138.879 137.224 132.503 129.12 124.43L129.032 124.343C123.829 119.173 117.937 113.319 108.882 107.283C107.219 106.179 105.385 105.627 103.38 105.627C102.655 105.627 101.887 105.709 101.12 105.852C91.8218 107.65 79.6023 119.933 64.8237 142.374Z" fill="#848484"/>
<path fill-rule="evenodd" clip-rule="evenodd" d="M224.579 171.862C214.579 170.481 203.171 168.185 196.432 166.62C185.174 164.019 180.354 161.723 179.821 158.675C179.331 155.932 182.444 152.621 189.588 148.252C193.49 145.875 198.565 145.367 204.727 146.789C209.61 147.907 215.176 150.223 221.274 153.677C231.424 159.427 239.719 166.457 240.124 166.803C243.109 168.814 244.304 170.318 243.77 171.435C243.259 172.472 241.212 173 237.544 173C234.409 173 230.102 172.614 224.579 171.862ZM198.309 146.606C195.068 146.606 192.274 147.338 189.929 148.76C183.127 152.925 180.035 156.136 180.44 158.533C181.037 161.967 188.927 164.243 196.56 166.01C215.069 170.298 241.574 174.483 243.152 171.171C243.365 170.724 243.216 169.627 239.719 167.27L239.698 167.25C239.693 167.246 239.66 167.219 239.602 167.17C238.643 166.369 230.64 159.681 220.933 154.185C214.898 150.772 209.397 148.476 204.578 147.378C202.339 146.87 200.249 146.606 198.309 146.606Z" fill="#848484"/>
<path fill-rule="evenodd" clip-rule="evenodd" d="M215.93 163.559C212.244 163.014 208.019 162.111 205.535 161.503C201.952 160.622 199.529 159.719 199.26 158.208C199.053 157.033 200.192 155.711 202.946 153.928C205.597 152.186 209.614 152.899 214.832 156.047C218.539 158.271 221.583 160.999 221.811 161.209C222.639 161.797 223.529 162.573 223.219 163.266C223.053 163.643 222.577 164 220.755 164C219.678 164 218.145 163.874 215.93 163.559ZM206.28 153.655C205.182 153.655 204.168 153.907 203.298 154.473C200.896 156.026 199.736 157.264 199.861 158.103C200.068 159.342 202.905 160.202 205.659 160.873C214.915 163.161 222.246 163.874 222.639 163.014C222.639 163.014 222.763 162.699 221.438 161.734L221.417 161.713C221.414 161.71 221.399 161.697 221.373 161.674C220.687 161.067 212.309 153.655 206.28 153.655Z" fill="#848484"/>
<path d="M266.232 51.7734C261.029 53.6012 257.946 58.3657 253.642 64.9785C251.565 68.1822 249.188 71.8172 246.212 75.6781C236.534 88.1439 226.791 83.5642 210.646 75.9862C202.317 72.0636 191.932 67.1965 179.106 63.6642C160.456 58.53 148.016 58.797 141.078 64.4856C134.719 69.7019 132.706 79.3336 134.719 94.7977C136.474 108.208 146.966 118.538 165.895 125.521C183.731 132.092 204.844 133.961 215.828 134.516C234.928 135.44 251.693 138.274 265.697 142.895C276.874 146.591 286.317 151.438 293.747 157.311C296.188 159.242 298.265 161.152 299.999 163V162.096C298.351 160.412 296.445 158.646 294.218 156.88C286.724 150.945 277.217 146.057 265.954 142.34C251.886 137.699 235.035 134.865 215.871 133.92C204.908 133.386 183.881 131.517 166.13 124.966C147.437 118.086 137.074 107.921 135.361 94.7567C133.37 79.5185 135.318 70.0716 141.506 64.999C148.273 59.4541 160.52 59.2077 178.935 64.3008C191.718 67.8331 202.06 72.6797 210.368 76.5817C218.569 80.4426 225.057 83.482 230.838 84.016C237.112 84.591 242.015 82.1472 246.726 76.0888C249.723 72.2279 252.1 68.5724 254.199 65.3482C258.417 58.838 261.479 54.1351 266.468 52.3895C271.735 50.5412 278.865 52.102 290.342 57.6058C293.833 59.2898 297.044 61.1381 299.999 63.0891V62.3087C297.13 60.4194 294.004 58.6532 290.621 57.0308C278.951 51.4448 271.671 49.8635 266.232 51.7734Z" fill="#848484"/>
<path d="M278.901 71.0071C273.632 71.1515 269.176 73.5652 265.663 78.1864C262.472 82.3743 260.223 86.1909 258.209 89.533C251.74 100.364 248.785 105.315 228.971 97.8263C223.188 95.6395 216.376 92.4625 209.158 89.0998C189.28 79.8162 166.746 69.2948 154.815 74.4111C151.217 75.9377 148.753 78.8672 147.49 83.0757C145.776 88.7697 146.44 93.9272 149.503 98.404C153.959 104.902 163.34 110.06 178.163 114.186C189.687 117.404 204.531 119.983 224.837 122.335C244.779 124.646 265.428 130.793 282.949 139.623C289.482 142.924 295.287 146.472 300 150V149.175C295.351 145.75 289.697 142.326 283.228 139.066C265.642 130.195 244.908 124.027 224.88 121.716C204.595 119.364 189.794 116.785 178.313 113.567C163.64 109.482 154.387 104.387 150.017 98.0326C147.061 93.7209 146.419 88.749 148.068 83.2202C149.31 79.1354 151.581 76.4328 155.03 74.9681C166.703 69.9756 189.087 80.4351 208.836 89.6568C216.055 93.0401 222.888 96.2172 228.693 98.404C238.482 102.097 244.501 102.922 248.827 101.127C253.004 99.3942 255.403 95.392 258.702 89.8424C260.694 86.5004 262.943 82.725 266.113 78.5577C269.498 74.1016 273.782 71.7704 278.858 71.626C286.012 71.4403 293.788 75.6489 299.978 80.1256V79.3417C290.254 72.3274 283.228 70.8833 278.901 71.0071Z" fill="#848484"/>
<path d="M277.762 86.1343C273.969 86.7438 271.168 89.5476 269.423 94.4644C264.208 109.113 252.012 108.118 243.931 107.467C239.536 107.102 236.347 106.858 235.959 109.235C235.463 112.242 237.209 114.558 241.518 116.488C245.354 118.215 250.87 119.556 257.248 121.08C270.608 124.29 287.717 128.415 299.978 139V138.167C287.652 127.765 270.672 123.681 257.399 120.491C244.729 117.443 235.592 115.249 236.584 109.316C236.864 107.589 239.406 107.711 243.867 108.077C248.004 108.402 253.132 108.829 257.981 107.285C263.712 105.456 267.656 101.332 270.026 94.6676C271.685 89.9946 274.336 87.3127 277.869 86.7438C284.528 85.6467 293.298 91.9654 299.999 98.0199V97.1666C299.654 96.8415 299.288 96.5368 298.922 96.2117C290.216 88.6536 283.106 85.2606 277.762 86.1343Z" fill="#848484"/>
<path d="M286.634 101.746C283.286 100.553 280.461 100.788 278.287 102.471C276.505 103.834 275.744 105.773 276.005 108.222C276.94 116.701 290.133 129.184 300.001 135V134.233C295.632 131.613 290.763 127.778 286.59 123.624C280.635 117.681 277.092 112.185 276.635 108.116C276.396 105.922 277.07 104.175 278.678 102.939C284.525 98.4443 294.154 106.326 300.001 112.163V111.247C298.653 109.905 297.11 108.499 295.48 107.157C292.241 104.516 289.264 102.684 286.634 101.746Z" fill="#848484"/>
<path fill-rule="evenodd" clip-rule="evenodd" d="M225.946 108.868C226.02 108.918 226.061 108.946 226.068 108.95C228.613 110.751 229.512 112.228 228.742 113.341C227.886 114.535 225.127 115 221.491 115C216.508 115 209.835 114.13 203.975 113.017C189.71 110.326 176.107 105.753 167.595 100.796C158.013 95.2117 154.762 89.1619 158.206 83.2942C159.125 81.716 160.665 80.7044 162.761 80.2592C169.52 78.8429 182.245 83.2335 200.553 93.3503C213.419 100.431 224.658 108.001 225.946 108.868ZM220.272 114.353C226.197 114.494 227.779 113.543 228.186 112.977C228.891 112.005 227.223 110.508 225.683 109.436C225.127 109.051 183.208 80.6032 165.477 80.6032C164.536 80.6032 163.681 80.6841 162.89 80.846C160.986 81.2507 159.596 82.1612 158.762 83.5775C157.051 86.4911 157.072 89.4452 158.847 92.379C160.451 95.0499 163.51 97.7004 167.916 100.27C176.364 105.187 189.881 109.739 204.082 112.41C210.177 113.563 215.931 114.251 220.272 114.353Z" fill="#848484"/>
<path fill-rule="evenodd" clip-rule="evenodd" d="M204.895 102.787C205.049 102.874 205.135 102.923 205.144 102.927C205.464 103.142 206.464 103.827 205.974 104.472C205.698 104.863 204.846 105 203.697 105C200.547 105 195.205 103.866 193.842 103.573C186.755 102.008 180.178 99.7598 176.262 97.5503C172.324 95.3213 170.962 93.1509 172.196 91.0978C172.494 90.609 173.005 90.2766 173.686 90.1201C176.453 89.4749 182.604 91.4302 191.948 95.947C198.094 98.9175 203.668 102.089 204.895 102.787ZM193.991 102.986C201.228 104.57 205.102 104.609 205.464 104.12C205.506 104.101 205.442 103.866 204.761 103.397C204.165 103.045 182.413 90.5699 174.899 90.5699C174.495 90.5699 174.154 90.609 173.835 90.6872C173.303 90.8045 172.963 91.0391 172.75 91.3715C171.707 93.0922 172.984 94.9889 176.581 97.0224C180.433 99.2123 186.946 101.441 193.991 102.986Z" fill="#848484"/>
<path fill-rule="evenodd" clip-rule="evenodd" d="M77.3002 178.782C75.1707 179.649 73.4245 180 71.9977 180C69.1016 180 67.5258 178.555 66.6314 177.028C60.9457 167.268 73.7865 135.839 91.2483 123.581C96.4655 119.929 101.15 118.443 105.154 119.186C108.455 119.805 111.287 121.889 113.587 125.397C115.844 128.823 116.93 132.785 116.781 136.871C116.632 140.936 115.248 144.836 112.799 148.138L112.139 149.026L112.1 149.077C103.977 160.019 95.5848 171.324 77.3002 178.782ZM91.6316 124.118C83.7312 129.669 75.9586 139.925 70.8478 151.543C66.0565 162.418 64.6297 172.323 67.1851 176.74C68.91 179.69 72.2107 180.186 77.0446 178.205C95.1878 170.796 103.535 159.55 111.606 148.654L112.266 147.767C114.651 144.568 115.993 140.792 116.142 136.85C116.291 132.888 115.226 129.05 113.054 125.748C110.861 122.405 108.156 120.404 105.047 119.826C104.408 119.702 103.748 119.64 103.088 119.64C99.7023 119.64 95.8693 121.146 91.6316 124.118Z" fill="#848484"/>
<path fill-rule="evenodd" clip-rule="evenodd" d="M83.9588 165.223C82.6051 165.769 81.4917 166 80.5965 166C78.8717 166 77.9329 165.181 77.4307 164.319C75.9242 161.756 76.8412 156.335 79.8105 150.179C82.9108 143.792 87.5613 137.993 92.2772 134.716C95.3993 132.552 98.194 131.669 100.617 132.11C102.604 132.468 104.329 133.707 105.705 135.808C108.434 139.968 108.259 145.263 105.224 149.318C100.399 155.768 95.1373 160.684 83.9588 165.223ZM92.6702 135.241C88.0634 138.456 83.4785 144.149 80.4218 150.452C77.5617 156.314 76.6229 161.651 78.0202 164.025C78.9372 165.601 80.8585 165.811 83.7186 164.655C94.7662 160.18 99.9406 155.327 104.7 148.961C107.582 145.116 107.757 140.094 105.159 136.165C103.871 134.233 102.32 133.077 100.508 132.741C100.137 132.678 99.7659 132.636 99.3729 132.636C97.3861 132.636 95.1592 133.518 92.6702 135.241Z" fill="#848484"/>
<path d="M290.507 165.929C285.029 162.819 279.574 162.16 275.17 164.075C268.619 166.897 265.612 174.805 268.189 182.466C268.855 184.443 268.447 186.029 266.986 187.264C262.368 191.136 247.44 191.465 226.003 188.15C207.488 185.287 187.534 180.118 177.46 175.546C169.104 171.757 162.359 171.139 157.398 173.672C152.994 175.917 150.095 180.736 148.999 187.573C147.367 197.808 124.921 207.57 106.878 215.396C94.0759 220.956 83.959 225.343 82.6058 228.947C82.3695 229.565 82.391 230.141 82.6702 230.677C83.8731 233.066 86.8158 233.477 92.2501 232.015C97.2549 230.656 104.343 227.752 113.3 224.066C127.197 218.341 146.25 210.494 170.694 203.019C190.734 196.902 208.154 197.602 222.459 205.099C230.213 209.176 236.915 215.19 242.371 222.974C247.032 229.647 250.748 237.617 253.089 246.04C254.808 252.218 258.567 257.367 264.28 261.341C268.898 264.554 274.827 267.025 281.872 268.693C287.371 269.991 293.621 270.773 300.001 271V270.382C293.664 270.156 287.478 269.373 282.022 268.076C275.063 266.449 269.22 263.998 264.667 260.826C259.082 256.934 255.409 251.909 253.712 245.855C251.349 237.349 247.612 229.317 242.908 222.604C237.388 214.716 230.622 208.641 222.76 204.522C208.304 196.923 190.713 196.223 170.5 202.38C146.014 209.856 126.961 217.702 113.042 223.448C95.2787 230.759 85.4841 234.795 83.2502 230.368C83.0569 229.976 83.0354 229.565 83.2072 229.111C84.4745 225.755 94.978 221.183 107.157 215.911C116.221 211.977 126.51 207.508 134.608 202.772C143.973 197.294 148.892 192.33 149.644 187.614C150.696 180.983 153.488 176.329 157.698 174.166C162.488 171.716 169.04 172.354 177.202 176.061C192.195 182.857 228.796 190.971 251.027 190.971C258.695 190.971 264.667 190.003 267.438 187.676C269.113 186.276 269.586 184.443 268.834 182.219C266.364 174.866 269.22 167.267 275.471 164.569C283.504 161.11 292.397 166.341 299.979 174.537V173.487C296.843 170.295 293.686 167.741 290.507 165.929Z" fill="#848484"/>
<path d="M288.001 176.367C285.777 175.712 283.681 175.937 281.778 177.022C276.196 180.237 277.415 186.135 278.484 191.357C279.233 194.982 279.938 198.401 278.206 200.306C277.008 201.616 274.677 202.169 271.106 201.965C262.957 201.514 255.13 199.855 248.842 198.524C240.48 196.763 234.427 195.473 232.225 197.828C231.562 198.545 231.241 199.343 231.305 200.224C231.476 203.009 235.326 206.265 240.223 210.381C247.259 216.32 256.028 223.733 259.044 233.685C261.995 243.392 265.973 252.996 275.169 257.44C278.698 259.14 282.826 260 287.595 260C291.316 260 295.444 259.488 299.978 258.444V257.809C289.712 260.184 281.628 259.877 275.447 256.887C266.486 252.546 262.551 243.085 259.642 233.501C256.563 223.385 247.73 215.91 240.63 209.91C235.86 205.876 232.096 202.702 231.925 200.163C231.882 199.446 232.139 198.811 232.695 198.217C234.641 196.128 240.843 197.439 248.714 199.098C255.023 200.429 262.893 202.087 271.084 202.538C274.87 202.743 277.351 202.128 278.698 200.654C280.623 198.524 279.896 194.961 279.126 191.193C278.035 185.93 276.923 180.503 282.12 177.514C283.852 176.51 285.777 176.326 287.83 176.899C291.444 177.944 295.615 181.527 299.999 187.282V186.217C296.449 181.732 292.214 177.575 288.001 176.367Z" fill="#848484"/>
<path d="M292.271 196.309C289.188 197.279 287.034 200.517 286.928 204.395C286.865 206.829 286.358 208.335 285.323 209.263C283.085 211.264 277.954 210.955 268.62 210.398L267.522 210.336C263.911 210.13 261.947 210.583 261.293 211.759C260.3 213.595 262.728 216.71 266.107 221.042C269.127 224.899 272.886 229.685 274.997 234.8C276.623 238.719 279.39 241.422 283.191 242.845C285.429 243.67 287.879 244 290.328 244C293.791 244 297.233 243.361 300 242.639V241.979C294.932 243.319 288.575 244.165 283.423 242.267C279.791 240.927 277.151 238.327 275.589 234.573C273.435 229.375 269.655 224.548 266.614 220.67C263.615 216.854 261.039 213.554 261.842 212.069C262.348 211.14 264.186 210.79 267.459 210.975L268.557 211.037C278.355 211.615 283.296 211.904 285.725 209.738C286.907 208.686 287.477 207.036 287.541 204.416C287.646 200.806 289.61 197.794 292.44 196.907C294.699 196.206 297.297 196.846 300 198.681V197.898C296.536 195.649 293.855 195.814 292.271 196.309Z" fill="#848484"/>
<path d="M287.185 218.181C285.235 220.328 284.634 223.041 285.505 225.836C286.459 228.874 289.984 230.595 295.978 230.939C296.766 230.98 297.554 231 298.3 231C298.881 231 299.462 230.98 300.001 230.959V230.352C295.003 230.534 287.454 230.048 286.086 225.633C285.277 223.041 285.837 220.53 287.62 218.566C290.109 215.832 294.567 214.435 299.98 214.617V214.009C294.422 213.868 289.798 215.326 287.185 218.181Z" fill="#848484"/>
<path d="M23.7699 154.714C31.938 157.919 39.7389 161 45.0115 161C46.4377 161 47.6694 160.773 48.685 160.276C50.1112 159.573 51.0188 158.312 51.4077 156.554C52.3369 152.419 47.7342 148.428 40.7545 142.39C33.8396 136.414 24.3749 128.246 16.0122 116.005C10.3291 107.713 4.99167 102.378 0.021609 100V100.682C4.79719 103.06 9.96173 108.271 15.4504 116.336C23.8779 128.66 33.3642 136.848 40.3007 142.845C47.1075 148.738 51.6238 152.625 50.7595 156.409C50.3921 158.002 49.6142 159.077 48.3609 159.697C43.8878 161.951 34.2286 158.146 24.0076 154.114C17.2656 151.467 10.2859 148.717 4.23536 147.477C2.72273 147.166 1.29654 146.96 0 146.856V147.477C1.25332 147.58 2.63629 147.766 4.1057 148.076C10.113 149.338 17.0711 152.067 23.7699 154.714Z" fill="#848484"/>
<path d="M19.7263 143C21.8723 143 23.2341 142.482 23.7913 141.465C25.1531 138.914 21.0469 134.05 11.5552 126.953C7.26325 123.764 2.80625 120.814 0 119V119.698C9.38857 125.738 25.4007 137.159 23.2548 141.186C22.8008 142.043 21.5628 142.422 19.8295 142.422C15.2693 142.422 7.18071 139.91 0 137.239V137.877C1.54757 138.455 3.17767 139.033 4.82841 139.591C11.5139 141.864 16.5074 143 19.7263 143Z" fill="#848484"/>
<path fill-rule="evenodd" clip-rule="evenodd" d="M112.127 191.438C113.27 189.615 114.475 187.972 115.745 186.53C119.764 181.923 125.856 179.519 131.969 180.08C135.565 180.421 137.384 181.623 137.405 183.686C137.448 190.516 115.512 204.778 105.633 205.78C104.195 205.94 103.095 206 102.27 206C100.493 206 99.9009 205.7 99.6894 205.259C99.2663 204.337 100.789 203.015 103.328 200.812C106.035 198.468 109.737 195.264 112.127 191.438ZM124.84 196.465C132.223 191.498 136.813 186.59 136.792 183.706C136.792 182.003 135.142 180.982 131.948 180.701C131.377 180.641 130.806 180.621 130.234 180.621C124.904 180.621 119.785 182.905 116.252 186.911C115.004 188.313 113.82 189.955 112.699 191.738C110.288 195.609 106.568 198.831 103.845 201.189L103.772 201.253L103.676 201.336C101.887 202.893 100.053 204.487 100.303 204.998C100.451 205.319 101.487 205.599 105.591 205.179C110.118 204.718 117.669 201.293 124.84 196.465Z" fill="#848484"/>
<path d="M20.9641 82.0488C25.7921 90.5264 30.9634 99.2496 36.0059 105.618C41.5634 112.601 46.3914 116 50.7902 116C50.8331 116 50.876 116 50.919 116C55.2963 115.939 59.1587 112.58 62.7207 105.782C70.2094 91.5093 79.0714 82.786 88.3625 80.5949C94.714 79.1001 101.237 80.5744 107.739 85.018C112.738 88.4377 116.3 89.5639 118.575 88.4786C121.944 86.8814 122.137 80.9225 122.351 74.0422C122.587 66.4861 122.845 57.9062 127.587 53.9745C129.797 52.1521 132.758 51.4763 136.642 51.8859C146.813 52.9916 156.491 51.5173 164.623 47.6676C172.348 44.0021 178.334 38.4119 181.918 31.4906C185.33 24.9174 186.317 17.5046 184.815 10.0919C184.192 6.99982 183.141 3.9692 181.703 1H180.974C185.995 11.1157 186.274 21.7639 181.36 31.2244C177.841 38.0228 171.961 43.5107 164.365 47.1147C156.34 50.9234 146.77 52.3568 136.728 51.2715C132.715 50.8415 129.497 51.5787 127.179 53.5036C122.223 57.599 121.965 66.3223 121.708 74.0012C121.515 80.4106 121.321 86.4719 118.296 87.9053C116.236 88.8882 112.91 87.7619 108.104 84.4856C101.43 79.9396 94.7355 78.4243 88.1909 79.9601C78.7066 82.2126 69.6944 91.0383 62.1413 105.475C58.6866 112.048 55.0174 115.283 50.919 115.345C50.876 115.345 50.8331 115.345 50.7902 115.345C41.4562 115.345 31.2209 98.7377 21.522 81.7007C15.5782 71.3187 8.36848 64.1517 0 60.3429V61.0187C8.11099 64.807 15.1491 71.8511 20.9641 82.0488Z" fill="#848484"/>
<path d="M28.8417 56C32.5322 56 35.7748 55.4854 38.4414 54.4356C44.5212 52.0479 47.5504 47.1695 47.4437 39.8829C47.3371 32.7403 49.321 27.4296 53.5022 23.6628C63.8058 14.3177 85.9917 15.9233 109.5 17.6523C112.956 17.8993 116.54 18.1669 120.06 18.3933C123.494 18.6198 126.652 18.7227 129.553 18.7227C142.8 18.7227 150.31 16.4379 151.952 11.8888C153.104 8.67777 151.184 4.78743 148.112 1H147.28C150.438 4.76684 152.443 8.61602 151.355 11.7036C149.478 16.9319 138.982 18.9903 120.124 17.7964C116.604 17.57 113.02 17.3024 109.564 17.0554C85.9277 15.3263 63.5925 13.7002 53.0755 23.2305C48.7663 27.1415 46.7184 32.5962 46.8251 39.924C46.9317 46.9225 44.0305 51.6362 38.228 53.9004C30.7616 56.8234 18.6234 55.4854 4.88517 50.2365C3.24256 49.619 1.62128 48.9397 0 48.2399V48.9192C1.53595 49.5984 3.09323 50.2365 4.65051 50.8129C13.6529 54.2298 22.0153 56 28.8417 56Z" fill="#848484"/>
<path d="M16.6559 35.9594C24.3334 35.5122 30.838 31.6707 36.0203 24.5366L36.8734 23.3577C43.1647 14.6992 46.321 10.3496 50.9915 8.54065C55.6619 6.73171 61.9959 7.38211 74.6211 8.70325C76.1566 8.86585 77.7988 9.02845 79.5262 9.21138C94.4973 10.7358 105.331 11.2642 112.646 10.7764C119.705 10.3089 123.715 8.94715 125.25 6.4878C126.188 4.98374 126.146 3.15447 125.378 1H124.717C125.485 3.07317 125.57 4.80081 124.696 6.18293C123.288 8.39837 119.343 9.71951 112.603 10.1667C105.31 10.6545 94.5187 10.1463 79.5902 8.60163C77.8627 8.4187 76.2206 8.2561 74.6851 8.0935C61.9532 6.75203 55.5766 6.0813 50.7355 7.97154C45.8944 9.86179 42.6955 14.252 36.3402 23.0122L35.4872 24.1911C30.4115 31.1626 24.0775 34.9228 16.6133 35.3496C12.7745 35.5732 7.20833 34.9431 0 31.7317V32.4024C6.33394 35.187 11.4096 36 15.1844 36C15.7176 36 16.2081 35.9797 16.6559 35.9594Z" fill="#848484"/>
<path d="M26.1935 22.4765C29.3411 21.0589 31.4982 18.6467 32.5768 15.3036C34.1836 10.437 34.5358 5.52806 34.2717 1H33.6113C33.8755 5.46458 33.5233 10.31 31.9385 15.1132C30.9039 18.287 28.8569 20.5722 25.8853 21.9052C18.8197 25.0791 7.83604 22.4765 0 19.874V20.5511C5.26071 22.2861 11.9081 24 17.8952 24C20.9108 24 23.7723 23.5557 26.1935 22.4765Z" fill="#848484"/>
<path d="M157.832 16.0704C153.608 24.0548 134.9 22.9725 134.687 22.9521C124.212 22.9521 114.485 22.2374 105.909 21.5839C93.1525 20.6241 82.1237 19.8073 73.9747 21.829C69.6656 22.8908 66.3164 24.7082 63.7566 27.3629C60.9834 30.2218 59.1061 34.0813 57.9968 39.1252C54.3063 55.9925 44.6428 58.0142 36.8565 59.6274C32.1634 60.6076 28.1102 61.4448 26.7663 65.4472C25.5503 69.1025 26.9583 76.3722 30.3928 83.9687C34.062 92.1165 39.0537 98.4264 43.7468 100.836C45.2614 101.612 46.776 102 48.2053 102C50.9358 102 53.517 100.611 55.7783 97.8955C59.2128 93.7705 62.0073 89.278 64.7165 84.9284C69.7723 76.8011 74.1241 69.7968 80.8864 68.2244C85.0462 67.2647 89.8887 68.4491 95.6484 71.9001C103.285 76.4539 108.576 77.8833 111.84 76.2701C115.893 74.2689 116.298 68.0815 116.725 61.5061C117.301 52.6844 117.898 43.5564 127.37 43.9648C129.545 44.0465 131.636 44.1078 133.663 44.1078C154.142 44.1078 167.432 39.4723 173.17 30.2831C177.693 23.0746 176.541 14.3755 174.791 8.37182C173.959 5.49252 172.914 2.96037 171.997 1H171.293C172.231 2.96037 173.319 5.59462 174.173 8.5556C177.266 19.2355 175.026 26.0968 172.615 29.9767C166.429 39.8603 151.198 44.3732 127.391 43.3726C122.847 43.1888 119.818 45.0267 118.133 49.0087C116.661 52.4598 116.362 57.0544 116.085 61.5061C115.679 67.8977 115.274 73.9218 111.541 75.7596C108.49 77.2707 103.413 75.8413 95.9684 71.41C90.038 67.8773 85.0462 66.652 80.7158 67.6731C73.6974 69.3067 69.2603 76.4131 64.1405 84.663C61.4527 88.9921 58.6581 93.4642 55.245 97.5483C51.9171 101.53 48.1413 102.449 44.0028 100.326C39.4377 97.9771 34.5313 91.7897 30.9261 83.7645C27.6196 76.4131 26.169 69.1433 27.3209 65.6719C28.5582 61.9962 32.2487 61.2202 36.9418 60.2604C40.867 59.4436 45.3041 58.5247 49.2719 55.625C53.8584 52.276 56.9089 46.9258 58.5728 39.2681C60.642 29.7725 65.4205 24.5857 74.0814 22.4416C77.7079 21.5431 81.953 21.2163 86.6675 21.2163C92.3846 21.2163 98.8483 21.7064 105.803 22.2169C114.4 22.85 124.127 23.5851 134.601 23.5851C134.601 23.5851 134.601 23.5851 134.623 23.5851C134.665 23.5851 139.486 23.8914 144.755 23.1563C151.923 22.1761 156.488 19.889 158.365 16.3767C160.392 12.558 159.091 7.41205 154.483 1.02042H153.715C158.408 7.33037 159.773 12.3947 157.832 16.0704Z" fill="#848484"/>
<path d="M159.215 22.8755C155.713 27.1309 145.12 28.8953 128.612 27.9819C116.076 27.2969 104.458 25.2834 104.351 25.2626C104.287 25.2419 97.1967 24.0171 89.2095 25.5325C84.4898 26.4043 80.3894 28.0442 76.9937 30.4107C72.7438 33.3583 69.6045 37.4269 67.6824 42.4919C63.9664 52.3105 59.8019 59.0153 54.9327 63.0009C50.7042 66.4675 46.5824 67.3809 42.7383 68.0244C37.1216 68.9585 35.2209 72.4458 34.6229 75.2067C33.427 80.6038 36.3101 87.8899 40.7949 90.8168C42.0122 91.6056 43.2508 92 44.4468 92C45.5573 92 46.6465 91.6679 47.6716 90.9828C51.8788 88.2013 56.1927 82.8457 60.763 77.1995C69.455 66.426 78.4459 55.2996 87.4796 60.8836C88.8037 61.6931 90.0851 62.5027 91.3024 63.2915C97.9228 67.5054 103.176 70.8475 106.487 69.2699C108.451 68.3357 109.562 65.8655 109.968 61.4648C110.801 52.3727 112.338 45.5226 117.143 41.6616C120.56 38.9007 125.43 37.8836 132.05 38.5063C150.587 40.2708 162.803 37.074 168.377 29.0406C172.841 22.6056 172.072 14.2401 170.641 8.34477C169.829 5.00271 168.719 2.05505 167.843 0H167.16C168.035 2.0343 169.189 5.04422 170.022 8.49007C171.41 14.2608 172.157 22.4395 167.843 28.6877C162.419 36.5135 150.395 39.6065 132.114 37.8836C125.323 37.2401 120.304 38.3195 116.738 41.1841C111.783 45.1904 110.181 52.1652 109.327 61.4233C108.943 65.5334 107.939 67.9206 106.209 68.7301C103.219 70.1417 98.115 66.9034 91.6655 62.7933C90.4268 62.0045 89.1454 61.1949 87.8213 60.3854C83.5287 57.7283 78.8944 58.3926 73.6621 62.4197C69.0919 65.907 64.6071 71.4702 60.2718 76.8466C55.7443 82.472 51.4516 87.7653 47.3299 90.5054C44.9166 92.1038 42.6529 91.2942 41.1579 90.3186C36.8653 87.5162 34.1104 80.5208 35.2423 75.352C35.8189 72.778 37.5914 69.519 42.8451 68.6471C46.7746 67.9828 50.9818 67.0487 55.3385 63.4783C60.2931 59.4097 64.5217 52.6218 68.2804 42.6995C70.1597 37.7383 73.2137 33.7735 77.3354 30.9088C80.6456 28.6047 84.682 27.0063 89.2949 26.1345C92.2848 25.574 95.1465 25.3872 97.5598 25.3872C101.489 25.3872 104.18 25.8646 104.223 25.8646C104.33 25.8854 115.99 27.8989 128.569 28.5839C145.526 29.5181 156.012 27.7329 159.706 23.2491C163.358 18.8484 164.213 12.8908 162.162 6.04061C161.458 3.69495 160.539 1.61913 159.728 0.0207581H159.002C159.835 1.59838 160.817 3.75722 161.543 6.20668C162.931 10.8357 163.636 17.4991 159.215 22.8755Z" fill="#848484"/>
<path fill-rule="evenodd" clip-rule="evenodd" d="M90.377 31.9993C92.6646 30.9328 95.2087 30.7072 97.5604 31.384C99.8694 32.0403 101.601 33.4145 102.691 35.4654C106.027 41.6389 103.076 52.4885 101.024 58.3953C100.489 59.954 99.8266 60.7744 98.9501 60.959C98.8218 60.9795 98.6935 61 98.5653 61C97.1411 61 95.5055 59.3982 93.4695 57.4043L93.4342 57.3698C91.4887 55.4624 89.2866 53.3089 86.6356 51.7912C82.2101 49.248 80.0294 46.3971 80.1577 43.2796C80.3929 37.8446 87.8115 33.2094 90.377 31.9993ZM98.8218 60.3642C99.4418 60.2206 99.9763 59.5233 100.425 58.2107C105.15 44.6333 103.525 38.3163 102.114 35.7731C101.088 33.8862 99.4846 32.6146 97.368 31.9993C96.5342 31.7532 95.6791 31.6301 94.8025 31.6301C93.3915 31.6301 91.9804 31.9378 90.6549 32.5531C88.1749 33.7221 81.0129 38.1727 80.7991 43.3001C80.6708 46.1715 82.766 48.8583 86.9777 51.2579C89.6675 52.7818 91.9797 55.0505 93.8518 56.8873L93.9046 56.9391L93.9288 56.9629C95.9282 58.9217 97.6507 60.6093 98.8218 60.3642Z" fill="#848484"/>
<path fill-rule="evenodd" clip-rule="evenodd" d="M92.175 41.3436C92.8338 40.982 93.5679 40.8969 94.2455 41.1309C94.9042 41.3648 95.4124 41.8328 95.7512 42.5559C96.6923 44.5978 95.883 48.1073 95.3183 50.0216C95.2242 50.3832 95.036 50.8724 94.6219 50.9787C94.5654 51 94.5278 51 94.4713 51C94.0053 51 93.5577 50.4783 92.9639 49.7864L92.9467 49.7664C92.4386 49.1708 91.8551 48.4902 91.1587 48.0222C89.8976 47.1715 89.2765 46.193 89.3141 45.1083C89.3847 43.0754 91.8184 41.5655 92.1401 41.3658C92.1618 41.3524 92.1739 41.3449 92.175 41.3436ZM94.4901 50.3406C94.5466 50.3406 94.6595 50.1705 94.7725 49.8089C95.2054 48.3413 96.1088 44.7254 95.2618 42.8324C94.9983 42.2794 94.6219 41.9178 94.0949 41.7477C93.8878 41.6839 93.662 41.6413 93.4549 41.6413C93.0973 41.6413 92.7585 41.7264 92.4197 41.9178C91.9115 42.2156 89.9352 43.5981 89.8788 45.1508C89.8411 45.9591 90.3681 46.7461 91.441 47.4692C92.1939 47.9797 92.8338 48.7241 93.342 49.3197C93.3676 49.3486 93.3935 49.378 93.4198 49.4078C93.8199 49.8612 94.2959 50.4005 94.4901 50.3406Z" fill="#848484"/>
<path d="M262.188 37.1829C254.041 39.8865 248.39 47.7736 245.425 60.6206C244.06 66.5562 240.648 70.2964 235.295 71.7397C225.272 74.4636 209.234 68.2027 198.038 57.1649C189.06 48.3427 185.456 38.6465 188.143 30.5765C190.638 23.096 191.342 14.965 190.254 6.44777C190.019 4.65895 189.699 2.82947 189.316 1H188.654C189.06 2.87013 189.38 4.6996 189.614 6.52908C190.702 14.965 189.998 23.0147 187.546 30.4139C184.773 38.7075 188.441 48.607 197.59 57.6121C202.922 62.8566 209.618 67.2676 216.464 70.0322C221.326 72.004 226.018 73 230.156 73C232.075 73 233.866 72.7764 235.487 72.3495C240.989 70.8656 244.657 66.8611 246.065 60.7628C248.987 48.1395 254.468 40.415 262.401 37.7724C273.704 34.0119 288.185 41.0858 299.999 49.2778V48.5257C288.099 40.3337 273.619 33.402 262.188 37.1829Z" fill="#848484"/>
<path d="M265.767 21.1855C258.831 22.5148 253.548 26.9118 250.09 34.213C245.301 44.3159 239.224 51.3921 232.008 55.2779C224.277 59.4295 217.405 58.7341 213.002 57.4252C207.677 55.83 203.081 52.476 200.053 47.9767C196.917 43.3343 195.758 37.8533 196.81 32.5564C198.979 21.5536 199.795 10.9394 199.28 1H198.635C199.151 10.8984 198.335 21.4718 196.187 32.4337C195.113 37.8942 196.295 43.5183 199.516 48.2835C202.63 52.9055 207.354 56.3413 212.831 57.9774C215.129 58.6728 217.491 59 219.853 59C224.084 59 228.357 57.9161 232.33 55.7891C239.675 51.842 245.838 44.6636 250.692 34.4379C254.063 27.3209 259.175 23.067 265.896 21.7581C271.351 20.7151 277.901 21.6559 284.838 24.519C290.271 26.7482 295.769 30.1023 299.999 33.763V32.945C291.259 25.6234 277.171 18.9972 265.767 21.1855Z" fill="#848484"/>
<path d="M160.066 281.702C159.522 281.151 158.83 280.931 158.034 281.019C155.331 281.327 151.642 285.406 148.855 289H149.673C152.334 285.605 155.729 281.967 158.097 281.68C158.704 281.614 159.207 281.768 159.626 282.187C161.072 283.62 162.686 286.244 164.153 289H164.886C163.356 286.09 161.638 283.246 160.066 281.702Z" fill="#848484"/>
<path d="M293.655 20.6882C286.371 20.0229 277.57 17.2786 269.495 13.1206C260.138 8.2973 252.319 15.4906 243.283 23.8067C236.405 30.1476 228.607 37.3202 218.952 39.9189C215.555 40.8337 212.927 40.3555 211.112 38.5468C204.938 32.3306 209.082 11.9771 211.902 1H211.24C210.385 4.34719 209.403 8.52599 208.634 12.8919C206.262 26.4678 206.946 35.2412 210.663 38.9834C212.009 40.3347 213.739 41 215.833 41C216.858 41 217.948 40.8337 219.144 40.5218C228.928 37.9023 236.81 30.6674 243.732 24.264C252.597 16.1143 260.245 9.06653 269.196 13.6819C277.441 17.9439 286.115 20.6466 293.591 21.3118C295.92 21.5198 298.056 21.5198 300 21.3118V20.6882C298.099 20.8961 295.963 20.8961 293.655 20.6882Z" fill="#848484"/>
<path d="M220.956 27.9387C221.302 27.9796 221.625 28 221.971 28C227.712 28 234.122 22.0318 237.553 18.3119C242.107 13.4065 246.532 7.02952 249.618 1H248.906C245.863 6.88645 241.525 13.0999 237.079 17.9031C230.949 24.5254 225.251 27.8774 221.043 27.3255C219.294 27.1007 218.151 26.3444 217.546 25.0568C215.28 20.1514 221.41 8.7464 226.222 1.02044H225.467C224.517 2.57381 223.503 4.24981 222.532 5.98713C217.244 15.4095 215.366 21.9092 216.963 25.302C217.654 26.7941 218.992 27.673 220.956 27.9387Z" fill="#848484"/>
<path d="M228.674 14.9788C228.807 15 228.962 15 229.118 15C230.451 15 232.561 14.2364 235.493 11.0333C237.67 8.67879 239.759 5.47576 240.98 2.67576C241.18 2.20909 241.402 1.63636 241.602 1.02121H240.914C240.758 1.46667 240.58 1.93333 240.381 2.42121C237.87 8.19091 232.139 14.7879 228.785 14.3212C228.163 14.2364 227.763 13.9818 227.541 13.5152C226.408 11.0545 231.006 3.77879 232.983 1H232.183C230.762 3.05758 225.586 10.8 226.941 13.7697C227.23 14.4697 227.829 14.8727 228.674 14.9788Z" fill="#848484"/>
<path d="M289.466 14.206C285.29 13.6836 280.61 11.9284 275.531 8.98209C271.103 6.41194 267.137 3.36119 264.325 1H263.359C266.234 3.44478 270.453 6.76716 275.216 9.52537C280.379 12.5134 285.143 14.3104 289.403 14.8328C290.284 14.9373 291.145 15 292.005 15C294.964 15 297.629 14.3313 300.001 12.994V12.2627C296.958 14.0388 293.453 14.7075 289.466 14.206Z" fill="#848484"/>
<path fill-rule="evenodd" clip-rule="evenodd" d="M161.909 184.79C166.01 182.464 173.116 182.401 183.035 184.624C190.141 186.224 196.195 188.467 196.689 188.654C203.065 189.797 203.859 190.815 203.816 191.563C203.773 192.581 202.056 193.973 189.089 195.842C181.038 197.006 171.441 197.961 164.443 198.647L162.704 198.813C161.437 198.938 160.299 199 159.269 199C155.34 199 153.043 198.086 152.442 196.299C151.347 193.079 156.392 187.927 161.909 184.79ZM188.981 195.24C201.712 193.391 203.129 192.041 203.151 191.542C203.151 191.293 202.7 190.379 196.538 189.278L196.474 189.257C196.471 189.256 196.452 189.249 196.417 189.236C195.777 189 189.835 186.805 182.906 185.247C179.149 184.396 174.662 183.648 170.583 183.648C167.384 183.648 164.421 184.125 162.253 185.351C159.526 186.909 156.972 188.924 155.233 190.898C153.408 192.996 152.635 194.845 153.064 196.133C153.73 198.044 157.036 198.771 162.639 198.211L164.378 198.044C164.896 197.992 165.427 197.939 165.971 197.884C172.784 197.199 181.546 196.317 188.981 195.24Z" fill="#848484"/>
<path fill-rule="evenodd" clip-rule="evenodd" d="M167.185 54.2728C167.007 52.7117 169.432 50.8774 174.372 48.7894C177.621 47.4235 181.492 47.8528 184.184 49.9017C186.321 51.5214 188.635 53.824 187.478 55.7364C186.588 57.2194 183.762 58 180.001 58C177.487 58 174.55 57.6487 171.479 56.9267C168.698 56.2828 167.296 55.4047 167.185 54.2728ZM171.657 56.3608C178.755 58.039 185.586 57.6292 186.899 55.4632C187.633 54.2143 186.565 52.4581 183.762 50.3506C182.204 49.1992 180.268 48.5943 178.31 48.5943C177.064 48.5943 175.818 48.8285 174.661 49.3163C170.144 51.2287 167.719 52.9654 167.852 54.2143C167.941 55.0534 169.254 55.7949 171.657 56.3608Z" fill="#848484"/>
<path d="M235.07 281.664C223.841 280.315 217.246 271.281 208.927 259.835C206.6 256.646 204.186 253.335 201.47 249.901C194.66 241.296 187.03 236.125 178.819 234.531C169.487 232.732 159.228 235.512 148.344 242.788C136.383 250.78 119.076 263.636 104.227 275.573C100.067 278.925 94.6359 283.381 89.3125 288H90.2608C94.485 284.362 99.2912 280.356 104.636 276.043C119.464 264.127 136.749 251.27 148.689 243.299C168.969 229.748 186.556 232.098 200.931 250.289C203.625 253.703 206.039 257.014 208.367 260.202C216.794 271.771 223.453 280.887 234.962 282.277C243.131 283.258 247.807 285.179 248.928 288H249.618C248.562 284.832 243.669 282.706 235.07 281.664Z" fill="#848484"/>
<path d="M173.395 258.166C169.409 256.427 165.317 256.636 161.225 258.773C151.079 264.052 141.883 270.294 133.889 277.353C128.974 281.689 125.262 285.669 122.52 289H123.363C129.607 281.522 141.672 269.645 161.499 259.318C165.422 257.286 169.324 257.076 173.121 258.731C180.778 262.062 186.768 272.326 190.438 280.37C191.852 283.428 193.033 286.423 193.982 289H194.657C193.687 286.361 192.484 283.281 191.029 280.118C185.629 268.283 179.681 260.889 173.395 258.166Z" fill="#848484"/>
<path fill-rule="evenodd" clip-rule="evenodd" d="M72.5803 215.855C71.784 214.369 71.9205 212.224 74.1501 211.027C77.4945 209.232 82.0674 210.058 83.8648 211.46C84.6383 212.059 84.9113 212.76 84.6156 213.42C84.024 214.823 81.7489 216.267 77.8813 217.691C77.3125 217.897 76.7437 218 76.2204 218C74.5369 218 73.2173 217.01 72.5803 215.855ZM77.6082 217.113C81.2484 215.772 83.4553 214.41 83.9785 213.193C84.206 212.678 83.7965 212.203 83.387 211.935C82.4315 211.192 80.5431 210.635 78.541 210.635C77.1532 210.635 75.7199 210.903 74.4686 211.564C72.603 212.554 72.4665 214.287 73.1718 215.566C73.8771 216.845 75.5607 217.876 77.6082 217.113Z" fill="#848484"/>
<path fill-rule="evenodd" clip-rule="evenodd" d="M107.546 267.189C106.703 269.177 97.5687 273.512 94.5455 274.657C93.8976 274.897 93.2714 275.018 92.6883 274.998C90.8311 274.998 89.3843 273.894 88.6717 272.569C87.7647 270.883 87.9374 268.454 90.3992 267.109C94.7182 264.74 105.105 264.359 107.178 266.005C107.61 266.326 107.74 266.748 107.546 267.189ZM90.7232 267.631C88.6069 268.795 88.4557 270.823 89.2547 272.308C90.0537 273.793 91.9541 274.998 94.2863 274.095C98.1086 272.629 106.25 268.534 106.919 266.968C106.984 266.828 107.006 266.667 106.747 266.467C104.889 265.001 94.675 265.463 90.7232 267.631Z" fill="#848484"/>
<path d="M18.1865 14.3398C21.806 12.1845 20.6218 5.3301 19.4153 1H18.7227C19.0355 2.08738 19.326 3.34951 19.5717 4.6699C20.1526 8.02913 20.3314 12.3592 17.829 13.8738C14.8799 15.6214 8.89218 13.3301 0 7.05825V7.79612C6.85905 12.5922 12.0648 15 15.5501 15C16.5779 15 17.4492 14.767 18.1865 14.3398Z" fill="#848484"/>
<path fill-rule="evenodd" clip-rule="evenodd" d="M144.951 151C141.831 151 138.499 150.709 136.122 149.873C132.726 148.708 132.535 146.921 133.024 145.638C133.512 144.259 134.509 143.249 136.016 142.647C138.711 141.578 142.956 141.831 148.622 143.424C152.803 144.609 156.263 146.105 156.305 146.124C158.088 146.94 158.151 147.717 157.918 148.222C157.218 149.679 152.803 150.534 148.919 150.845C147.71 150.942 146.351 151 144.951 151ZM136.249 143.191C134.912 143.715 134.021 144.609 133.597 145.833C133.066 147.328 133.979 148.513 136.356 149.349C139.157 150.32 143.953 150.67 148.856 150.281C153.376 149.912 156.857 148.98 157.324 148.008C157.557 147.503 156.729 146.998 156.008 146.668C155.796 146.571 146.585 142.608 139.963 142.608C138.584 142.608 137.311 142.763 136.249 143.191Z" fill="#848484"/>
</g>
</svg>