<svg xmlns="http://www.w3.org/2000/svg" width="44" height="44" viewBox="0 0 44 44" fill="none">
  <path fill-rule="evenodd" clip-rule="evenodd" d="M22 44C9.84974 44 0 34.1503 0 22C0 9.84974 9.84974 0 22 0C34.1503 0 44 9.84974 44 22C44 34.1503 34.1503 44 22 44Z" fill="#F9F9F9"/>
  <path fill-rule="evenodd" clip-rule="evenodd" d="M22 29.883L29.191 22.383C30.4871 21.0879 30.8083 19.1083 29.9882 17.4697V17.4697C29.3765 16.2467 28.2142 15.3921 26.8643 15.1731C25.5144 14.9541 24.1415 15.3973 23.1745 16.3642L22 17.538L20.8255 16.3642C19.8584 15.3973 18.4855 14.9541 17.1357 15.1731C15.7858 15.3921 14.6234 16.2467 14.0117 17.4697V17.4697C13.1927 19.1076 13.5136 21.0857 14.8082 22.3807L22 29.883Z" stroke="black" stroke-width="1.5" stroke-linecap="round" stroke-linejoin="round"/>
</svg>