<svg width="500" height="800" fill="none" xmlns="http://www.w3.org/2000/svg">
<g opacity="0.04">
<path d="M598.511 774.428C572.028 768.747 568.868 747.503 564.856 720.578C560.342 690.517 554.774 653.118 514.248 623.293C493.934 608.381 474.473 599.031 454.712 594.711C437.056 590.865 419.502 591.102 401.144 595.481C367.038 603.647 334.837 625.424 303.639 646.431C274.448 666.136 244.254 686.552 211.752 696.612C194.298 702.056 177.646 704.068 160.843 702.885C141.984 701.524 123.426 696.139 104.166 686.375C70.511 669.332 37.0564 663.414 4.75549 668.74C-1.21317 669.746 -7.13166 671.107 -13 672.883V674.717C-7.03135 672.942 -1.0627 671.521 5.00627 670.516C37.0564 665.19 70.21 671.107 103.614 687.972C127.339 699.985 149.307 704.956 170.022 704.956C220.028 704.956 262.712 676.137 304.392 648.029C336.893 626.075 367.539 605.363 401.445 597.256C419.602 592.877 436.956 592.64 454.411 596.487C474.022 600.747 493.332 610.038 513.445 624.832C531.251 637.91 553.42 654.183 563.401 720.874C565.458 734.78 567.263 746.793 572.028 756.439C577.295 767.149 585.671 773.422 598.26 776.144C635.527 784.192 657.696 796.915 667.978 816.206C670.436 820.763 672.241 825.733 673.445 831H675C673.746 825.378 671.89 820.171 669.232 815.259C658.699 795.554 636.229 782.594 598.511 774.428Z" fill="#848484"/>
<path d="M569.335 793.853C537.791 788.292 534.832 777.113 528.413 752.742C522.796 731.507 514.321 699.328 481.172 652.657C436.589 589.838 389.298 629.115 334.535 674.602C279.02 720.741 216.082 772.972 139.254 735.351C109.816 720.918 80.1274 713.82 50.9405 714.116C29.2258 714.353 7.7117 718.73 -13 727.129V729.022C7.7117 720.563 29.1756 716.186 50.9405 715.95C79.9268 715.595 109.415 722.752 138.652 737.067C173.255 754.043 208.209 754.339 245.42 738.072C277.967 723.817 307.154 699.565 335.388 676.14C362.469 653.663 388.045 632.427 411.966 624.856C438.395 616.456 460.009 625.684 480.019 653.899C512.967 700.334 521.392 732.276 526.959 753.393C533.378 777.763 536.637 790.008 569.134 795.745C588.141 799.117 600.026 807.398 604.49 820.353C605.593 823.606 606.245 827.155 606.496 831H608C607.799 826.919 607.097 823.133 605.894 819.702C601.18 805.979 588.893 797.343 569.335 793.853Z" fill="#848484"/>
<path d="M413.467 713.919C399.53 702.99 380.83 703.345 357.919 715.159C339.721 724.493 318.815 741.033 295.754 764.189C272.191 787.936 251.135 813.928 238 831H240.005C253.14 813.928 273.695 788.645 296.706 765.489C319.668 742.392 340.423 725.97 358.471 716.695C380.881 705.176 399.079 704.704 412.565 715.337C443.898 739.97 460.543 781.557 475.232 818.24C476.987 822.553 478.641 826.806 480.346 830.941H482C480.195 826.57 478.39 822.08 476.586 817.472C461.896 780.611 445.152 738.788 413.467 713.919Z" fill="#848484"/>
<path d="M373.628 776.027C367.134 770.541 358.742 770.66 348.702 776.384C340.809 780.916 331.868 788.905 322.128 800.174C312.837 810.966 304.495 822.712 299 831H300.948C316.533 807.806 352.248 760.167 372.728 777.458C385.966 788.667 393.708 810.907 400.402 831H402C395.207 810.549 387.414 787.653 373.628 776.027Z" fill="#848484"/>
<path d="M126.296 775.087C113.405 771.198 100.062 767.192 88.0736 762.42C58.3284 750.459 23.868 760.534 0.192241 771.08C-4.4727 773.143 -8.88683 775.323 -13 777.503V779.447C-8.73635 777.208 -4.12157 774.91 0.744007 772.73C24.169 762.302 58.2782 752.345 87.572 764.128C99.5604 768.959 112.953 772.966 125.895 776.854C154.988 785.574 182.476 793.823 184.382 808.788C185.185 815.092 181.473 822.457 173.146 831H175.353C183.228 822.457 186.689 815.033 185.887 808.493C183.83 792.35 157.195 784.396 126.296 775.087Z" fill="#848484"/>
<path d="M107.009 800.443C97.0996 798.406 85.0387 798.526 73.9287 800.802C53.36 804.997 13.1236 818.418 -13 827.465V829.322C13.1236 820.275 53.6103 806.794 74.2289 802.54C85.1888 800.323 97.0496 800.143 106.808 802.181C120.921 805.116 125.876 811.288 127.577 816.021C129.129 820.275 128.728 825.308 126.426 831H128.128C130.33 825.128 130.58 819.856 128.928 815.302C125.575 806.075 115.166 802.121 107.009 800.443Z" fill="#848484"/>
<path d="M48.7407 474.106C71.4291 492.115 86.2368 517.943 99.2375 540.751C113.995 566.579 126.795 588.912 146.773 592.526C148.63 592.882 150.537 593 152.445 593C167.855 593 186.176 582.515 209.417 560.418C226.835 543.831 241.341 528.784 254.141 515.455C281.147 487.316 300.673 466.997 322.257 460.421C344.293 453.668 368.487 460.777 405.732 484.887C436.151 504.614 472.442 518.18 505.22 522.09C520.479 523.926 534.333 523.571 545.326 520.964C556.921 518.239 565.053 513.323 569.42 506.273C575.393 496.617 576.849 478.667 549.693 447.922C517.217 411.134 480.273 406.691 441.17 402.011C415.269 398.931 388.465 395.672 361.409 382.817C330.79 368.304 304.237 343.067 280.193 305.806C262.424 278.259 241.693 265.226 220.159 268.129C205.502 270.084 191.096 279.207 177.342 295.143C163.538 311.256 151.09 333.471 140.448 361.195C132.517 381.751 123.783 392.296 113.593 393.362C91.5575 395.672 66.0582 351.953 41.4623 309.656C29.1643 288.508 16.4648 266.707 4.36769 251.068C-1.90676 242.952 -7.62907 236.969 -13 233V235.192C3.91594 248.343 22.2875 279.859 40.2074 310.663C52.5555 331.871 65.3554 353.849 77.6534 369.844C90.8046 386.905 102.048 395.258 111.937 395.258C112.539 395.258 113.142 395.198 113.744 395.139C124.486 394.014 133.672 383.173 141.803 361.965C152.395 334.418 164.693 312.381 178.396 296.446C191.899 280.747 206.004 271.802 220.309 269.906C241.241 267.122 261.57 279.918 278.988 306.931C303.182 344.489 329.987 369.844 360.807 384.476C388.063 397.45 414.968 400.649 440.969 403.788C479.821 408.468 516.514 412.852 548.639 449.225C575.042 479.141 573.837 496.202 568.215 505.266C559.983 518.476 536.492 524.104 505.37 520.372C472.794 516.462 436.703 502.956 406.435 483.347C368.838 459 344.343 451.891 321.855 458.763C299.92 465.457 280.293 485.895 253.137 514.211C240.337 527.54 225.881 542.587 208.463 559.115C182.663 583.64 163.137 593.711 146.974 590.808C127.648 587.372 115.049 565.335 100.442 539.803C87.3411 516.877 72.4832 490.93 49.5438 472.684C30.5196 457.578 12.399 449.995 -4.51693 449.995C-7.37809 449.995 -10.189 450.232 -13 450.647V452.424C6.02415 449.403 26.755 456.689 48.7407 474.106Z" fill="#848484"/>
<path d="M15.1252 647.928C38.3372 648.342 64.3067 653.852 87.2179 658.651C120.056 665.582 145.925 671.033 149.133 658.473C153.946 639.633 138.304 624.052 112.335 598.281C93.7353 579.797 70.5233 556.811 45.7069 523.753C27.0571 498.93 8.45736 487.674 -9.49062 490.399C-10.5936 490.577 -11.7466 490.813 -13 491.11V492.946C-11.7968 492.65 -10.5434 492.354 -9.29008 492.176C8.15656 489.569 26.2549 500.589 44.604 524.938C69.5206 558.114 92.7326 581.16 111.382 599.703C136.851 625 152.242 640.285 147.73 657.999C144.922 669.018 118.301 663.39 87.5187 656.933C54.2799 649.942 15.2756 641.707 -12.9499 648.816V650.653C-5.02869 648.639 4.34637 647.691 15.1252 647.928Z" fill="#848484"/>
<path d="M81.0552 639C94.049 639 101.345 636.212 102.745 630.576C105.843 618.295 80.0057 596.166 64.2632 584.063C42.0238 566.917 15.5364 550.78 1.29319 545.619C-3.45455 543.898 -8.25226 542.712 -12.95 542V543.78C-8.40219 544.492 -3.75441 545.678 0.8434 547.339C14.9867 552.442 41.3241 568.46 63.4136 585.546C89.1513 605.421 103.295 622.032 101.246 630.042C99.2465 637.873 81.455 639.297 51.1194 634.076C26.5312 629.864 0.893375 622.566 -13 617.939V619.778C0.993328 624.465 26.4812 631.643 50.8695 635.856C63.1137 637.932 73.1089 639 81.0552 639Z" fill="#848484"/>
<path fill-rule="evenodd" clip-rule="evenodd" d="M158.414 560C156.962 560 155.559 559.822 154.206 559.408C141.932 555.793 132.162 545.544 125.95 529.725C119.688 513.61 117.584 492.814 119.938 469.53C122.092 448.557 128.355 427.762 138.174 409.395C173.094 343.928 202.101 308.024 224.395 302.692C231.559 300.974 238.122 302.455 243.784 307.136C265.015 324.577 278.864 341.555 291.079 356.529L291.528 357.08L291.637 357.214C310.523 380.376 325.458 398.692 358.16 409.277C378.851 415.972 388.621 422.133 387.969 428.176C387.468 432.857 380.455 436.589 367.078 439.315C354.102 441.922 335.365 443.521 312.921 443.877C295.987 444.173 278.402 451.934 259.114 467.753C242.281 481.617 226.349 499.687 212.271 515.684C191.48 539.323 173.294 560 158.414 560ZM139.477 410.343C129.808 428.473 123.595 449.031 121.491 469.767C119.187 492.696 121.241 513.136 127.403 528.955C133.365 544.3 142.783 554.253 154.607 557.689C155.859 558.045 157.162 558.223 158.465 558.223C172.692 558.223 190.677 537.784 211.217 514.442L211.219 514.439C225.297 498.384 241.279 480.254 258.262 466.331C277.801 450.335 295.687 442.396 312.921 442.099C335.315 441.744 353.952 440.144 366.828 437.537C383.41 434.16 386.266 430.072 386.517 427.939C387.218 421.185 366.677 413.779 357.81 410.936C324.644 400.153 309.564 381.668 290.526 358.265L290.32 358.013C278.097 343.026 264.255 326.055 242.982 308.557C239.074 305.358 234.766 303.758 230.056 303.758C228.353 303.758 226.55 303.995 224.746 304.41C202.903 309.683 174.196 345.29 139.477 410.343Z" fill="#848484"/>
<path d="M688 463.396C684.435 459.017 680.368 454.519 675.748 450.022C658.173 432.919 635.878 418.834 609.466 408.123C576.476 394.749 536.958 386.582 492.017 383.86C466.308 382.321 416.998 376.936 375.371 358.058C331.535 338.233 307.232 308.939 303.215 271.005C298.545 227.095 303.114 199.872 317.626 185.255C333.493 169.277 362.215 168.567 405.399 183.243C435.376 193.422 459.629 207.388 479.112 218.632C498.344 229.758 513.559 238.516 527.116 240.055C541.829 241.712 553.328 234.67 564.375 217.212C571.404 206.086 576.978 195.552 581.899 186.261C591.791 167.502 598.972 153.95 610.671 148.919C623.024 143.593 639.745 148.091 666.659 163.951C674.342 168.448 681.422 173.479 688 178.686V176.556C681.623 171.526 674.744 166.732 667.362 162.353C640.046 146.256 622.974 141.759 610.169 147.203C597.967 152.47 590.737 166.2 580.644 185.255C575.773 194.487 570.199 204.962 563.22 216.087C540.523 252.009 517.676 238.812 479.815 216.975C460.282 205.672 435.929 191.647 405.851 181.468C362.115 166.673 332.941 167.442 316.672 183.835C301.758 198.866 297.038 226.621 301.758 271.183C305.876 309.827 330.48 339.594 374.869 359.715C416.697 378.652 466.207 384.037 491.967 385.635C536.757 388.298 576.074 396.465 608.914 409.78C635.125 420.432 657.269 434.398 674.693 451.324C679.815 456.295 684.234 461.266 688 466V463.396Z" fill="#848484"/>
<path d="M688 425.686C677.368 416.25 664.579 406.755 650.085 397.794C608.909 372.275 560.361 354.531 513.469 347.885C465.974 341.119 431.318 333.701 404.437 324.443C370.082 312.693 348.416 298.035 338.185 279.757C331.264 267.354 329.759 253.052 333.621 237.147C336.53 225.397 341.846 217.623 349.92 213.409C377.254 199.048 429.663 229.136 475.904 255.663C492.806 265.395 508.804 274.534 522.396 280.825C545.316 291.448 559.408 293.821 569.539 288.658C579.319 283.673 584.936 272.161 592.66 256.197C597.324 246.583 602.59 235.723 610.013 223.735C617.937 210.917 627.967 204.211 639.853 203.795C656.103 203.261 673.706 214.596 688 227.059V224.863C665.782 205.694 649.784 201.718 639.853 202.015C627.516 202.43 617.084 209.374 608.859 222.667C601.386 234.714 596.12 245.693 591.406 255.307C576.26 286.463 569.339 300.705 522.947 279.163C509.406 272.873 493.458 263.734 476.556 254.06C430.014 227.355 377.254 197.089 349.319 211.807C340.893 216.198 335.125 224.625 332.166 236.732C328.154 253.111 329.709 267.947 336.881 280.825C347.363 299.4 369.279 314.295 404.035 326.164C431.017 335.422 465.773 342.84 513.318 349.606C560.01 356.252 608.357 373.937 649.382 399.336C664.077 408.476 677.217 418.267 688 428V425.686Z" fill="#848484"/>
<path fill-rule="evenodd" clip-rule="evenodd" d="M515.846 312.075C516.019 312.22 516.115 312.3 516.131 312.313C522.095 317.56 524.149 321.864 522.395 325.166C520.391 328.644 513.927 330 505.408 330C493.732 330 478.097 327.465 464.366 324.222C430.942 316.381 399.071 303.057 379.126 288.613C356.676 272.341 349.059 254.713 357.127 237.616C359.282 233.017 362.89 230.069 367.801 228.772C383.636 224.586 413.453 237.439 456.348 266.858C486.493 287.49 512.827 309.546 515.846 312.075ZM502.551 328.113C516.432 328.526 520.14 325.755 521.093 324.104C522.696 321.216 518.787 316.912 515.229 313.787C513.927 312.667 415.708 229.774 374.165 229.774C371.96 229.774 369.956 230.01 368.102 230.482C363.642 231.661 360.384 234.314 358.43 238.441C354.421 246.931 354.471 255.538 358.63 264.087C362.389 271.869 369.555 279.592 379.878 287.08C399.672 301.406 431.343 314.671 464.617 322.454C478.898 325.814 492.379 327.819 502.551 328.113Z" fill="#848484"/>
<path fill-rule="evenodd" clip-rule="evenodd" d="M464.115 297.363C464.478 297.625 464.68 297.771 464.702 297.784C464.745 297.824 464.793 297.868 464.845 297.916C465.712 298.714 467.752 300.592 466.711 302.417C466.058 303.59 464.05 304 461.339 304C453.909 304 441.308 300.599 438.095 299.719C421.378 295.029 405.865 288.285 396.628 281.659C387.34 274.975 384.127 268.466 387.039 262.309C387.742 260.843 388.947 259.846 390.553 259.377C397.079 257.384 411.538 263.306 433.577 276.851C448.073 285.759 461.221 295.269 464.115 297.363ZM438.396 298.019C455.465 302.769 464.602 302.886 465.456 301.42C465.506 301.303 465.405 300.599 463.799 299.25C462.393 298.195 411.086 260.784 393.364 260.784C392.411 260.784 391.607 260.902 390.854 261.136C389.599 261.488 388.796 262.192 388.294 263.189C385.834 268.349 388.846 274.036 397.33 280.135C406.417 286.702 421.779 293.387 438.396 298.019Z" fill="#848484"/>
<path fill-rule="evenodd" clip-rule="evenodd" d="M168.256 515.507C163.255 517.994 159.155 519 155.804 519C149.004 519 145.253 514.797 143.203 510.475C129.851 482.473 160.005 392.309 201.01 357.144C213.262 346.665 224.263 342.402 233.665 344.534C241.416 346.31 248.067 352.289 253.467 362.353C258.768 372.181 261.318 383.547 260.968 395.269C260.618 406.932 257.368 418.121 251.617 427.593L250.067 430.139L249.976 430.288C230.902 461.677 211.194 494.11 168.256 515.507ZM201.91 358.624C183.358 374.549 165.106 403.972 153.104 437.302C141.853 468.56 138.452 496.918 144.503 509.587C148.553 518.053 156.304 519.474 167.656 513.79C210.262 492.537 229.864 460.272 248.817 429.014L250.367 426.468C255.968 417.292 259.118 406.458 259.468 395.151C259.818 383.784 257.318 372.773 252.217 363.3C247.066 353.71 240.716 347.967 233.415 346.31C231.914 345.954 230.364 345.777 228.814 345.777C220.863 345.777 211.862 350.099 201.91 358.624Z" fill="#848484"/>
<path fill-rule="evenodd" clip-rule="evenodd" d="M182.632 474.805C179.523 476.347 176.966 477 174.91 477C170.999 477 168.843 474.686 167.64 472.254C164.18 465.017 166.286 449.711 173.105 432.33C180.225 414.296 190.905 397.922 201.735 388.668C208.905 382.558 215.323 380.066 220.889 381.312C225.452 382.32 229.413 385.821 232.572 391.753C238.839 403.499 238.438 418.448 231.469 429.898C220.387 448.11 208.304 461.991 182.632 474.805ZM202.638 390.151C192.058 399.228 181.528 415.304 174.509 433.101C167.991 449.711 165.834 464.72 168.993 471.424C171.099 475.873 175.512 476.466 182.08 473.203C207.451 460.568 219.334 446.864 230.265 428.889C236.884 418.033 237.285 403.855 231.318 392.761C228.36 387.304 224.8 384.041 220.638 383.092C219.786 382.914 218.933 382.795 218.031 382.795C213.468 382.795 208.354 385.287 202.638 390.151Z" fill="#848484"/>
<path d="M194.021 443C194.665 443 195.459 442.825 196.401 442.359C203.739 438.749 207.16 434.79 210.333 429.607C212.416 426.23 212.564 421.746 210.68 418.31C209.689 416.505 208.499 415.457 207.061 415.108C205.375 414.7 203.392 415.457 201.26 417.262C194.764 422.794 189.211 436.536 191.542 441.37C191.889 442.068 192.583 443 194.021 443Z" fill="#848484" stroke="#575757" stroke-width="5"/>
<path d="M687.849 779.339C673.496 778.568 659.545 776.373 647.199 772.815C630.939 768.129 617.289 761.07 606.65 751.936C593.601 740.725 585.02 726.252 581.055 708.814C575.535 684.317 566.803 661.184 555.812 641.847C542.914 619.13 527.106 601.632 508.738 589.769C474.963 567.882 433.862 565.806 386.637 583.6C329.426 605.132 284.912 627.73 252.392 644.279C210.888 665.336 188.004 676.962 182.785 664.209C182.333 663.082 182.283 661.896 182.684 660.591C185.645 650.923 210.186 637.755 238.641 622.57C259.819 611.241 283.858 598.37 302.778 584.727C324.659 568.949 336.151 554.655 337.907 541.071C340.367 521.972 346.891 508.567 356.727 502.339C367.918 495.28 383.225 497.119 402.295 507.796C437.324 527.37 522.84 550.74 574.782 550.74C592.698 550.74 606.65 547.952 613.124 541.249C617.038 537.216 618.142 531.937 616.386 525.531C610.614 504.356 617.289 482.468 631.893 474.698C650.21 464.971 670.435 479.087 687.849 501.686V498.721C681.024 490.061 674.099 483.299 667.123 478.435C654.326 469.478 641.579 467.58 631.291 473.097C615.984 481.223 608.958 504 614.98 526.065C616.536 531.759 615.583 536.326 612.17 539.885C601.38 551.036 566.501 551.985 516.417 542.436C473.157 534.191 426.535 519.303 402.998 506.135C383.476 495.221 367.717 493.442 356.125 500.737C345.837 507.203 339.062 521.082 336.502 540.775C332.688 570.254 280.245 598.37 238.089 620.909C208.178 636.924 184.541 649.558 181.38 659.938C180.827 661.718 180.878 663.379 181.53 664.921C184.34 671.801 191.216 672.988 203.913 668.776C215.606 664.862 232.167 656.498 253.094 645.881C285.564 629.391 330.079 606.792 387.189 585.261C434.012 567.645 474.713 569.661 508.136 591.252C526.253 602.996 541.911 620.316 554.658 642.737C565.548 661.955 574.23 684.91 579.7 709.17C583.715 726.964 592.497 741.793 605.847 753.241C616.637 762.494 630.488 769.612 646.948 774.416C659.445 778.034 673.547 780.288 688 781V779.339H687.849Z" fill="#848484"/>
<path d="M42.3302 445.966C61.361 455.161 79.5359 464 91.8203 464C95.1432 464 98.0129 463.347 100.379 461.924C103.702 459.907 105.817 456.288 106.723 451.246C108.888 439.381 98.1639 427.932 81.9022 410.61C65.7915 393.466 43.7399 370.034 24.256 334.915C11.0654 311.127 -1.42042 295.822 -12.9497 289V290.958C-1.82319 297.78 10.2095 312.729 22.9974 335.864C42.6323 371.22 64.7342 394.712 80.8953 411.915C96.7542 428.822 107.277 439.975 105.263 450.831C104.407 455.398 102.594 458.483 99.6743 460.263C89.2527 466.729 66.748 455.814 42.9344 444.246C27.2264 436.653 10.9647 428.763 -3.13219 425.203C-6.65641 424.314 -9.97924 423.72 -13 423.424V425.203C-10.0799 425.5 -6.85779 426.034 -3.43426 426.924C10.5116 430.542 26.6726 438.373 42.3302 445.966Z" fill="#848484"/>
<path d="M34.5811 414C39.7573 414 43.0422 412.467 44.386 409.459C47.6709 401.911 37.7665 387.522 14.8718 366.529C4.51941 357.094 -6.23114 348.366 -13 343V345.064C9.64583 362.932 48.2682 396.722 43.092 408.634C41.997 411.169 39.0107 412.29 34.83 412.29C23.8306 412.29 4.32033 404.86 -13 396.958V398.845C-9.26717 400.555 -5.33526 402.265 -1.35357 403.916C14.822 410.639 26.8666 414 34.5811 414Z" fill="#848484"/>
<path fill-rule="evenodd" clip-rule="evenodd" d="M250.792 552.873C253.513 547.475 256.385 542.61 259.408 538.339C269.031 524.695 283.491 517.577 298.051 519.238C306.617 520.246 310.949 523.805 311 529.916C311.101 550.144 258.854 592.381 235.325 595.347C231.899 595.822 229.279 596 227.314 596C223.082 596 221.671 595.11 221.167 593.805C220.16 591.076 223.787 587.161 229.833 580.636C236.282 573.695 245.099 564.204 250.792 552.873ZM281.123 567.763C298.706 553.051 309.64 538.517 309.589 529.975C309.539 524.933 305.659 521.966 298.051 521.077C296.691 520.899 295.331 520.839 293.97 520.839C281.274 520.839 269.081 527.602 260.667 539.466C257.695 543.619 254.873 548.483 252.203 553.763C246.461 565.227 237.601 574.769 231.117 581.752L230.942 581.941L230.713 582.188C226.451 586.797 222.085 591.519 222.679 593.034C223.031 593.983 225.5 594.814 235.274 593.568C246.056 592.203 264.043 582.059 281.123 567.763Z" fill="#848484"/>
<path d="M36.0491 235.689C47.345 260.237 59.4441 285.497 71.242 303.938C84.2448 324.157 95.5406 334 105.832 334C105.933 334 106.033 334 106.134 334C116.375 333.822 125.412 324.098 133.746 304.412C151.267 263.083 172.001 237.824 193.739 231.479C208.6 227.151 223.862 231.42 239.073 244.287C250.771 254.189 259.105 257.45 264.426 254.308C272.308 249.683 272.76 232.428 273.262 212.505C273.814 190.625 274.417 165.78 285.512 154.396C290.683 149.119 297.611 147.162 306.698 148.348C330.494 151.55 353.136 147.28 372.164 136.133C390.237 125.519 404.244 109.332 412.628 89.2901C420.61 70.2564 422.92 48.7917 419.405 27.3269C417.949 18.3734 415.489 9.59776 412.126 1H410.419C422.167 30.2917 422.819 61.125 411.323 88.5192C403.089 108.205 389.333 124.096 371.561 134.532C352.785 145.561 330.394 149.712 306.899 146.569C297.51 145.324 289.98 147.458 284.558 153.032C272.961 164.891 272.358 190.151 271.756 212.386C271.304 230.946 270.852 248.497 263.774 252.647C258.954 255.494 251.172 252.232 239.927 242.745C224.313 229.582 208.65 225.194 193.338 229.641C171.148 236.163 150.062 261.72 132.39 303.522C124.307 322.556 115.723 331.925 106.134 332.103C106.033 332.103 105.933 332.103 105.832 332.103C83.9937 332.103 60.0465 284.014 37.3544 234.681C23.448 204.441 6.52928 183.688 -13 172.659V174.615C6.02724 185.763 22.4941 206.16 36.0491 235.689Z" fill="#848484"/>
<path d="M54.8004 160C63.476 160 71.0985 158.522 77.3671 155.506C91.6593 148.647 98.7803 134.632 98.5296 113.7C98.2789 93.1811 102.943 77.9251 112.772 67.104C136.993 40.2582 189.147 44.8705 244.411 49.8376C252.535 50.5472 260.96 51.3159 269.234 51.9663C277.308 52.6168 284.73 52.9124 291.55 52.9124C322.692 52.9124 340.344 46.3488 344.206 33.2807C346.914 24.0561 342.4 12.8802 335.179 2H333.223C340.645 12.8211 345.359 23.8787 342.802 32.7485C338.388 47.768 313.716 53.6811 269.385 50.2515C261.11 49.601 252.685 48.8323 244.561 48.1228C188.997 43.1557 136.492 38.4843 111.769 65.8623C101.639 77.0973 96.8246 92.7672 97.0753 113.818C97.326 133.923 90.5059 147.464 76.8656 153.969C59.3137 162.365 30.7794 158.522 -1.51606 143.443C-5.37747 141.669 -9.18874 139.718 -13 137.707V139.659C-9.38933 141.61 -5.72851 143.443 -2.06769 145.099C19.0447 154.915 38.7028 160 54.8004 160Z" fill="#848484"/>
<path d="M26.1424 103.882C44.1851 102.578 59.4712 91.3833 71.6499 70.5923L73.6547 67.1568C88.4396 41.9233 95.8571 29.2474 106.833 23.9756C117.809 18.7038 132.694 20.5993 162.364 24.4495C165.973 24.9233 169.832 25.3972 173.891 25.9303C209.024 30.4321 234.484 31.9129 251.725 30.4913C268.314 29.1289 277.737 25.1603 281.345 17.993C283.55 13.6098 283.45 8.27875 281.646 2H280.092C281.896 8.04181 282.097 13.0767 280.042 17.1045C276.734 23.6794 267.462 27.4704 251.625 28.7735C234.484 30.1359 209.125 28.6551 174.042 24.1533C169.982 23.6202 166.123 23.1463 162.515 22.6725C132.594 18.7631 117.608 16.8084 106.232 22.3171C94.8547 27.8258 87.337 40.6202 72.4017 66.1498L70.397 69.5854C58.4688 89.9024 43.5836 100.861 26.0422 102.105C17.0209 102.756 3.94001 100.92 -13 91.561V93.5157C1.88515 101.631 13.8133 104 22.6843 104C23.8871 104 25.0398 103.941 26.1424 103.882Z" fill="#848484"/>
<path d="M46.4767 61.7059C53.6239 57.7647 58.522 51.0588 60.971 41.7647C64.6196 28.2353 65.4193 14.5882 64.8195 2H63.3201C63.9199 14.4118 63.1202 27.8824 59.5216 41.2353C57.1725 50.0588 52.5243 56.4118 45.777 60.1176C29.7333 69 4.74305 61.7059 -13 54.5294V56.4118C-1.05468 61.2353 14.0394 66 27.6341 66C34.4814 65.9412 40.9789 64.7647 46.4767 61.7059Z" fill="#848484"/>
<path d="M356.454 44.719C346.464 67.8817 302.487 64.742 301.985 64.6828C277.336 64.6828 254.444 62.6094 234.263 60.7137C204.242 57.9294 178.287 55.5598 159.11 61.4246C148.969 64.5051 141.087 69.7774 135.063 77.4786C128.537 85.7721 124.119 96.9685 121.509 111.601C112.824 160.533 90.0821 166.397 71.7584 171.077C60.7139 173.921 51.1755 176.35 48.0128 187.961C45.1513 198.565 48.4646 219.654 56.5471 241.691C65.1819 265.328 76.9292 283.633 87.9736 290.623C91.538 292.874 95.1023 294 98.4659 294C104.892 294 110.966 289.972 116.288 282.093C124.37 270.126 130.947 257.094 137.322 244.476C149.22 220.898 159.461 200.579 175.375 196.017C185.165 193.233 196.561 196.669 210.115 206.681C228.088 219.891 240.538 224.038 248.219 219.358C257.757 213.552 258.711 195.603 259.715 176.527C261.07 150.936 262.476 124.456 284.766 125.641C289.886 125.877 294.806 126.055 299.575 126.055C347.769 126.055 379.045 112.608 392.55 85.9499C403.193 65.0382 400.482 39.8021 396.365 22.3856C394.407 14.0328 391.947 6.68702 389.789 1H388.132C390.341 6.68702 392.901 14.329 394.909 22.9187C402.189 53.9011 396.917 73.8057 391.244 85.0613C376.686 113.733 340.842 126.825 284.816 123.923C274.123 123.389 266.994 128.721 263.028 140.273C259.564 150.284 258.862 163.613 258.209 176.527C257.255 195.07 256.301 212.545 247.516 217.877C240.337 222.261 228.389 218.114 210.868 205.259C196.912 195.01 185.165 191.456 174.974 194.418C158.457 199.157 148.015 219.773 135.967 243.705C129.641 256.264 123.065 269.238 115.033 281.086C107.201 292.637 98.3153 295.303 88.5761 289.142C77.8328 282.33 66.2863 264.38 57.8022 241.099C50.0209 219.773 46.6071 198.683 49.318 188.612C52.2297 177.949 60.9147 175.698 71.9592 172.914C81.1964 170.544 91.6384 167.878 100.976 159.466C111.769 149.751 118.948 134.23 122.864 112.015C127.734 84.4689 138.979 69.422 159.361 63.2018C167.895 60.5952 177.886 59.6474 188.98 59.6474C202.434 59.6474 217.646 61.0691 234.012 62.5501C254.243 64.3866 277.135 66.5192 301.784 66.5192C301.784 66.5192 301.784 66.5192 301.835 66.5192C301.935 66.5192 313.281 67.4078 325.681 65.2752C342.548 62.4317 353.292 55.7968 357.709 45.6076C362.479 34.5297 359.416 19.6013 348.573 1.05924H346.765C357.81 19.4236 361.023 34.0558 356.454 44.719Z" fill="#848484"/>
<path d="M359.52 66.394C351.287 78.5589 326.386 83.6029 287.58 80.9919C258.111 79.0336 230.8 73.2775 230.549 73.2182C230.399 73.1588 213.732 69.6577 194.956 73.9896C183.861 76.4819 174.222 81.1699 166.24 87.9348C156.25 96.3612 148.87 107.992 144.352 122.471C135.616 150.54 125.827 169.707 114.381 181.1C104.44 191.01 94.7514 193.621 85.7149 195.461C72.5116 198.131 68.0436 208.101 66.6379 215.993C63.8265 231.422 70.6039 252.25 81.1464 260.618C84.008 262.873 86.9197 264 89.7311 264C92.3416 264 94.902 263.051 97.3117 261.092C107.202 253.141 117.343 237.831 128.086 221.69C148.518 190.892 169.654 159.085 190.889 175.048C194.002 177.362 197.014 179.676 199.876 181.931C215.438 193.977 227.788 203.531 235.57 199.021C240.188 196.351 242.799 189.289 243.753 176.709C245.711 150.718 249.325 131.135 260.621 120.098C268.653 112.205 280.099 109.298 295.662 111.078C339.238 116.122 367.954 106.983 381.057 84.0183C391.549 65.6225 389.742 41.708 386.378 24.8551C384.471 15.3012 381.86 6.87477 379.802 1H378.195C380.254 6.81543 382.964 15.4199 384.922 25.2705C388.186 41.7674 389.943 65.1478 379.802 83.0095C367.05 105.381 338.786 114.223 295.813 109.298C279.848 107.458 268.051 110.544 259.667 118.733C248.02 130.186 244.255 150.124 242.247 176.59C241.343 188.34 238.983 195.164 234.917 197.479C227.889 201.514 215.89 192.257 200.729 180.507C197.817 178.252 194.805 175.938 191.693 173.623C181.602 166.028 170.708 167.927 158.408 179.439C147.665 189.408 137.122 205.312 126.931 220.681C116.288 236.762 106.198 251.894 96.5084 259.727C90.8355 264.297 85.5141 261.982 81.9999 259.193C71.9092 251.182 65.433 231.184 68.0938 216.408C69.4492 209.05 73.6161 199.734 85.9659 197.241C95.2032 195.342 105.093 192.672 115.334 182.465C126.981 170.834 136.922 151.43 145.757 123.065C150.175 108.882 157.354 97.5481 167.043 89.359C174.824 82.7721 184.313 78.2028 195.157 75.7105C202.185 74.1083 208.912 73.5742 214.585 73.5742C223.822 73.5742 230.148 74.9391 230.248 74.9391C230.499 74.9984 257.91 80.7545 287.479 82.7128C327.34 85.3831 351.989 80.2798 360.675 67.4621C369.259 54.8224 371.267 37.8509 366.448 18.2089C364.791 11.5034 362.632 5.56927 360.725 1H359.018C360.976 5.50993 363.285 11.6814 364.992 18.6837C368.255 32.0354 369.962 51.0246 359.52 66.394Z" fill="#848484"/>
<path fill-rule="evenodd" clip-rule="evenodd" d="M199.812 89.898C205.14 86.8051 211.065 86.1509 216.542 88.1137C221.869 90.017 225.902 94.002 228.491 99.9498C236.258 117.853 229.387 149.317 224.607 166.446C223.363 170.967 221.819 173.346 219.778 173.881C219.479 173.941 219.18 174 218.882 174C215.565 174 211.756 169.355 207.014 163.572L206.932 163.472C202.401 157.941 197.273 151.696 191.099 147.294C180.792 139.919 175.714 131.652 176.012 122.611C176.56 106.849 193.837 93.4072 199.812 89.898ZM219.479 172.156C220.923 171.74 222.168 169.718 223.213 165.911C234.167 126.536 230.383 108.217 227.147 100.842C224.757 95.37 221.023 91.6823 216.093 89.898C214.152 89.1843 212.16 88.8274 210.119 88.8274C206.832 88.8274 203.546 89.7196 200.459 91.5039C194.684 94.8942 178.004 107.801 177.506 122.67C177.207 130.997 182.087 138.789 191.895 145.748C198.16 150.167 203.545 156.746 207.905 162.073L208.027 162.223L208.084 162.292C212.74 167.973 216.752 172.867 219.479 172.156Z" fill="#848484"/>
<path fill-rule="evenodd" clip-rule="evenodd" d="M202.5 117.962C204.226 116.95 206.149 116.711 207.924 117.366C209.7 118.022 211.031 119.332 211.869 121.357C214.335 127.074 212.215 136.9 210.735 142.26C210.489 143.273 209.996 144.643 208.911 144.94C208.763 145 208.664 145 208.516 145C207.295 145 206.122 143.539 204.567 141.602L204.522 141.546C203.19 139.878 201.662 137.972 199.837 136.662C196.533 134.28 194.906 131.541 195.004 128.503C195.189 122.811 201.565 118.583 202.408 118.024C202.465 117.987 202.497 117.966 202.5 117.962ZM208.615 143.154C208.763 143.154 209.059 142.677 209.354 141.665C210.439 137.556 212.856 127.431 210.637 122.131C209.946 120.582 208.96 119.57 207.579 119.094C207.037 118.915 206.445 118.796 205.902 118.796C204.966 118.796 204.078 119.034 203.19 119.57C201.859 120.404 196.681 124.275 196.533 128.622C196.434 130.885 197.815 133.089 200.626 135.114C202.598 136.543 204.275 138.628 205.607 140.295C205.674 140.376 205.742 140.458 205.811 140.542C206.859 141.811 208.106 143.321 208.615 143.154Z" fill="#848484"/>
<path d="M360.575 810.844C359.284 809.397 357.644 808.818 355.757 809.049C349.349 809.86 340.607 820.566 334 830H335.937C342.246 821.087 350.293 811.538 355.906 810.786C357.346 810.612 358.539 811.017 359.532 812.117C362.959 815.879 366.784 822.766 370.261 830H372C368.374 822.361 364.251 814.953 360.575 810.844Z" fill="#848484"/>
<path fill-rule="evenodd" clip-rule="evenodd" d="M367.4 532.147C376.95 525.458 393.499 525.278 416.598 531.669C432.557 536.117 446.27 542.298 448.238 543.185C448.304 543.215 448.358 543.239 448.397 543.256C463.246 546.541 465.096 549.468 464.996 551.618C464.896 554.544 460.896 558.546 430.698 563.922C411.948 567.266 389.599 570.014 373.3 571.985L369.25 572.462C366.3 572.821 363.65 573 361.25 573C352.101 573 346.751 570.372 345.351 565.236C342.801 555.978 354.551 541.166 367.4 532.147ZM430.398 562.189C460.047 556.874 463.346 552.992 463.396 551.558C463.446 550.841 462.396 548.213 447.947 544.988L447.797 544.929C447.789 544.925 447.745 544.905 447.665 544.869C446.175 544.189 432.335 537.88 416.198 533.401C407.449 530.953 396.999 528.802 387.499 528.802C380.05 528.802 373.15 530.176 368.1 533.7C361.75 538.179 355.801 543.973 351.751 549.647C347.501 555.679 345.701 560.995 346.701 564.698C348.251 570.193 355.951 572.283 369 570.671L373.1 570.253C374.305 570.102 375.542 569.949 376.808 569.792C392.676 567.821 413.08 565.287 430.398 562.189Z" fill="#848484"/>
<path fill-rule="evenodd" clip-rule="evenodd" d="M378.02 156.819C377.623 152.135 383.036 146.632 394.061 140.368C401.311 136.27 409.902 137.558 415.961 143.705C420.728 148.564 425.893 155.472 423.311 161.209C421.324 165.658 415.017 168 406.625 168C401.013 168 394.458 166.946 387.605 164.78C381.397 162.848 378.269 160.214 378.02 156.819ZM387.952 163.083C403.794 168.117 419.04 166.888 421.97 160.39C423.658 156.701 421.225 151.374 414.968 145.052C411.491 141.598 407.171 139.783 402.801 139.783C400.02 139.783 397.239 140.485 394.657 141.949C384.576 147.686 379.163 152.896 379.461 156.643C379.659 159.16 382.589 161.385 387.952 163.083Z" fill="#848484"/>
<path d="M536.15 811.695C510.023 807.798 494.678 781.699 475.321 748.633C469.905 739.422 464.288 729.856 457.97 719.936C442.123 695.077 424.371 680.138 405.264 675.533C383.55 670.337 359.68 678.367 334.355 699.388C306.523 722.475 266.254 759.616 231.702 794.099C222.024 803.783 209.387 816.655 197 830H199.207C209.035 819.49 220.218 807.916 232.655 795.457C267.157 761.033 307.376 723.892 335.157 700.864C382.347 661.716 423.267 668.506 456.716 721.058C462.984 730.919 468.601 740.485 474.017 749.696C493.625 783.117 509.12 809.452 535.899 813.467C554.905 816.301 565.788 821.852 568.395 830H570C567.543 820.848 556.159 814.707 536.15 811.695Z" fill="#848484"/>
<path d="M393.305 743.278C383.8 738.388 374.043 738.978 364.287 744.987C340.096 759.833 318.168 777.39 299.108 797.244C287.389 809.439 278.538 820.633 272 830H274.012C288.898 808.968 317.666 775.563 364.94 746.519C374.295 740.804 383.599 740.215 392.651 744.869C410.908 754.236 425.191 783.104 433.942 805.727C437.311 814.329 440.127 822.754 442.391 830H444C441.687 822.577 438.82 813.916 435.35 805.02C422.475 771.734 408.292 750.937 393.305 743.278Z" fill="#848484"/>
<path fill-rule="evenodd" clip-rule="evenodd" d="M157.986 623.832C156.216 619.561 156.519 613.393 161.476 609.953C168.961 604.793 179.076 607.165 183.072 611.199C184.791 612.919 185.398 614.935 184.741 616.833C183.426 620.866 178.368 625.018 169.77 629.11C168.506 629.703 167.241 630 166.078 630C162.336 630 159.402 627.153 157.986 623.832ZM169.214 627.45C177.306 623.594 182.212 619.68 183.375 616.181C183.881 614.698 182.971 613.393 182.06 612.563C179.936 610.428 175.738 608.826 171.288 608.826C168.202 608.826 165.016 609.597 162.234 611.495C158.087 614.342 157.784 619.324 159.352 623.001C160.919 626.679 164.662 629.644 169.214 627.45Z" fill="#848484"/>
<path fill-rule="evenodd" clip-rule="evenodd" d="M237.796 769.568C235.849 775.529 214.732 788.536 207.743 791.969C206.246 792.752 204.848 793.053 203.45 792.993C199.157 792.993 195.812 789.681 194.164 785.706C192.068 780.648 192.467 773.361 198.158 769.327C208.143 762.221 232.155 761.077 236.948 766.015C237.946 766.978 238.246 768.243 237.796 769.568ZM198.907 770.893C194.015 774.385 193.665 780.467 195.512 784.923C197.359 789.379 201.803 792.993 207.144 790.283C215.98 785.887 234.801 773.602 236.349 768.905C236.498 768.484 236.548 768.002 235.949 767.4C231.656 763.004 208.043 764.389 198.907 770.893Z" fill="#848484"/>
<path fill-rule="evenodd" clip-rule="evenodd" d="M325.872 434C318.439 434 310.5 433.126 304.836 430.62C296.746 427.065 296.341 421.762 297.454 417.915C298.617 413.778 300.993 410.747 304.584 408.941C311.006 405.735 321.119 406.493 334.62 411.272C344.582 414.827 352.824 419.314 352.925 419.372C357.173 421.82 357.325 424.151 356.768 425.666C355.1 430.037 344.582 432.601 335.328 433.534C332.446 433.825 329.21 434 325.872 434ZM305.19 410.514C302.005 412.088 299.881 414.768 298.87 418.44C297.605 422.985 299.78 426.54 305.443 428.988C312.118 431.902 323.546 432.951 335.227 431.785C345.998 430.678 354.291 427.881 355.403 424.967C355.959 423.452 353.987 421.936 352.268 420.946C351.762 420.654 329.816 408.766 314.04 408.766C310.753 408.766 307.719 409.232 305.19 410.514Z" fill="#848484"/>
<path d="M597.511 773.428C571.028 767.747 567.868 746.503 563.856 719.578C559.342 689.517 553.774 652.118 513.248 622.293C492.934 607.381 473.473 598.031 453.712 593.711C436.056 589.865 418.502 590.102 400.144 594.481C366.038 602.647 333.837 624.424 302.639 645.431C273.448 665.136 243.254 685.552 210.752 695.612C193.298 701.056 176.646 703.068 159.843 701.885C140.984 700.524 122.426 695.139 103.166 685.375C69.511 668.332 36.0564 662.414 3.75549 667.74C-2.21317 668.746 -8.13166 670.107 -14 671.883V673.717C-8.03135 671.942 -2.0627 670.521 4.00627 669.516C36.0564 664.19 69.21 670.107 102.614 686.972C126.339 698.985 148.307 703.956 169.022 703.956C219.028 703.956 261.712 675.137 303.392 647.029C335.893 625.075 366.539 604.363 400.445 596.256C418.602 591.877 435.956 591.64 453.411 595.487C473.022 599.747 492.332 609.038 512.445 623.832C530.251 636.91 552.42 653.183 562.401 719.874C564.458 733.78 566.263 745.793 571.028 755.439C576.295 766.149 584.671 772.422 597.26 775.144C634.527 783.192 656.696 795.915 666.978 815.206C669.436 819.763 671.241 824.733 672.445 830H674C672.746 824.378 670.89 819.171 668.232 814.259C657.699 794.554 635.229 781.535 597.511 773.428Z" fill="#848484"/>
<path d="M568.335 792.853C536.791 787.292 533.832 776.113 527.413 751.742C521.796 730.507 513.321 698.328 480.172 651.657C435.589 588.838 388.298 628.115 333.535 673.602C278.02 719.741 215.082 771.972 138.254 734.351C108.816 719.918 79.1274 712.82 49.9405 713.116C28.2258 713.353 6.7117 717.73 -14 726.129V728.022C6.7117 719.563 28.1756 715.186 49.9405 714.95C78.9268 714.595 108.415 721.752 137.652 736.067C172.255 753.043 207.209 753.339 244.42 737.072C276.967 722.817 306.154 698.565 334.388 675.14C361.469 652.663 387.045 631.427 410.966 623.856C437.395 615.456 459.009 624.684 479.019 652.899C511.967 699.334 520.392 731.276 525.959 752.393C532.378 776.763 535.637 789.008 568.134 794.745C587.141 798.117 599.026 806.398 603.49 819.353C604.593 822.606 605.245 826.155 605.496 830H607C606.799 825.919 606.097 822.133 604.894 818.702C600.18 804.979 587.893 796.343 568.335 792.853Z" fill="#848484"/>
<path d="M412.467 712.919C398.53 701.99 379.83 702.345 356.919 714.159C338.721 723.493 317.815 740.033 294.754 763.189C271.191 786.936 250.135 812.928 237 830H239.005C252.14 812.928 272.695 787.645 295.706 764.489C318.668 741.392 339.423 724.97 357.471 715.695C379.881 704.176 398.079 703.704 411.565 714.337C442.898 738.97 459.543 780.557 474.232 817.24C475.987 821.553 477.641 825.806 479.346 829.941H481C479.195 825.57 477.39 821.08 475.586 816.472C460.896 779.611 444.152 737.788 412.467 712.919Z" fill="#848484"/>
<path d="M371.628 776.027C365.134 770.541 356.742 770.66 346.702 776.384C338.809 780.916 329.868 788.905 320.128 800.174C310.837 810.966 302.495 822.712 297 831H298.948C314.533 807.806 350.248 760.167 370.728 777.458C383.966 788.667 391.708 810.907 398.402 831H400C393.207 810.549 385.364 787.653 371.628 776.027Z" fill="#848484"/>
<path d="M125.296 774.087C112.405 770.198 99.062 766.192 87.0736 761.42C57.3284 749.459 22.868 759.534 -0.807759 770.08C-5.4727 772.143 -9.88683 774.323 -14 776.503V778.447C-9.73635 776.208 -5.12157 773.91 -0.255993 771.73C23.169 761.302 57.2782 751.345 86.572 763.128C98.5604 767.959 111.953 771.966 124.895 775.854C153.988 784.574 181.476 792.823 183.382 807.788C184.185 814.092 180.473 821.457 172.146 830H174.353C182.228 821.457 185.689 814.033 184.887 807.493C182.78 791.35 156.145 783.337 125.296 774.087Z" fill="#848484"/>
<path d="M106.009 800.443C96.0996 798.406 84.0387 798.526 72.9287 800.802C52.36 804.997 12.1236 818.418 -14 827.465V829.322C12.1236 820.275 52.6103 806.794 73.2289 802.54C84.1888 800.323 96.0496 800.143 105.808 802.181C119.921 805.116 124.876 811.288 126.577 816.021C128.129 820.275 127.728 825.308 125.426 831H127.128C129.33 825.128 129.58 819.856 127.928 815.302C124.575 806.075 114.166 802.121 106.009 800.443Z" fill="#848484"/>
<path d="M47.5905 473.145C70.2421 491.148 85.0258 516.968 98.0054 539.768C112.739 565.588 125.518 587.914 145.464 591.526C147.318 591.882 149.222 592 151.127 592C166.512 592 184.803 581.518 208.006 559.429C225.396 542.847 239.879 527.805 252.658 514.481C279.62 486.351 299.114 466.038 320.663 459.465C342.663 452.714 366.818 459.82 404.003 483.923C434.373 503.643 470.605 517.205 503.33 521.113C518.565 522.949 532.396 522.594 543.371 519.988C554.948 517.264 563.066 512.349 567.426 505.302C573.39 495.649 574.843 477.705 547.731 446.97C515.307 410.194 478.423 405.752 439.384 401.074C413.525 397.994 386.764 394.737 359.752 381.886C329.183 367.378 302.672 342.15 278.667 304.9C260.927 277.363 240.23 264.334 218.731 267.236C204.097 269.19 189.715 278.31 175.983 294.241C162.202 310.348 149.773 332.556 139.149 360.271C131.231 380.821 122.511 391.362 112.338 392.428C90.338 394.737 64.8799 351.033 40.3239 308.749C28.0459 287.608 15.367 265.815 3.28943 250.181C-2.97486 241.949 -8.68789 235.968 -14 232V234.191C2.88852 247.338 21.2303 278.843 39.1211 309.638C51.4493 330.839 64.2284 352.809 76.5064 368.799C89.6363 385.854 100.862 394.204 110.734 394.204C111.336 394.204 111.937 394.145 112.539 394.086C123.263 392.961 132.434 382.123 140.552 360.923C151.127 333.385 163.405 311.355 177.086 295.425C190.567 279.732 204.649 270.789 218.931 268.894C239.829 266.111 260.125 278.902 277.515 305.907C301.67 343.453 328.431 368.799 359.201 383.426C386.413 396.395 413.274 399.593 439.234 402.732C478.022 407.41 514.656 411.793 546.729 448.154C573.089 478.06 571.886 495.116 566.273 504.176C558.055 517.382 534.601 523.008 503.53 519.278C471.006 515.369 434.974 501.867 404.755 482.265C367.219 457.925 342.764 450.819 320.312 457.688C298.412 464.38 278.818 484.811 251.706 513.119C238.927 526.443 224.494 541.485 207.104 558.008C181.345 582.525 161.851 592.592 145.714 589.69C126.42 586.256 113.842 564.226 99.2583 538.702C86.1785 515.784 71.3446 489.845 48.4424 471.605C29.4491 456.504 11.3578 448.924 -5.53069 448.924C-8.3872 448.924 -11.1936 449.161 -14 449.575V451.352C4.99331 448.45 25.6404 455.675 47.5905 473.145Z" fill="#848484"/>
<path d="M14.1252 647.922C37.3372 648.336 63.3067 653.848 86.2179 658.648C119.056 665.582 144.925 671.034 148.133 658.47C152.946 639.625 137.304 624.038 111.335 598.259C92.7353 579.768 69.5233 556.774 44.7069 523.705C26.0571 498.933 7.45736 487.673 -10.4906 490.399C-11.5936 490.577 -12.7466 490.814 -14 491.11V492.947C-12.7968 492.651 -11.5434 492.355 -10.2901 492.177C7.15656 489.569 25.2549 500.592 43.604 524.95C68.5206 558.137 91.7326 581.191 110.382 599.74C135.851 625.046 151.242 640.336 146.73 658.056C143.922 669.079 117.301 663.449 86.5187 656.989C53.2799 649.936 14.2255 641.699 -14 648.87V650.707C-5.97856 648.633 3.34637 647.744 14.1252 647.922Z" fill="#848484"/>
<path d="M80.0457 638C93.0451 638 100.345 635.212 101.745 629.576C104.845 617.295 78.9957 595.166 63.2465 583.063C40.9975 565.917 14.4987 549.78 0.249348 544.619C-4.50043 542.898 -9.30022 541.712 -14 541V542.78C-9.45021 543.492 -4.80042 544.678 -0.200631 546.339C13.9487 551.442 40.2975 567.46 62.3965 584.546C88.1453 604.421 102.295 621.032 100.245 629.042C98.2449 636.873 80.4457 638.297 50.0971 633.076C25.5482 628.923 -0.100636 621.626 -13.95 616.998V618.837C0.0493565 623.524 25.5482 630.703 49.9471 634.915C62.0965 636.991 72.1461 638 80.0457 638Z" fill="#848484"/>
<path fill-rule="evenodd" clip-rule="evenodd" d="M156.414 559C154.962 559 153.559 558.822 152.206 558.408C139.932 554.853 130.162 544.544 123.95 528.725C117.688 512.61 115.584 491.814 117.938 468.53C120.092 447.557 126.355 426.762 136.174 408.395C171.094 342.928 200.101 307.024 222.395 301.692C229.559 299.974 236.122 301.455 241.784 306.136C263.015 323.577 276.864 340.555 289.079 355.529L289.528 356.08L289.637 356.214C308.523 379.376 323.458 397.692 356.16 408.277C376.851 414.972 386.621 421.133 385.969 427.176C385.468 431.857 378.455 435.589 365.078 438.315C352.102 440.922 333.365 442.521 310.921 442.877C293.987 443.173 276.402 450.934 257.114 466.753C240.281 480.617 224.349 498.687 210.271 514.684C189.48 538.323 171.294 559 156.414 559ZM137.477 409.343C127.808 427.473 121.595 448.031 119.491 468.767C117.187 491.696 119.241 512.195 125.403 528.014C131.365 543.359 140.783 553.312 152.607 556.749C153.859 557.104 155.162 557.282 156.465 557.282C170.692 557.282 188.677 536.843 209.217 513.501L209.219 513.499C223.297 497.443 239.279 479.313 256.262 465.39C275.801 449.394 293.687 441.455 310.921 441.159C333.315 440.803 351.952 439.203 364.828 436.597C381.41 433.219 384.266 429.131 384.517 426.999C385.218 420.244 364.677 412.839 355.81 409.995C322.644 399.212 307.564 380.727 288.526 357.325L288.32 357.072C276.097 342.085 262.255 325.114 240.982 307.617C237.074 304.417 232.766 302.818 228.056 302.818C226.353 302.818 224.55 303.055 222.746 303.469C200.903 308.683 172.196 344.29 137.477 409.343Z" fill="#848484"/>
<path d="M608.886 146.23C596.695 151.502 589.471 165.242 579.387 184.313C574.521 193.552 568.952 204.035 561.979 215.17C539.303 251.12 516.477 237.913 478.651 216.058C459.136 204.746 434.804 190.709 404.754 180.523C361.058 165.716 331.911 166.486 315.657 182.892C300.757 197.935 296.041 225.712 300.757 270.31C304.871 308.984 329.453 338.775 373.801 358.912C415.59 377.864 465.055 383.254 490.791 384.853C535.541 387.518 574.822 395.692 607.632 409.017C633.819 419.678 655.943 433.656 673.351 450.594C679.07 456.162 683.936 461.67 688 467V464.394C684.137 459.537 679.672 454.444 674.455 449.351C656.896 432.234 634.622 418.138 608.234 407.418C575.274 394.033 535.792 385.86 490.892 383.136C465.206 381.596 415.941 376.206 374.353 357.313C330.556 337.472 306.275 308.155 302.262 270.191C297.596 226.245 302.162 199.001 316.66 184.372C332.513 168.381 361.209 167.67 404.353 182.359C434.303 192.545 458.534 206.523 477.999 217.776C497.213 228.91 512.414 237.676 525.959 239.216C540.658 240.874 552.146 233.826 563.183 216.354C570.207 205.22 575.775 194.678 580.692 185.379C590.575 166.604 597.749 153.042 609.438 148.007C621.779 142.677 638.485 147.178 665.374 163.051C673.552 167.907 681.077 173.238 688 178.864V176.614C681.278 171.165 673.953 166.071 666.027 161.392C638.685 145.283 621.628 140.722 608.886 146.23Z" fill="#848484"/>
<path d="M638.634 202.02C626.306 202.435 615.881 209.371 607.662 222.65C600.195 234.683 594.932 245.65 590.221 255.253C575.086 286.375 568.17 300.602 521.811 279.083C508.279 272.8 492.342 263.671 475.453 254.008C428.944 227.333 376.22 197.1 348.305 211.801C339.885 216.188 334.122 224.606 331.165 236.699C327.156 253.06 328.709 267.879 335.876 280.743C346.3 299.416 368.252 314.236 402.933 326.092C429.896 335.339 464.627 342.749 512.138 349.507C558.798 356.146 607.111 373.811 648.107 399.183C663.392 408.667 676.974 418.863 688 429V426.629C677.125 416.788 663.894 406.948 648.758 397.582C607.612 372.092 559.098 354.368 512.239 347.728C464.778 340.971 430.147 333.561 403.284 324.313C368.953 312.576 347.303 297.934 337.079 279.676C330.163 267.287 328.659 253 332.518 237.114C335.425 225.376 340.737 217.611 348.806 213.402C376.12 199.056 428.493 229.111 474.701 255.609C491.59 265.33 507.578 274.459 521.16 280.743C544.063 291.354 558.146 293.725 568.27 288.568C578.043 283.588 583.656 272.088 591.374 256.142C596.035 246.539 601.297 235.691 608.714 223.717C616.633 210.912 626.656 204.214 638.534 203.799C655.273 203.265 673.466 215.358 687.95 228.222V225.969C665.197 205.814 648.758 201.665 638.634 202.02Z" fill="#848484"/>
<path fill-rule="evenodd" clip-rule="evenodd" d="M514.826 311.956C514.999 312.102 515.096 312.183 515.112 312.196C521.074 317.496 523.179 321.842 521.375 325.117C519.371 328.63 512.907 330 504.389 330C492.715 330 477.082 327.44 463.353 324.165C429.932 316.245 398.065 302.788 378.123 288.2C355.676 271.766 348.06 253.962 356.127 236.694C358.281 232.05 361.889 229.073 366.799 227.763C382.633 223.595 412.445 236.516 455.336 266.288C485.477 287.126 511.808 309.402 514.826 311.956ZM501.533 328.095C515.412 328.511 519.12 325.713 520.072 324.046C521.726 321.187 517.817 316.781 514.21 313.625C512.907 312.494 414.7 228.775 373.163 228.775C370.958 228.775 368.954 229.013 367.1 229.49C362.64 230.681 359.384 233.36 357.429 237.528C353.421 246.102 353.471 254.796 357.63 263.43C361.388 271.29 368.553 279.09 378.875 286.652C398.666 301.121 430.333 314.519 463.603 322.378C477.883 325.772 491.362 327.797 501.533 328.095Z" fill="#848484"/>
<path fill-rule="evenodd" clip-rule="evenodd" d="M463.143 296.36C463.506 296.623 463.708 296.769 463.73 296.782C464.483 297.427 466.842 299.48 465.687 301.416C465.035 302.589 463.027 303 460.317 303C452.889 303 440.292 299.598 437.08 298.718C420.367 294.025 404.859 287.279 395.625 280.651C386.34 273.964 383.128 267.453 386.039 261.293C386.741 259.827 387.946 258.83 389.552 258.36C396.076 256.425 410.581 262.291 432.613 275.841C447.105 284.753 460.25 294.266 463.143 296.36ZM437.431 296.958C454.495 301.709 463.63 301.827 464.483 300.36C464.583 300.302 464.433 299.598 462.827 298.19C461.421 297.134 410.129 259.71 392.412 259.71C391.459 259.71 390.656 259.827 389.903 260.062C388.648 260.414 387.845 261.117 387.343 262.115C384.884 267.277 387.896 272.967 396.377 279.067C405.461 285.637 420.819 292.324 437.431 296.958Z" fill="#848484"/>
<path fill-rule="evenodd" clip-rule="evenodd" d="M167.256 514.507C162.255 516.994 158.155 518 154.804 518C148.004 518 144.303 513.856 142.203 509.475C128.851 481.473 159.005 391.309 200.01 356.144C212.262 345.665 223.263 341.402 232.665 343.534C240.416 345.31 247.067 351.289 252.467 361.353C257.768 371.181 260.318 382.547 259.968 394.269C259.618 405.932 256.368 417.121 250.617 426.593L249.067 429.139L248.976 429.288C229.902 460.677 210.194 493.11 167.256 514.507ZM200.91 357.683C182.358 373.608 164.106 403.031 152.104 436.361C140.853 467.56 137.502 495.977 143.503 508.646C147.553 517.112 155.304 518.533 166.656 512.849C209.262 491.596 228.864 459.331 247.817 428.073L249.367 425.527C254.968 416.351 258.118 405.517 258.468 394.21C258.818 382.843 256.318 371.832 251.217 362.36C246.066 352.769 239.716 347.027 232.415 345.369C230.914 345.014 229.364 344.836 227.814 344.836C219.863 344.836 210.862 349.158 200.91 357.683Z" fill="#848484"/>
<path fill-rule="evenodd" clip-rule="evenodd" d="M181.632 473.805C178.523 475.347 175.966 476 173.91 476C169.949 476 167.793 473.686 166.64 471.254C163.18 464.017 165.286 448.711 172.105 431.33C179.225 413.296 189.905 396.922 200.735 387.668C207.905 381.558 214.323 379.066 219.889 380.312C224.452 381.32 228.413 384.821 231.572 390.753C237.839 402.499 237.438 417.448 230.469 428.898C219.387 447.11 207.304 460.991 181.632 473.805ZM201.638 389.151C191.058 398.228 180.528 414.304 173.509 432.101C166.94 448.652 164.784 463.72 167.993 470.424C170.099 474.873 174.512 475.466 181.08 472.203C206.451 459.568 218.334 445.864 229.265 427.889C235.884 417.033 236.285 402.855 230.318 391.761C227.36 386.304 223.8 383.041 219.638 382.092C218.786 381.914 217.933 381.795 217.031 381.795C212.468 381.795 207.354 384.287 201.638 389.151Z" fill="#848484"/>
<path d="M665.831 478.433C653.042 469.479 640.302 467.581 630.021 473.096C614.723 481.221 607.702 503.993 613.72 526.054C615.275 531.747 614.322 536.314 610.911 539.872C600.128 551.021 565.27 551.97 515.215 542.422C471.982 534.179 425.387 519.294 401.865 506.128C382.354 495.216 366.606 493.437 355.02 500.732C344.738 507.196 337.967 521.073 335.409 540.761C331.597 570.235 279.185 598.345 237.055 620.88C207.162 636.892 183.539 649.524 180.379 659.902C179.828 661.681 179.878 663.342 180.53 664.884C183.338 671.763 190.21 672.949 202.899 668.738C214.585 664.824 231.136 656.463 252.051 645.847C284.501 629.361 328.989 606.766 386.066 585.239C432.861 567.626 473.536 569.642 506.94 591.229C525.046 602.971 540.694 620.287 553.434 642.704C564.317 661.919 572.994 684.869 578.461 709.124C582.473 726.915 591.251 741.741 604.592 753.187C615.375 762.438 629.218 769.554 645.669 774.358C658.509 778.094 673.104 780.348 688 781V779.221C673.204 778.569 658.76 776.315 646.02 772.579C629.77 767.894 616.128 760.837 605.495 751.704C592.454 740.496 583.878 726.026 579.916 708.59C574.398 684.098 565.671 660.97 554.688 641.637C541.798 618.923 525.999 601.429 507.642 589.568C473.887 567.685 432.81 565.669 385.614 583.401C328.437 604.928 283.95 627.522 251.449 644.068C209.971 665.121 187.1 676.744 181.884 663.994C181.433 662.867 181.382 661.681 181.784 660.377C184.743 650.71 209.269 637.545 237.707 622.363C258.872 611.036 282.897 598.167 301.805 584.527C323.673 568.753 335.158 554.461 336.914 540.88C339.371 521.784 345.891 508.382 355.722 502.155C366.906 495.098 382.204 496.936 401.263 507.611C436.271 527.181 521.736 550.546 573.646 550.546C591.552 550.546 605.495 547.759 611.965 541.058C615.877 537.025 616.98 531.747 615.225 525.342C609.457 504.171 616.128 482.288 630.723 474.519C649.481 464.556 670.245 479.619 687.95 503.222V500.198C680.627 491.006 673.254 483.652 665.831 478.433Z" fill="#848484"/>
<path d="M41.3574 444.966C60.3802 454.161 78.5474 463 90.8267 463C94.1482 463 97.0167 462.347 99.3819 460.924C102.703 458.907 104.817 455.288 105.723 450.246C107.887 438.381 97.1676 426.932 80.9127 409.61C64.8088 392.466 42.7665 369.034 23.2907 333.915C10.0553 310.127 -2.37495 294.822 -13.9497 288V289.958C-2.82788 296.78 9.19977 311.729 21.9823 334.864C41.609 370.22 63.7016 393.712 79.8559 410.915C95.7082 427.822 106.226 438.975 104.213 449.831C103.358 454.398 101.546 457.483 98.6271 459.263C88.2098 465.729 65.7146 454.814 41.9109 443.246C26.2096 435.653 9.95464 427.763 -4.13632 424.203C-7.65907 423.314 -10.9805 422.72 -14 422.424V424.203C-11.0812 424.5 -7.86037 425.034 -4.43827 425.924C9.55204 429.542 25.7566 437.373 41.3574 444.966Z" fill="#848484"/>
<path fill-rule="evenodd" clip-rule="evenodd" d="M248.792 552.873C251.513 547.475 254.385 542.61 257.408 538.339C266.981 524.695 281.491 517.577 296.051 519.238C304.617 520.246 308.949 523.805 309 529.916C309.101 550.144 256.854 592.381 233.325 595.347C229.899 595.822 227.279 596 225.314 596C221.082 596 219.671 595.11 219.167 593.805C218.16 591.076 221.787 587.161 227.833 580.636C234.282 573.695 243.099 564.204 248.792 552.873ZM279.072 567.763C296.656 553.051 307.589 538.517 307.539 529.975C307.539 524.933 303.609 521.907 296.001 521.077C294.641 520.899 293.28 520.839 291.92 520.839C279.224 520.839 267.031 527.602 258.617 539.466C255.644 543.619 252.823 548.483 250.153 553.763C244.411 565.227 235.551 574.769 229.066 581.752L228.891 581.941L228.663 582.188C224.4 586.797 220.034 591.519 220.628 593.034C220.981 593.983 223.45 594.814 233.224 593.568C244.006 592.203 261.993 582.059 279.072 567.763Z" fill="#848484"/>
<path d="M34.9361 234.689C46.2059 259.237 58.2772 284.497 70.0479 302.938C83.0207 323.157 94.2905 333 104.559 333C104.659 333 104.759 333 104.859 333C115.077 332.822 124.093 323.098 132.408 303.412C149.888 262.083 170.575 236.824 192.263 230.479C207.089 226.151 222.316 230.42 237.492 243.287C249.163 253.189 257.478 256.45 262.787 253.308C270.651 248.683 271.102 231.428 271.602 211.505C272.153 189.625 272.754 164.78 283.824 153.396C288.983 148.119 295.895 146.162 304.961 147.348C328.703 150.55 351.293 146.28 370.276 135.133C388.308 124.519 402.282 108.332 410.647 88.2901C418.611 69.2564 420.915 47.7917 417.409 26.3269C415.956 17.3734 413.502 8.59776 410.146 0H408.443C420.164 29.2917 420.815 60.125 409.345 87.5192C401.13 107.205 387.406 123.096 369.675 133.532C350.942 144.561 328.603 148.712 305.162 145.569C295.795 144.324 288.282 146.458 282.872 152.032C271.302 163.891 270.701 189.151 270.1 211.386C269.649 229.946 269.198 247.497 262.136 251.647C257.327 254.494 249.564 251.232 238.344 241.745C222.767 228.582 207.139 224.194 191.862 228.641C169.723 235.163 148.686 260.72 131.055 302.522C122.991 321.556 114.426 330.925 104.859 331.103C104.759 331.103 104.659 331.103 104.559 331.103C82.7702 331.103 58.8782 283.014 36.2384 233.681C22.364 203.619 5.53437 182.865 -14 171.837V173.793C4.93331 184.763 21.3622 205.16 34.9361 234.689Z" fill="#848484"/>
<path d="M53.8004 159C62.476 159 70.0985 157.522 76.3671 154.506C90.6593 147.647 97.7803 133.632 97.5296 112.7C97.2789 92.1811 101.943 76.9251 111.772 66.104C135.993 39.2582 188.147 43.8705 243.411 48.8376C251.535 49.5472 259.96 50.3159 268.234 50.9663C276.308 51.6168 283.73 51.9124 290.55 51.9124C321.692 51.9124 339.344 45.3488 343.206 32.2807C345.914 23.0561 341.4 11.8802 334.179 1H332.223C339.645 11.8211 344.359 22.8787 341.802 31.7485C337.388 46.768 312.716 52.6811 268.385 49.2515C260.11 48.601 251.685 47.8323 243.561 47.1228C187.997 42.1557 135.492 37.4843 110.769 64.8623C100.639 76.0973 95.8246 91.7672 96.0753 112.818C96.326 132.923 89.5059 146.464 75.8656 152.969C58.3137 161.365 29.7794 157.522 -2.51606 142.443C-6.37747 140.669 -10.1887 138.718 -14 136.707V138.659C-10.3893 140.61 -6.72851 142.443 -3.06769 144.099C18.0948 153.915 37.7529 159 53.8004 159Z" fill="#848484"/>
<path d="M25.1424 102.882C43.1851 101.578 58.4712 90.3833 70.6499 69.5923L72.6547 66.1568C87.4396 40.9233 94.8571 28.2474 105.833 22.9756C116.809 17.7038 131.694 19.5993 161.364 23.4495C164.973 23.9233 168.832 24.3972 172.891 24.9303C208.074 29.3728 233.535 30.9129 250.725 29.4913C267.314 28.1289 276.737 24.1603 280.345 16.993C282.55 12.6098 282.45 7.27875 280.646 1H279.092C280.896 7.04181 281.097 12.0767 279.042 16.1045C275.734 22.561 266.462 26.4111 250.625 27.7143C233.484 29.1359 208.125 27.6551 173.042 23.1533C168.982 22.6202 165.123 22.1463 161.515 21.6725C131.594 17.7631 116.608 15.8084 105.232 21.3171C93.8547 26.8258 86.337 39.6202 71.4017 65.1498L69.397 68.5854C57.4688 88.9024 42.5836 99.8606 25.0422 101.105C16.0209 101.756 2.94001 99.9199 -14 90.561V92.5157C0.885154 100.631 12.8133 103 21.6843 103C22.9372 103 24.09 102.941 25.1424 102.882Z" fill="#848484"/>
<path d="M45.4767 60.7608C52.6239 56.816 57.522 50.104 59.971 40.8013C63.6196 27.2594 64.4193 13.5998 63.8195 1H62.3201C62.9199 13.4232 62.1202 26.9062 58.5216 40.2714C56.1725 49.103 51.5243 55.4618 44.777 59.1711C28.7333 68.0028 3.79303 60.7608 -14 53.5189V55.4029C-2.05468 60.2309 13.0394 65 26.6341 65C33.4814 65 39.9789 63.7636 45.4767 60.7608Z" fill="#848484"/>
<path d="M355.454 44.719C345.514 67.8817 301.487 64.742 300.985 64.6828C276.336 64.6828 253.444 62.6094 233.263 60.7137C203.242 57.9294 177.287 55.5598 158.11 61.4246C147.969 64.5051 140.087 69.7774 134.063 77.4786C127.537 85.7721 123.119 96.9685 120.509 111.601C111.824 160.533 89.0821 166.397 70.7584 171.077C59.7139 173.921 50.1755 176.35 47.0128 187.961C44.1513 198.565 47.4646 219.654 55.5471 241.691C64.1819 265.328 75.9292 283.633 86.9736 290.623C90.538 292.874 94.1023 294 97.4659 294C103.892 294 109.966 289.972 115.288 282.093C123.37 270.126 129.947 257.094 136.322 244.476C148.22 220.898 158.461 200.579 174.375 196.017C184.165 193.233 195.561 196.669 209.115 206.681C227.088 219.891 239.538 224.038 247.219 219.358C256.757 213.552 257.711 195.603 258.715 176.527C260.07 150.936 261.476 124.456 283.766 125.641C288.886 125.877 293.806 126.055 298.575 126.055C346.769 126.055 378.045 112.608 391.55 85.9499C402.193 65.0382 399.482 39.8021 395.365 22.3856C393.407 14.0328 390.947 6.68702 388.789 1H387.132C389.341 6.68702 391.901 14.329 393.909 22.9187C401.189 53.9011 395.917 73.8057 390.244 85.0613C375.686 113.733 339.842 126.825 283.816 123.923C273.123 123.389 265.994 128.721 262.028 140.273C258.564 150.284 257.862 163.613 257.209 176.527C256.255 195.07 255.301 212.545 246.516 217.877C239.337 222.261 227.389 218.114 209.868 205.259C195.912 195.01 184.165 191.456 173.974 194.418C157.457 199.157 147.015 219.773 134.967 243.705C128.641 256.264 122.065 269.238 114.033 281.086C106.201 292.637 97.3153 295.303 87.5761 289.142C76.8328 282.33 65.2863 264.38 56.8022 241.099C49.0209 219.773 45.6071 198.683 48.318 188.612C51.2297 177.949 59.9147 175.698 70.9592 172.914C80.1964 170.544 90.6384 167.878 99.976 159.466C110.769 149.751 117.948 134.23 121.864 112.015C126.734 84.4689 137.979 69.422 158.361 63.2018C166.895 60.5952 176.886 59.6474 187.98 59.6474C201.434 59.6474 216.646 61.0691 233.012 62.5501C253.243 64.3866 276.135 66.5192 300.784 66.5192C300.784 66.5192 300.784 66.5192 300.835 66.5192C300.935 66.5192 312.281 67.4078 324.681 65.2752C341.548 62.4317 352.292 55.7968 356.709 45.6076C361.479 34.5297 358.416 19.6013 347.573 1.05924H345.765C356.81 19.3643 360.023 34.0558 355.454 44.719Z" fill="#848484"/>
<path d="M358.52 65.394C350.287 77.5589 325.386 82.6029 286.58 79.9919C257.111 78.0336 229.8 72.2775 229.549 72.2182C229.399 72.1588 212.732 68.6577 193.956 72.9896C182.861 75.4819 173.222 80.1699 165.24 86.9348C155.25 95.3612 147.87 106.992 143.352 121.471C134.616 149.54 124.827 168.707 113.381 180.1C103.44 190.01 93.7514 192.621 84.7149 194.461C71.5116 197.131 67.0436 207.101 65.6379 214.993C62.8265 230.422 69.6039 251.25 80.1464 259.618C83.008 261.873 85.9197 263 88.7311 263C91.3416 263 93.902 262.051 96.3117 260.092C106.202 252.141 116.343 236.831 127.086 220.69C147.518 189.892 168.654 158.085 189.889 174.048C193.002 176.362 196.014 178.676 198.876 180.931C214.438 192.977 226.788 202.531 234.57 198.021C239.188 195.351 241.799 188.289 242.753 175.709C244.711 149.718 248.325 130.135 259.621 119.098C267.653 111.205 279.099 108.298 294.662 110.078C338.238 115.122 366.954 105.983 380.057 83.0183C390.549 64.6225 388.742 40.708 385.378 23.8551C383.471 14.3012 380.86 5.87477 378.802 0H377.195C379.254 5.81543 381.964 14.4199 383.922 24.2705C387.186 40.7674 388.943 64.1478 378.802 82.0095C366.05 104.381 337.786 113.223 294.813 108.298C278.848 106.458 267.051 109.544 258.667 117.733C247.02 129.186 243.255 149.124 241.247 175.59C240.343 187.34 237.983 194.164 233.917 196.479C226.889 200.514 214.89 191.257 199.729 179.507C196.817 177.252 193.805 174.938 190.693 172.623C180.602 165.028 169.708 166.927 157.408 178.439C146.665 188.408 136.122 204.312 125.931 219.681C115.288 235.762 105.198 250.894 95.5084 258.727C89.8355 263.297 84.5141 260.982 80.9999 258.193C70.9092 250.182 64.433 230.184 67.0938 215.408C68.4492 208.05 72.6161 198.734 84.9659 196.241C94.2032 194.342 104.093 191.672 114.334 181.465C125.981 169.834 135.922 150.43 144.757 122.065C149.175 107.882 156.354 96.5481 166.043 88.359C173.824 81.7721 183.313 77.2028 194.157 74.7105C201.185 73.1083 207.912 72.5742 213.585 72.5742C222.822 72.5742 229.148 73.9391 229.248 73.9391C229.499 73.9984 256.91 79.7545 286.479 81.7128C326.34 84.3831 350.989 79.2798 359.675 66.4621C368.259 53.8818 370.267 36.8509 365.448 17.2683C363.791 10.5627 361.632 4.62861 359.725 0.0593412H358.018C359.976 4.56927 362.285 10.7407 363.992 17.743C367.255 30.9761 368.912 50.0246 358.52 65.394Z" fill="#848484"/>
<path fill-rule="evenodd" clip-rule="evenodd" d="M197.812 88.898C203.14 85.8051 209.065 85.1509 214.542 87.1137C219.919 89.017 223.952 93.002 226.491 98.9498C234.258 116.853 227.387 148.317 222.607 165.446C221.363 169.967 219.819 172.346 217.778 172.881C217.479 172.941 217.18 173 216.882 173C213.565 173 209.756 168.355 205.014 162.572L204.932 162.472C200.401 156.941 195.273 150.696 189.099 146.294C178.792 138.919 173.714 130.652 174.012 121.611C174.56 105.849 191.837 92.4072 197.812 88.898ZM217.479 171.156C218.923 170.74 220.168 168.718 221.213 164.911C232.217 125.536 228.433 107.217 225.147 99.842C222.757 94.37 219.023 90.6823 214.093 88.898C212.152 88.1843 210.16 87.8274 208.119 87.8274C204.832 87.8274 201.546 88.7196 198.459 90.5039C192.684 93.8942 176.004 106.801 175.506 121.67C175.207 129.997 180.087 137.789 189.895 144.748C196.16 149.167 201.545 155.746 205.905 161.073L206.027 161.223L206.084 161.292C210.74 166.973 214.752 171.867 217.479 171.156Z" fill="#848484"/>
<path fill-rule="evenodd" clip-rule="evenodd" d="M200.5 116.962C202.226 115.95 204.149 115.711 205.924 116.366C207.65 117.022 208.982 118.332 209.869 120.357C212.335 126.074 210.215 135.9 208.735 141.26C208.489 142.273 207.996 143.643 206.911 143.94C206.763 144 206.664 144 206.516 144C205.295 144 204.122 142.539 202.567 140.602L202.522 140.546C201.19 138.878 199.662 136.972 197.837 135.662C194.533 133.28 192.906 130.541 193.004 127.503C193.189 121.811 199.565 117.583 200.408 117.024C200.465 116.987 200.497 116.966 200.5 116.962ZM206.565 142.154C206.713 142.154 207.009 141.677 207.305 140.665C208.439 136.556 210.806 126.431 208.587 121.131C207.897 119.582 206.911 118.57 205.53 118.094C204.987 117.915 204.396 117.796 203.853 117.796C202.916 117.796 202.029 118.034 201.141 118.57C199.809 119.404 194.632 123.275 194.484 127.622C194.385 129.885 195.766 132.089 198.577 134.114C200.549 135.543 202.226 137.628 203.557 139.295C203.624 139.376 203.692 139.458 203.761 139.542C204.809 140.811 206.056 142.321 206.565 142.154Z" fill="#848484"/>
<path d="M359.575 810.931C358.284 809.416 356.644 808.809 354.757 809.052C348.349 809.901 339.607 821.117 333 831H334.937C341.246 821.663 349.293 811.659 354.906 810.871C356.346 810.689 357.539 811.113 358.532 812.265C361.959 816.206 365.784 823.421 369.261 831H371C367.374 822.997 363.301 815.175 359.575 810.931Z" fill="#848484"/>
<path fill-rule="evenodd" clip-rule="evenodd" d="M365.4 532.147C374.95 525.458 391.499 525.278 414.598 531.669C431.148 536.268 445.247 542.719 446.397 543.256C461.246 546.541 463.096 549.468 462.996 551.618C462.896 554.544 458.896 558.546 428.698 563.922C409.948 567.266 387.599 570.014 371.3 571.985L367.25 572.462C364.3 572.821 361.65 573 359.25 573C350.101 573 344.751 570.372 343.351 565.236C340.801 555.978 352.551 541.166 365.4 532.147ZM428.448 562.189C458.097 556.874 461.396 552.992 461.446 551.558C461.446 550.841 460.396 548.213 446.047 545.048L445.897 544.988C445.889 544.985 445.845 544.965 445.765 544.929C444.275 544.249 430.435 537.94 414.298 533.461C405.549 531.012 395.099 528.862 385.599 528.862C378.15 528.862 371.25 530.236 366.2 533.76C359.85 538.239 353.901 544.033 349.851 549.707C345.601 555.739 343.801 561.055 344.801 564.758C346.351 570.253 354.051 572.343 367.1 570.73L371.15 570.253C372.355 570.102 373.592 569.949 374.858 569.792C390.726 567.821 411.13 565.287 428.448 562.189Z" fill="#848484"/>
<path fill-rule="evenodd" clip-rule="evenodd" d="M377.02 155.819C376.623 151.135 382.036 145.632 393.061 139.368C400.311 135.27 408.952 136.558 414.961 142.705C419.728 147.564 424.893 154.472 422.311 160.209C420.324 164.658 414.017 167 405.625 167C400.013 167 393.458 165.946 386.605 163.78C380.397 161.848 377.269 159.214 377.02 155.819ZM387.002 162.083C402.844 167.117 418.09 165.888 421.019 159.39C422.658 155.643 420.275 150.374 414.017 144.052C410.541 140.598 406.221 138.783 401.851 138.783C399.07 138.783 396.289 139.485 393.706 140.949C383.625 146.686 378.212 151.896 378.51 155.643C378.709 158.16 381.639 160.385 387.002 162.083Z" fill="#848484"/>
<path d="M535.15 812.578C509.023 808.656 493.678 782.39 474.321 749.112C468.905 739.841 463.288 730.214 456.97 720.231C441.123 695.212 423.371 680.178 404.264 675.543C382.55 670.313 358.68 678.395 333.355 699.551C305.523 722.786 265.254 760.165 230.702 794.869C221.024 804.615 208.387 817.57 196 831H198.207C208.035 820.422 219.218 808.775 231.655 796.236C266.157 761.591 306.376 724.212 334.157 701.036C381.347 661.637 422.267 668.471 455.716 721.36C461.984 731.284 467.601 740.911 473.017 750.181C492.625 783.816 508.12 810.32 534.899 814.361C553.905 817.213 564.788 822.799 567.395 831H569C566.543 821.789 555.159 815.609 535.15 812.578Z" fill="#848484"/>
<path d="M391.6 743.315C382.15 738.371 372.45 738.966 362.75 745.042C338.7 760.054 316.9 777.805 297.95 797.88C286.3 810.21 277.5 821.529 271 831H273C287.8 809.734 316.4 775.958 363.4 746.591C372.7 740.813 381.95 740.217 390.95 744.923C409.1 754.395 423.3 783.583 432 806.458C435.35 815.155 438.15 823.673 440.4 831H442C439.7 823.494 436.85 814.738 433.4 805.743C420.6 772.086 406.5 751.059 391.6 743.315Z" fill="#848484"/>
<path fill-rule="evenodd" clip-rule="evenodd" d="M156.986 623.832C155.216 619.561 155.519 613.393 160.476 609.953C167.91 604.793 178.076 607.165 182.072 611.199C183.791 612.919 184.398 614.935 183.741 616.833C182.426 620.866 177.368 625.018 168.77 629.11C167.506 629.703 166.241 630 165.078 630C161.336 630 158.402 627.153 156.986 623.832ZM168.163 627.45C176.256 623.594 181.161 619.68 182.325 616.181C182.83 614.698 181.92 613.334 181.01 612.563C178.886 610.428 174.688 608.826 170.237 608.826C167.152 608.826 163.966 609.597 161.184 611.495C157.037 614.342 156.733 619.324 158.301 623.001C159.869 626.679 163.612 629.644 168.163 627.45Z" fill="#848484"/>
<path fill-rule="evenodd" clip-rule="evenodd" d="M236.796 769.568C234.849 775.53 213.732 788.537 206.743 791.97C205.246 792.692 203.798 793.054 202.45 792.994C198.157 792.994 194.812 789.681 193.164 785.707C191.068 780.648 191.467 773.362 197.158 769.327C207.143 762.221 231.155 761.077 235.948 766.015C236.946 766.978 237.246 768.243 236.796 769.568ZM197.907 770.893C193.015 774.386 192.665 780.468 194.512 784.924C196.359 789.38 200.753 792.994 206.144 790.284C214.98 785.888 233.801 773.603 235.349 768.905C235.498 768.484 235.548 768.002 234.949 767.4C230.656 763.004 207.043 764.389 197.907 770.893Z" fill="#848484"/>
<path fill-rule="evenodd" clip-rule="evenodd" d="M323.883 434C316.453 434 308.516 433.126 302.855 430.62C294.767 427.123 294.312 421.762 295.475 417.915C296.637 413.778 299.013 410.747 302.602 408.941C309.022 405.735 319.132 406.493 332.628 411.272C342.586 414.827 350.826 419.314 350.927 419.372C355.173 421.82 355.325 424.151 354.769 425.666C353.1 430.037 342.586 432.601 333.336 433.534C330.455 433.825 327.219 434 323.883 434ZM303.158 410.572C299.974 412.146 297.851 414.827 296.84 418.498C295.576 422.985 297.749 426.54 303.411 429.046C310.083 431.96 321.507 433.009 333.184 431.844C343.951 430.736 352.241 427.939 353.353 425.025C353.909 423.51 351.938 421.995 350.219 421.004C349.714 420.713 327.775 408.824 312.004 408.824C308.719 408.824 305.686 409.29 303.158 410.572Z" fill="#848484"/>
</g>
</svg>